<?xml version="1.0"?><svg width="533.3333333333333" height="500" xmlns="http://www.w3.org/2000/svg" xmlns:xlink="http://www.w3.org/1999/xlink">
 <title>Stuck Tree</title>
 <defs>
  <pattern id="pattern2390" patternTransform="translate(481.808, 272.061)" xlink:href="#pattern2380"/>
  <pattern id="pattern2388" patternTransform="translate(522.525, 272.061)" xlink:href="#pattern2380"/>
  <pattern id="pattern2386" patternTransform="translate(-598.213, 273.079)" xlink:href="#pattern2374"/>
  <pattern id="pattern2384" patternTransform="translate(-471.99, 274.097)" xlink:href="#pattern2374"/>
  <pattern id="pattern2382" patternTransform="translate(-364.09, 272.061)" xlink:href="#pattern2374"/>
  <pattern id="pattern2380" patternTransform="translate(393.248, 273.079)" xlink:href="#pattern2372"/>
  <pattern id="pattern2378" patternTransform="translate(282.294, 272.061)" xlink:href="#pattern2372"/>
  <pattern id="pattern2376" patternTransform="translate(237.505, 272.061)" xlink:href="#pattern2372"/>
  <pattern id="pattern2374" patternTransform="translate(-227.688, 272.061)" xlink:href="#pattern2372"/>
  <pattern id="pattern2372" patternTransform="translate(147.8, 271.552)" xlink:href="#pattern2368"/>
  <linearGradient id="linearGradient2362">
   <stop id="stop2363" offset="0" stop-color="#00b207"/>
   <stop id="stop2365" offset="0.5" stop-color="#83d400"/>
   <stop id="stop2364" offset="1" stop-color="#00b207"/>
  </linearGradient>
  <linearGradient id="linearGradient2367" x1="-0.139944" x2="0.81181" xlink:href="#linearGradient2362" y1="0.231391" y2="0.231391"/>
  <pattern height="35.26939" id="pattern2368" patternTransform="translate(93.8502, 187.064)" patternUnits="userSpaceOnUse" width="35.989169">
   <path d="m32.210312,34.999249l3.778858,0.134972l-34.54959,-0.045002c-0.92973,-11.786438 -1.22963,-18.444439 -1.43958,-35.089428c1.7095,17.154829 1.61951,21.443541 2.15936,32.570198c0.08996,-6.568039 0.53984,-12.506239 1.6195,-18.894328c0.05998,7.197841 -0.23993,13.76587 -0.89972,20.513839c0.35988,0.239933 0.71978,0.479862 1.07968,0.719791l3.05907,0c-1.13966,-2.279331 -1.6495,-4.648611 -1.79946,-6.298111c0.89973,1.49954 1.61951,3.179041 2.15935,5.57832c-0.77976,-4.768568 -1.28961,-9.267229 -1.25962,-14.035778c0.95971,5.57832 1.55953,8.6374 1.79946,12.9561c0.17995,-2.939121 0.08997,-5.698282 0.53985,-8.817341c0.38987,3.718889 0.41987,7.257809 0,10.52684l5.57831,0.08997c-0.77976,-5.098471 -1.28961,-9.20723 -1.25962,-15.295401c1.199639,5.818241 1.3196,9.47714 1.9794,14.215719c-0.23993,-5.818258 -0.74977,-7.947618 0.9897,-16.82494c-0.56983,9.357191 -0.86973,11.246611 0.62982,18.264511l5.93821,0c0.20993,-9.357191 0.14995,-13.58592 -0.71979,-25.37237c2.30932,10.316889 1.829451,14.06576 1.3496,23.213011c0.539841,-7.677691 0.35989,-24.442641 3.329,-30.500831c-1.829451,9.74708 -2.12936,21.113649 -2.69919,32.3003l6.2981,0c-0.839741,-4.138771 -1.58952,-8.27751 -1.43956,-12.416281c0.92972,6.148151 1.319599,8.60741 2.609211,11.066671c-0.449871,-5.368382 0.179949,-10.82674 1.529537,-15.74526c-0.599817,6.68799 -1.245699,14.735338 -0.359886,17.184828z" id="path2369" stroke-width="0.25000000pt" fill-rule="evenodd" fill="url(#linearGradient2367)"/>
  </pattern>
 </defs>
 <g>
  <title>Layer 1</title>
  <g id="g2505">
   <path d="m249.264893,205.452545c-3.053802,11.197205 -26.466125,21.37648 -42.75296,18.322693c-10.17926,13.911667 -36.645386,20.697845 -42.75296,-7.125488c-70.237,39.020538 -107.900311,-16.62616 -51.914291,-66.165283c-46.485374,15.608215 -33.930923,-78.719734 20.358536,-84.487984c-8.822014,-32.234383 39.359863,-53.271553 68.201141,-29.519913c-3.393097,-18.322691 40.038483,-43.77088 58.021881,-10.17927c17.644073,-28.50197 57.682556,-3.05378 72.272858,16.28684c27.823364,1.357227 56.664612,20.019218 52.932251,43.770885c30.198486,8.143417 53.271545,33.591614 35.627441,73.290771c12.893738,26.80542 -28.162659,55.646713 -74.308716,37.66333c-26.466125,11.536514 -61.075653,25.108871 -82.452118,9.161346" id="path2347" stroke-width="0.25000000pt" fill-rule="evenodd" fill="#028700"/>
   <path d="m234.013885,208.309128c6.56955,12.874283 7.700531,32.759979 7.125519,48.860489c-0.442902,12.401459 -3.306122,26.340393 -10.179291,36.645416l-5.431427,8.143402l-43.579987,8.143433l42.794067,-3.373138l-5.856506,5.09494l-25.241547,9.385406l-39.637207,-4.290466l16.458893,5.356934l-22.361328,23.552155l27.30368,-21.794159l19.241943,1.356628l-14.780121,19.988129l21.56897,-22.119232l21.568939,-4.844421l-1.488708,14.783752l7.148743,-13.28775l10.435028,-13.037201c2.9617,-3.700256 3.643219,17.31842 0,24.604889c-3.482269,6.964508 -21.898529,17.600525 -21.376495,19.340637c0.495911,1.652985 21.175507,-12.881104 24.430267,-9.161346c3.870728,4.423676 3.983673,24.012329 -3.053772,29.519897l-5.853088,4.580658l-41.607788,-3.308258l-28.784302,-14.704285l24.147949,15.324585c-10.273376,1.375793 -21.033875,0.146301 -32.855988,5.654266c-8.861145,4.128448 -15.702332,7.31369 -24.571411,11.734009c8.435669,-1.856934 24.154968,-9.193939 33.959412,-11.678345c9.282379,-2.352081 19.266388,-1.88739 28.899597,-2.831116l31.245605,2.401672l-32.374878,13.089935l-19.113983,-7.197083l14.986603,8.580811l-38.45459,19.778015l17.36142,-5.107544l-6.588196,28.238556l11.225525,-30.292297l14.307648,-7.652344l10.744904,13.724121l-5.026001,-14.887177l38.363129,-15.396149l-24.748352,26.338867l30.919556,-25.702667l9.924805,-5.598602c5.004395,-2.822998 3.904205,-0.018555 4.559357,14.081635l0.470612,10.128998l-13.080688,10.822754l14.333405,-6.824921l-1.501862,14.768555l-23.766907,8.79483l-21.592346,-3.908844l20.14267,6.779358l-4.287598,14.922821l8.852905,-15.22821l20.559052,-7.59375l0.2005,4.112457l0.185547,26.07019l2.803772,-22.494019l30.715668,16.208405l-29.965759,-20.45816l0.331299,-17.542877l14.558258,9.73584l-14.145386,-15.137848l1.824677,-29.273071c0.096619,-1.550049 1.705688,2.198303 4.53067,6.777527l6.387054,10.353271l7.958832,19.893066l-1.873718,-12.447845l29.173126,28.269226l-26.940125,-31.025024l26.501038,11.727905l-31.994843,-18.279205c-19.836884,-26.669128 -0.050049,-10.44043 31.046783,3.053772l8.674622,3.764282l38.211761,32.288116l-28.023743,-27.737152l39.159454,12.97995l-73.321503,-32.826813l23.890564,-3.306885l31.016052,11.198578l-26.990448,-13.232391l44.773468,-4.579987l-41.765778,1.019318l-30.059601,5.599945l-7.959259,-1.453796c-7.142822,-1.304688 -14.70047,-7.258514 -17.304749,-13.233063c-3.163971,-7.258484 -4.310577,-24.618713 0,-26.466095c5.190094,-2.224335 28.18988,16.123383 28.501953,14.250977c0.366547,-2.19928 -20.433289,-16.488739 -26.466125,-26.466125c-2.789185,-4.612915 -2.741333,-18.859741 0,-17.304779l7.178223,4.071716l10.057312,19.906952l-3.618561,-18.241577l24.467743,13.794098l17.814331,18.631775l-7.287964,-16.596313l30.140778,7.876343l34.729248,8.914703l-27.891907,-11.959015l20.15332,-11.681732l-25.193024,10.631592l-37.429993,-10.407318l13.674683,-8.247955l-19.439087,6.596252l-7.922516,-4.2005c-3.553802,-1.884216 -15.217499,-10.070404 -24.342926,-29.447571c-4.503021,-9.561798 -6.388428,-21.024017 -6.107574,-31.555725c0.397766,-14.916489 -0.391846,-33.180862 8.143433,-44.788803c16.912933,-23.001602 41.341461,-41.380295 64.129425,-61.075668c7.688049,-6.644684 16.310516,-3.57634 30.039673,-14.9646c-33.5448,10.257019 -34.596252,9.082092 -30.999695,-12.95192c-6.480408,6.757324 -4.713898,22.886475 -12.468872,31.042664c-17.404999,18.305466 -37.286224,33.718613 -49.682617,35.555115c-5.9263,0.87796 -0.359558,-24.269913 4.071716,-34.609528c5.748016,-13.412018 33.322723,-38.472313 26.466125,-36.645401c-3.956818,1.054276 -27.095947,28.807861 -32.5737,30.537827c-4.808563,1.518631 -2.954803,-35.616745 -5.08963,-29.519897c-1.758423,5.021881 -0.525452,24.25119 1.017914,36.136429c1.355042,10.434692 -8.566406,33.495453 -11.989304,31.417267c-6.077774,-3.690063 -20.590683,-19.568314 -16.810806,-50.336243c1.129944,-9.197678 -2.099365,-58.320007 -3.77356,-42.861481c-2.116943,19.54657 0.460022,29.980797 -4.071716,33.787437c-3.950989,3.318855 -12.987,-3.496254 -21.376465,-3.05378c-7.563293,0.398911 16.500519,4.926254 20.358551,11.197205c4.805969,7.811768 -0.849335,21.226624 -3.692444,31.287582c-12.425781,-1.115433 -25.538177,-5.947723 -39.235168,-13.088379c-7.084137,-3.693192 -5.640045,-34.838486 -8.986694,-32.450188c-3.726746,2.659599 1.881226,31.096733 -1.526886,33.591606c-3.60144,2.636398 -31.25293,20.977631 -30.02887,21.37648c5.329102,1.736435 27.373596,-17.30545 36.136414,-14.759949c6.291931,1.827728 52.862579,26.781006 58.530853,36.136429c3.334564,5.503693 -30.79538,-2.732101 -33.082642,1.526901c-2.061981,3.839432 22.590393,0.100784 27.992981,10.688232z" id="path1723" stroke-width="0.25000000pt" fill-rule="evenodd" fill="#7b5517"/>
  </g>
  <path d="m170.666687,148c0,0 3,0 5,0c12,0 26.019394,-0.52063 33,0c20.16774,1.504166 31.184555,5.592438 47,13c8.099823,3.793762 11.878571,5.493454 15,6c0.987091,0.160187 3,1 2,1c-4,0 -20.908951,-1.498779 -58,-3c-39.96727,-1.617645 -114.969994,9.117493 -150,18c-3.99662,1.013412 -9.292892,2.292892 -10,3c-0.707108,0.707108 27.98539,-10.051498 42,-14c17.981499,-5.066147 81.455612,-29.913559 136,-41c10.824036,-2.200043 18,1 18,-1c0,-1 -4.822174,1.459747 -25,9c-22.810913,8.524216 -43.83345,16.444336 -62,23c-2.974533,1.073395 8.958466,0.808319 27,-3c14.967239,-3.159378 69.046692,-10.578186 89,-13c7.019562,-0.85199 8.547363,-1.163101 8,-2c-9.559021,-14.615906 -40.686707,-11.275146 -72,-3c-38.24707,10.107529 -56.452347,23.454285 -65,31c-1.060211,0.935928 3.673599,16.395615 56,15c53.739624,-1.433304 86.483582,-19.239182 101,-29c4.149231,-2.789948 6.935333,-15.10614 -32,-29c-30.373138,-10.838486 -74.966507,0.012741 -96,16c-9.007172,6.846222 -11.770401,16.029846 -6,21c32.896378,28.334229 100.541473,8.767029 122,-5c6.573669,-4.217438 12.194397,-10.938171 5,-21c-11.777191,-16.47113 -34.037384,-19.4562 -49,-18c-15.451172,1.503746 -26.44458,11.342575 -28,22c-1.595139,10.929565 13.653534,25.227737 43,19c28.902924,-6.133621 33.486267,-17.823746 34,-20c0.459503,-1.946503 -9,-8 -19,-10l-5,0l-2,1l-2,0" id="svg_1" stroke-width="5" stroke="#000000" fill="#ffffff"/>
  <path d="m206.666687,159c0,0 0.292892,-0.292892 1,-1c0.707108,-0.707108 0.525726,-2.149353 0,-3c-1.175568,-1.902115 -12.12912,-3.601822 -22,-2c-3.121445,0.506546 -10.459381,0.982666 -18,5c-7.592102,4.044754 -12.486252,8.823746 -13,11c-0.689255,2.919754 10.228409,10.873489 26,8c21.576523,-3.931122 33.276688,-17.518448 44,-24c3.085678,-1.865097 3.493454,-3.878555 4,-7c0.160187,-0.987091 -4.426651,-5.454025 -20,3c-8.102646,4.398544 -15.917603,13.386871 -17,16c-0.765366,1.847763 -0.38269,3.076126 0,4c0.541199,1.306564 6.4077,2.392944 12,0c4.596848,-1.966995 6.292892,-3.292892 7,-4c0.707108,-0.707108 1,-1 2,-1c1,0 3.796997,-1.2565 5,-2c2.689987,-1.662506 10.930466,-2.877472 22,-13c9.928345,-9.078979 13.917603,-11.386871 15,-14c0.38269,-0.923874 -2.978561,-3.054459 -8,-5c-7.966919,-3.086761 -23.070236,-9.979469 -56,-1c-22.440079,6.11908 -27,15 -31,19l0,1" id="svg_2" stroke-width="5" stroke="#000000" fill="none"/>
  <path d="m4.666687,232c1,0 2,0 3,0c1,0 2,0 3,0c1,0 2,0 3,0c1,0 2,0 4,0c1,0 2,0 3,0c1,0 2,0 4,0c1,0 6.004868,0.901459 7,1c5.074203,0.502441 6,1 9,1c1,0 2,0 3,0c2,0 3,0 4,0c1,0 2,0 3,0c2,0 3,0 4,0c1,0 2.963833,-0.11586 6,-1c3.958679,-1.152771 6.823746,-1.486252 9,-2c8.759239,-2.06778 14,0 17,0c5,0 14,0 17,0c7,0 9.878555,0.493454 13,1c2.961266,0.480545 10,1 11,1c4,0 5.076126,-0.38269 6,0c1.306564,0.541199 4,1 9,1c3,0 12.052444,-0.144714 19,-1c4.092209,-0.503769 10,-1 14,-1c10,0 15,0 16,0c1,0 2,0 3,0c2,0 5,0 7,0c3,0 8,0 13,0c4,0 10,0 20,0c5,0 18.012238,-1.442398 26,-1c9.041534,0.500763 11,1 14,1c1,0 2.009735,0.197083 4,0c5.074219,-0.502441 9.759705,-5.483902 30,-8c19.87204,-2.470322 36.007782,-1.374023 45,-1c12.031189,0.500427 13.647491,1.972519 18,3c1.946503,0.459503 4,0 5,0c1,0 2,0 3,0c1,0 2,1 6,1c3,0 9.00589,0.446899 26,0c19.019714,-0.500168 29.00058,-1.108673 39,-1c46.008148,0.500031 51,2 71,2c1,0 2,0 3,0c1,0 2,0 7,0l9,0l1,0" id="svg_3" stroke-width="5" stroke="#000000" fill="#ffffff"/>
  <path d="m207.666687,176c0,0 -2.29454,-0.346191 0,-2c3.627991,-2.614899 8,-2 16,-2c7,0 13,0 16,0c0,0 -1,0 -5,0c-4,0 -7.96405,0.246796 -14,1c-11.948929,1.491074 -20,1 -27,1c-1,0 -0.194351,-3.44841 4,-5c11.600998,-4.291489 17.965988,-4.499481 29,-5c12.986649,-0.589081 16.292892,-0.707108 17,0c0.707108,0.707108 -8.012238,2.557602 -16,3c-9.041534,0.500763 -34.095016,3.768005 -55,6c-18.145157,1.937332 -29.234634,4.847763 -30,3c-2.16478,-5.226257 11.404922,-10.42897 34,-19c25.434494,-9.648117 57.971207,-13.499634 71,-14c2.997787,-0.115128 3.95816,-0.291428 -4,1c-5.033173,0.816772 -19.004669,1.63829 -33,2c-58.058151,1.500504 -116.04451,17.894485 -128,23c-16.061043,6.85878 -20.824429,7.097885 -22,9c-0.52573,0.850647 6.031952,1.798721 16,1c31.300316,-2.508011 78.940308,-20.180893 109,-30c24.951355,-8.150452 30,-10 31,-11c1,-1 0.653656,-7.653519 -17,-4c-15.327667,3.17215 -24.537186,16.2258 -29,27c-3.155685,7.6185 -1.81662,17.788498 13,19c22.286301,1.822281 42.466324,-11.885101 49,-22c9.09549,-14.080902 4.984131,-28.621811 -8,-32c-21.313156,-5.545227 -34.959808,-6.939697 -54,14c-9.025925,9.926376 -6.406021,33.365128 21,47c24.972733,12.424271 66.970032,2.847244 93,-12c6.263794,-3.5728 15.998077,-14.906647 17,-31c0.186401,-2.994202 -3.025726,-15.166824 -10,-20c-9.931366,-6.882439 -20.29361,-5.273491 -24,-1c-3.276001,3.777267 -7.033722,18.390564 6,27c17.422729,11.508621 28.514893,9.477417 40,6c3.450836,-1.04483 4.773468,-2.60405 5,-4c1.790894,-11.03598 -27.791473,-25.215691 -48,-26c-14.025116,-0.544327 -36.027145,7.139648 -44,27c-3.37355,8.403519 3.334183,19.50293 11,22c17.2202,5.609329 35.456512,-1.438065 42,-9c8.198975,-9.475067 10.683502,-23.409378 8,-32c-4.714447,-15.092186 -27.978973,-25.732964 -39,-25c-22.511292,1.497139 -33,11 -37,12l0,1" id="svg_4" stroke-width="5" stroke="#ffffff" fill="#ffffff"/>
  <path d="m264.466064,185c2.297241,0 4.655945,-0.229752 6.891724,0c4.99939,0.513748 25.775482,10.461456 80.40332,14c11.361084,0.735916 16.080688,0 18.377899,0c2.297241,0 -0.022339,0.802917 -4.594452,1c-23.313324,1.004898 -39.382935,2.382492 -62.025452,5c-7.021118,0.811661 -13.783386,2 -11.486176,2c2.297241,0 13.653625,-4.209564 29.864105,-6c20.528961,-2.26741 28.091461,-1.851944 34.458557,-3c3.001495,-0.541199 3.324615,-2.105576 2.297241,-3c-5.13678,-4.472137 -42.756714,-9.944107 -89.592255,-13c-43.225098,-2.820313 -74.753296,0.946503 -75.808884,-1c-1.180176,-2.176254 22.361389,-3.964859 43.647522,-6c20.3181,-1.942596 55.307388,-3.644012 89.5923,-7c9.240997,-0.904556 15.115662,-2.783798 9.188965,-6c-16.071167,-8.72113 -36.793518,-8.589859 -66.619904,-2c-23.356354,5.160355 -38.516586,11.493561 -32.161362,19c35.500107,41.930801 96.456223,40.499939 167.69838,41c18.375519,0.128983 31.704895,-3.353134 39.05304,-12c2.391052,-2.81366 -0.283203,-5.457535 -13.783447,-8c-44.725464,-8.423065 -71.513123,-3.960663 -96.483978,-2c-25.776581,2.023926 -38.017334,6.95517 -45.944763,8c-2.198639,0.28978 6.958099,0.160187 20.675171,-1c20.790649,-1.758469 34.616821,-2.428406 78.106079,-5c13.846375,-0.818756 20.67514,0 20.67514,-1c0,-5 -23.000916,-0.498138 -45.944763,0c-23.058289,0.500626 -68.41806,6.56868 -84.997803,9c-8.976135,1.316284 -19.090057,1.337494 -25.269608,3c-2.763596,0.7435 -6.891724,1 -9.188965,1c0,0 -2.297241,0 -4.594482,0c-4.594467,0 -6.891708,0 -11.486176,0c-2.297256,0 -6.891724,0 -9.188965,0c-2.297241,0 -6.932861,0.327347 -13.783417,0c-21.05304,-1.006012 -27.008896,-2.986923 -41.350296,-4c-4.535141,-0.320358 -9.538681,-0.234634 -13.783432,-1c-3.00148,-0.541199 -6.486801,-1.486252 -11.486176,-2c-4.471573,-0.459503 -16.080673,0 -20.675148,0c-9.18895,0 -11.486191,0 -13.783432,0c-2.297234,0 -4.594475,0 -6.891708,0c-2.297241,0 -4.594482,0 -6.891716,0c-4.594467,0 -6.891708,0 -11.486183,0c-2.297241,0 -4.769356,-0.38269 -6.891716,0c-3.001488,0.541199 -5.267319,0.292892 -6.891716,1c-1.624393,0.707108 -2.297237,1 -4.594475,1c-2.297237,0 -1.592995,1.458801 -4.594479,2c-2.122372,0.38269 -5.267319,-0.707108 -6.891712,0c-1.624393,0.707108 -1.958923,1.173096 -4.594479,2c-4.167171,1.307449 -9.250404,1.770248 -11.486187,2c-4.999367,0.513748 -7.564558,1.292892 -9.188951,2c-1.624393,0.707108 -0.672848,1.292892 -2.297239,2c-1.624392,0.707108 -4.594477,0 -4.594477,1c0,1 0,2 2.297239,2c2.297237,0 6.891714,0 16.080666,0c6.891712,0 9.18895,0 13.783428,0c4.594475,0 6.981152,0.7883 25.269623,0c11.656647,-0.502441 20.76413,-1.519455 27.566849,-2c7.170708,-0.506546 13.783424,-1 18.377907,-1c2.297234,0 4.594475,0 6.891708,0c2.297249,0 4.594475,0 9.188942,0c4.594482,0 6.891724,0 9.188965,0c2.297241,0 4.594467,0 6.891724,0c4.594467,0 6.78447,0.499039 25.269608,1c2.292801,0.062134 6.891724,0 9.18895,0c2.297241,0 6.891724,1 11.486206,1c4.594452,0 6.891708,0 16.080658,0c2.297226,0 6.986633,-0.152771 16.080658,1c6.974792,0.88414 16.080673,1 20.67514,1c11.486206,0 22.972382,0 32.161346,0c6.891693,0 16.080658,0 29.864075,0c13.783417,0 18.37793,0 32.161346,0c13.783417,0 18.377899,1 25.269623,1c11.486176,0 25.269623,0 43.647522,0c6.891693,0 15.129089,-1.414215 18.377869,0c1.62439,0.707108 -11.87265,2.584808 -29.864075,6c-4.708557,0.893799 -8.477386,3.01297 -27.566864,5c-20.231964,2.105957 -34.458557,1 -36.755768,1c-4.594513,0 -8.484711,-0.458801 -11.486237,-1c-6.367096,-1.148056 -9.188934,0 -11.486176,0c-4.594452,0 -6.891724,-1 -11.486176,-1c-4.594482,0 -9.188965,0 -11.486176,0c-4.594513,0 -6.425385,-0.2565 -9.188965,-1c-6.179565,-1.662506 -11.486176,-2 -18.377899,-2c-6.891724,0 -9.188965,0 -16.080688,-1c-6.891708,-1 -9.311844,-0.540497 -13.783417,-1c-4.999374,-0.513748 -9.188965,-1 -11.486191,-1c-2.297241,0 -4.594482,0 -6.891724,0c-2.297226,0 -4.769333,0.38269 -6.891708,0c-3.001495,-0.541199 -4.594467,-1 -6.891724,-1c-2.297226,0 -4.594452,0 -6.891708,0c-2.297226,0 -4.594467,0 -9.18895,0c-2.297226,0 -4.594467,0 -6.891708,0c-2.297241,0 -6.891724,0 -9.18895,0c-4.594482,0 -13.783432,0 -18.377899,0c-6.891724,0 -8.977112,0.496231 -18.377914,1c-2.280014,0.122177 -4.487244,0.499039 -22.972382,1c-4.585594,0.124268 -16.080666,1 -20.67514,1c-2.297234,0 -11.486183,0 -13.783424,0c-9.18895,0 -13.783428,1 -20.675144,1c-6.891712,0 -9.188953,0 -13.783428,0c-2.297237,0 -4.594475,0 -6.891712,0c-2.297237,0 -4.594477,0 -6.891714,0c-2.297237,0 -11.486191,0 -18.377904,0c-2.297238,0 0.001983,-0.941254 4.594476,-1c39.10367,-0.500214 52.836477,-1 66.619902,-1c11.486183,0 18.377899,0 27.566856,0c11.486191,0 18.377899,0 22.972374,0c4.594467,0 6.891724,0 9.18895,0c2.297241,0 4.417862,-0.268555 -4.594482,1c-11.770912,1.656845 -22.972366,2 -25.269608,2c-4.594475,0 -9.18895,0 -13.783424,0c-6.891716,0 -13.783424,0 -22.972374,0c-6.891716,0 -10.29126,-0.323669 -6.891716,-2c5.481575,-2.703003 13.571594,-3.496231 22.972374,-4c11.400131,-0.610916 18.377907,0 25.269615,0c11.486191,0 13.78344,0 9.188957,0c-9.188957,0 -25.191475,-0.499481 -50.53923,-1c-13.769276,-0.271881 -18.377911,-1 -18.377911,0c0,1 4.594479,0 11.486195,0c9.18895,0 23.001266,-0.354446 34.458565,0c16.203064,0.501266 29.652252,2.496231 39.05304,3c2.280045,0.122177 2.297241,1 0,1c-9.18895,0 -20.675133,2 -27.566849,2c-18.377907,0 -27.566849,0 -32.161331,0c-2.297234,0 0,0 9.18895,0c9.18895,0 32.075417,0.499374 55.133713,1c4.588776,0.099625 9.18895,0 4.594467,0c-9.18895,0 -36.755798,-1 -39.05304,-1c-4.594475,0 -9.18895,0 -13.783424,0c-4.594482,0 -16.080666,0 -25.269615,0c-2.297241,0 -5.143341,-0.415894 2.297241,-2c6.52581,-1.389359 36.725044,-3.499924 101.078476,-4c18.374969,-0.142792 27.566833,0 29.86409,0c2.297226,0 2.297226,1 -4.594482,1c-4.594482,0 -20.52562,-0.999054 -73.51162,-2c-16.065544,-0.303482 -34.458572,0 -43.647514,0c-9.18895,0 -13.783432,-1 -13.783432,0c0,2 9.188957,0 22.972374,0c29.864098,0 62.034996,-0.032776 80.403328,1c34.477127,1.938507 60.265778,4.49295 71.214386,7c7.330475,1.678558 7.458847,3.332687 4.594467,4c-10.327621,2.406006 -25.336487,1.762512 -48.241989,1c-30.127487,-1.002914 -43.68634,-2.903397 -57.430954,-4c-11.521729,-0.91925 -19.050735,-1.292892 -20.67514,-2c-1.62439,-0.707108 1.635033,-2.521042 9.18895,-4c41.161804,-8.058975 89.868317,-8.591156 153.914963,-6c37.23584,1.50647 47.429626,4.236984 45.944763,5c-9.032196,4.641266 -25.370239,1.886841 -45.944763,1c-58.283279,-2.512222 -101.118942,-8.503784 -117.159149,-9c-16.203049,-0.501266 -20.396439,1.121323 -25.269623,-1c-1.62439,-0.707108 16.097992,-2.948563 32.161346,-4c43.697006,-2.860229 80.40332,-3 103.375702,-3c16.080658,0 23.645233,-0.707108 25.269623,0c1.62439,0.707108 -2.297241,2 -11.486176,3c-9.188965,1 -18.37793,1 -41.350311,1c-18.377899,0 -45.944748,0 -57.430939,0c-2.297241,0 2.469116,1.519623 20.67514,3c18.621414,1.51416 57.483337,3.856979 87.295044,6c39.126526,2.812622 50.134308,4.486252 55.133698,5c2.235809,0.229752 -4.773438,1.474915 -36.755798,0c-32.708405,-1.508392 -120.185318,-18.477005 -222.832085,-23c-11.427795,-0.503555 -13.783424,0 -22.972374,0c-2.297241,0 -3.54364,-1.910721 6.891708,-4c19.241837,-3.852448 101.233643,-5.639587 151.617706,-3c92.251801,4.833023 128.645325,11 128.645325,10c0,-5 -33.996826,-1.046387 -75.808838,-4c-66.110611,-4.670074 -103.268494,-4.499039 -121.753632,-5c-22.927979,-0.621368 -30.461929,-0.494461 -13.783432,-4c22.280762,-4.683044 54.369583,-12.492981 181.481827,-16c128.387695,-3.542206 162.595734,-3.993881 163.103882,0c1.15036,9.041534 -68.984894,2.737289 -112.564667,5c-103.556519,5.37677 -123.70993,7.995102 -147.023224,9c-9.144226,0.39415 -13.631805,1.122345 -9.188965,0c35.819427,-9.048615 92.034821,-25.48848 172.292877,-33c20.337585,-1.903442 27.554932,-2.249359 13.783386,-2c-27.638489,0.500427 -78.856873,6.165237 -110.267395,12c-9.449188,1.755264 -16.080658,2 -16.080658,3c0,1 36.761536,6.381485 103.375702,6c87.317719,-0.500046 119.333954,-4.498734 135.537018,-5c2.291443,-0.070892 5.724243,-2.794266 -18.377899,-10c-37.300385,-11.151596 -69.746857,-11.363449 -117.159119,-7c-49.751801,4.578751 -75.014557,16.286545 -80.403351,24c-9.381378,13.428436 14.564484,22.980453 64.322662,19c73.872467,-5.909515 104.452515,-22.539764 107.970215,-30c0.461884,-0.979584 -5.65329,-9.474213 -45.944763,-12c-31.832977,-1.995544 -59.838837,0.938522 -80.403351,8c-11.548859,3.965668 -29.821869,12.712006 -32.161316,18c-2.606567,5.891739 11.811279,12.576996 57.430939,10c52.594849,-2.971024 84.762054,-19.56134 89.592285,-25c4.223907,-4.755966 0.220886,-14.53064 -36.755829,-20c-26.461212,-3.913986 -53.591431,-2.492004 -91.889496,9c-35.182159,10.557037 -60.352325,24.631409 -52.836487,32c11.379272,11.156311 63.85022,11.385727 112.564667,3c41.091949,-7.073593 49.387726,-12.946716 50.539246,-20c0.651398,-3.989944 -20.91153,-15.829422 -55.133698,-22c-24.198761,-4.363266 -67.847076,-4.16568 -98.78125,7c-21.294189,7.686142 -32.991058,22.053482 -29.864105,30c1.734558,4.407944 58.956512,7.984695 133.239807,-12c58.624451,-15.771927 105.513702,-35.207825 110.267426,-43c4.127411,-6.765495 -41.254852,-17.499237 -62.025421,-18c-25.230927,-0.608307 -73.600861,6.967346 -110.267395,26c-32.407898,16.822098 -40.015411,32.28273 -20.675171,39c34.540955,11.99678 96.10611,-0.993988 117.159149,-2c2.283508,-0.109116 8.634033,-12.54744 -16.080688,-23c-34.285248,-14.500259 -68.467468,-17.222534 -87.295013,-13c-27.474152,6.161743 -56.575562,30.808762 -57.430969,41c-0.676239,8.056885 11.306549,12.606857 20.67514,12c13.249207,-0.858215 29.761353,-11.901184 29.864105,-17c0.225281,-11.179916 -19.067688,-22.990036 -64.322693,-19c-28.211441,2.48735 -57.201752,19.319351 -68.917114,27c-2.8414,1.862839 2.366348,4.334717 32.161331,3c71.427536,-3.199707 81.163712,-4.056366 80.403336,-5c-4.868927,-6.042175 -18.439362,-7.229752 -20.67514,-7c-9.998749,1.027481 -27.561813,18.900482 -29.86409,34c-0.608582,3.991211 -0.31839,6.386383 6.891678,6c29.727936,-1.593079 43.070496,-17.115082 39.05307,-26c-5.558929,-12.294083 -21.008575,-14.067734 -29.864105,-13c-38.727112,4.669434 -63.94986,19.513168 -71.214355,29c-2.179367,2.846054 -0.379517,7.089447 27.566833,7c25.683228,-0.082199 60.98941,-13.606415 68.917145,-19c8.305481,-5.650558 0.934753,-14.47554 -18.377899,-16c-11.30188,-0.89212 -32.647476,2.854065 -41.350281,12c-5.274673,5.543274 5.183899,16.418854 16.080658,18c8.717407,1.264908 25.185181,-4.424011 29.864075,-15c2.17218,-4.909775 -6.612701,-9.493454 -13.783417,-10c-13.605423,-0.96109 -25.269608,4 -27.566849,7l0,1l2.297241,2" id="svg_6" stroke-linecap="null" stroke-linejoin="null" stroke-dasharray="null" stroke-width="5" stroke="#ffffff" fill="none"/>
  <rect id="svg_7" height="253.999987" width="530" y="1" x="1.666687" stroke-linecap="null" stroke-linejoin="null" stroke-dasharray="null" stroke-width="5" stroke="#ffffff" fill="#ffffff"/>
 </g>
</svg>