<?xml version="1.0" standalone="no"?>
<!DOCTYPE svg PUBLIC "-//W3C//DTD SVG 1.1//EN" "http://www.w3.org/Graphics/SVG/1.1/DTD/svg11.dtd" >
<svg>
<metadata>
Created by FontForge 20090914 at Wed Sep  5 19:05:57 2012
 By www-data
Copyright (c) 2009-2010, Ed Merritt (ed@edmerritt.com)
This Font Software is licensed under the SIL Open Font License, Version 1.1.
This license is available with a FAQ at http://scripts.sil.org/OFL
</metadata>
<defs>
<font id="Jura-Regular" horiz-adv-x="553" >
  <font-face 
    font-family="Jura"
    font-weight="400"
    font-stretch="normal"
    units-per-em="1000"
    panose-1="0 0 0 0 0 0 0 0 0 0"
    ascent="782"
    descent="-218"
    x-height="487.998"
    cap-height="663.998"
    bbox="-70 -217.999 947 837.999"
    underline-thickness="50"
    underline-position="-50"
    unicode-range="U+000D-U+FB02"
  />
<missing-glyph horiz-adv-x="250" 
 />
    <glyph glyph-name=".notdef" horiz-adv-x="250" 
 />
    <glyph glyph-name=".null" 
 />
    <glyph glyph-name=".null" 
 />
    <glyph glyph-name="nonmarkingreturn" unicode="&#xd;" 
 />
    <glyph glyph-name="space" unicode=" " horiz-adv-x="250" 
 />
    <glyph glyph-name="exclam" unicode="!" horiz-adv-x="163" 
d="M88 137c-1.33301 -13.333 -9.33398 -20 -24.001 -20s-22.667 6.66699 -24 20l-20 488c-1.33301 26 13.334 39 44.001 39c30 0 44.667 -13 44 -39zM107.999 39c0 -26 -14.667 -39 -44 -39s-44 13 -44 39s14.667 39 44 39c14.667 0 25.667 -3.5 33 -10.5s11 -16.5 11 -28.5
z" />
    <glyph glyph-name="quotedbl" unicode="&#x22;" horiz-adv-x="268" 
d="M213 679c-1.33301 -15.333 -2.99805 -31 -4.99805 -47s-4.83301 -30.5 -8.5 -43.5s-7.83398 -23.667 -12.501 -32s-10 -12.5 -16 -12.5s-11.333 4.16699 -16 12.5s-8.83398 19 -12.501 32s-7 27.5 -10 43.5s-5.5 31.667 -7.5 47c0 29.333 14.333 44 43 44
c19.333 0 31.833 -4.83301 37.5 -14.5s8.16699 -19.5 7.5 -29.5zM108.002 679c-1.33301 -15.333 -2.99805 -31 -4.99805 -47s-4.83301 -30.5 -8.5 -43.5s-7.83398 -23.667 -12.501 -32s-10 -12.5 -16 -12.5s-11.333 4.16699 -16 12.5s-8.83398 19 -12.501 32
s-7 27.5 -10 43.5s-5.5 31.667 -7.5 47c0 29.333 14.333 44 43 44c19.333 0 31.833 -4.83301 37.5 -14.5s8.16699 -19.5 7.5 -29.5z" />
    <glyph glyph-name="numbersign" unicode="#" horiz-adv-x="629" 
d="M574 436c0 -1.33301 -0.166992 -2.49805 -0.5 -3.49805s-0.5 -2.16699 -0.5 -3.5l-5 -29c-4 -13.333 -12.333 -20 -25 -20h-123l-15 -97h134c10 0 15 -3.66699 15 -11c0 -4.66699 -0.333008 -7.33398 -1 -8.00098l-4 -30c-4 -12.667 -12.333 -19 -25 -19h-130l-31 -195
c-2 -13.333 -10 -20 -24 -20h-20c-10.667 0 -16 4.33301 -16 13c0 4 0.333008 6.33301 1 7l31 195h-117l-31 -195c-2 -13.333 -10 -20 -24 -20h-20c-10 0 -15 4 -15 12c0 4.66699 0.333008 7.33398 1 8.00098l30 195h-123c-10.667 0 -16 4.33301 -16 13
c0 4 0.333008 6.33301 1 7l5 29c4 13.333 12.333 20 25 20h119l15 97h-130c-10.667 0 -16 4 -16 12c0 4 0.333008 6.33301 1 7l5 30c4 12.667 12.333 19 25 19h126l31 196c2 12.667 10 19 24 19h20c10 0 15 -3.66699 15 -11c0 -4.66699 -0.333008 -7.33398 -1 -8.00098
l-30 -196h117l31 196c2 12.667 10 19 24 19h20c10 0 15 -3.66699 15 -11c0 -4.66699 -0.333008 -7.33398 -1 -8.00098l-31 -196h128c10.667 0 16 -4.33301 16 -13zM361 380.002h-117l-15 -96h117z" />
    <glyph glyph-name="dollar" unicode="$" horiz-adv-x="464" 
d="M409 186c0 -50 -10.668 -90.5059 -32.001 -121.506s-51 -51.167 -89 -60.5l-17 -4v-32c0 -12.667 -6.66699 -19 -20 -19c-12.667 0 -19 6.66699 -19 20v25c-3.33301 -0.666992 -7 -1 -11 -1h-11h-9v-25c0 -12.667 -6.66699 -19 -20 -19c-12.667 0 -19 6.66699 -19 20v28
c-11.333 0.666992 -23.333 2.66699 -36 6c-30.667 7.33301 -63.334 18.333 -98.001 33l-8 96v4c0 11.333 4.33301 17 13 17c14 0 23 -6.66699 27 -20l13 -39c6 -6 13.167 -11.833 21.5 -17.5s17.833 -11.167 28.5 -16.5c5.33301 -2.66699 11.166 -5.16699 17.499 -7.5
s13.5 -4.16602 21.5 -5.49902v276c-18.667 9.33301 -35.667 19.333 -51 30s-28.666 22.334 -39.999 35.001c-28.667 30.667 -43 67.334 -43 110.001c0 42 10.5 76.5 31.5 103.5s48.5 45.5 82.5 55.5l20 6v22c0 13.333 6.33301 20 19 20c13.333 0 20 -6.66699 20 -20v-17
c2.66699 0.666992 5.33398 1 8.00098 1h8c9.33301 0 14.333 -0.333008 15 -1v17c0 13.333 6.33301 20 19 20c13.333 0 20 -6.66699 20 -20v-22c3.33301 -0.666992 6.5 -1.16699 9.5 -1.5s6.16699 -1.16602 9.5 -2.49902c25.333 -5.33301 52 -15.333 80 -30l9 -96
c0 -7.33301 -1.16699 -12.666 -3.5 -15.999s-7.16602 -5 -14.499 -5c-10.667 0 -18 6.66699 -22 20l-13 39c-6.66699 6 -13.667 11.5 -21 16.5s-15 9.83301 -23 14.5l-11 6v-251c42.667 -20 75.667 -42.667 99 -68c26 -29.333 39 -63.666 39 -102.999zM231.999 615.994
c-0.666992 0.666992 -4.66602 1 -11.999 1h-9.5c-3 0 -6.16699 -0.333008 -9.5 -1v-227c4.66699 -2.66699 9.66699 -5.16699 15 -7.5s10.666 -4.83301 15.999 -7.5v242zM162 414.994v191c-5.33301 -2.66699 -10.5 -5.5 -15.5 -8.5s-9.16699 -6.83301 -12.5 -11.5
c-18.667 -18.667 -28 -44.667 -28 -78c0 -26 12 -51.333 36 -76zM332 175.994c0 22 -11 44.666 -33 67.999c-3.33301 4 -7.5 8 -12.5 12l-15.5 12v-212c6.66699 3.33301 12.5 7 17.5 11s9.16699 7.66699 12.5 11c20.667 22.667 31 55.334 31 98.001zM232 290.993
c-4.66699 2.66699 -9.66797 5.16699 -15.001 7.5s-10.666 4.83301 -15.999 7.5v-262h3h14.5c4.33301 0 8.83301 0.333008 13.5 1v246z" />
    <glyph glyph-name="percent" unicode="%" horiz-adv-x="692" 
d="M307 498c0 -48 -12.5029 -86.832 -37.5029 -116.499s-60.5 -44.5 -106.5 -44.5c-21.333 0 -40.666 4 -57.999 12s-32.333 19 -45 33s-22.5 30.833 -29.5 50.5s-10.5 41.5 -10.5 65.5c0 38 7.5 71 22.5 99s36.5 47.667 64.5 59c17.333 7.33301 36 11 56 11
c20.667 0 39.834 -3.83301 57.501 -11.5s32.834 -18.834 45.501 -33.501s22.667 -32.5 30 -53.5s11 -44.5 11 -70.5zM591.997 663.001l-475 -664h-55l478 664h52zM636.997 158.001c0 -48 -12.5029 -86.832 -37.5029 -116.499s-60.5 -44.5 -106.5 -44.5
c-21.333 0 -40.666 4 -57.999 12s-32.333 19 -45 33s-22.5 30.833 -29.5 50.5s-10.5 41.5 -10.5 65.5c0 38 7.5 71 22.5 99s36.5 47.667 64.5 59c17.333 7.33301 36 11 56 11c20.667 0 39.834 -3.83301 57.501 -11.5s32.834 -18.834 45.501 -33.501s22.667 -32.5 30 -53.5
s11 -44.5 11 -70.5zM243.994 496.002c0 40 -6.33203 71.5 -18.999 94.5s-33 34.5 -61 34.5c-10 0 -21 -2.66699 -33 -8c-16.667 -7.33301 -28.834 -21.5 -36.501 -42.5s-11.5 -46.5 -11.5 -76.5c0 -34 6.33301 -62 19 -84s33 -33 61 -33c26 0 46 10.167 60 30.5
s21 48.5 21 84.5zM573.995 156.002c0 40 -6.33203 71.5 -18.999 94.5s-33 34.5 -61 34.5c-10 0 -21 -2.66699 -33 -8c-16.667 -7.33301 -28.834 -21.5 -36.501 -42.5s-11.5 -46.5 -11.5 -76.5c0 -34 6.33301 -62 19 -84s33 -33 61 -33c26 0 46 10.167 60 30.5
s21 48.5 21 84.5z" />
    <glyph glyph-name="ampersand" unicode="&#x26;" horiz-adv-x="634" 
d="M579 20c0 -13.333 -5.66797 -20 -17.001 -20h-74c-10.667 0 -19 4 -25 12l-60 81c-26 -62 -83.333 -93 -172 -93c-32 0 -61 5.16699 -87 15.5s-48.167 24.833 -66.5 43.5s-32.5 40.667 -42.5 66s-15 53 -15 83c0 24 4 47 12 69s18.667 42.333 32 61s29 35 47 49
s37 25 57 33c-22 30.667 -33 63.667 -33 99c0 46 12 81.667 36 107s57 38 99 38c17.333 0 32.333 -3.16699 45 -9.5s23.334 -14.666 32.001 -24.999s15 -22 19 -35s6 -25.833 6 -38.5c0 -24 -8.16699 -46.5 -24.5 -67.5s-44.833 -42.167 -85.5 -63.5l146 -210l20 73h39
l-35 -107l77 -107c2.66699 -2.66699 5.5 -5.33398 8.5 -8.00098s6.5 -5 10.5 -7l23 -12c7.33301 -4 13.833 -8 19.5 -12s8.5 -9 8.5 -15zM311.999 546c0 28 -5.16797 48.665 -15.501 61.998s-22.166 20 -35.499 20c-20.667 0 -35.167 -6.33301 -43.5 -19
s-12.5 -30.667 -12.5 -54c0 -17.333 2.66699 -34.166 8 -50.499s13.333 -33.166 24 -50.499c50 20 75 50.667 75 92zM192.998 385.998c-10 -2.66699 -20.1689 -8.33398 -30.502 -17.001s-19.666 -19.667 -27.999 -33s-15 -28.833 -20 -46.5s-7.5 -37.167 -7.5 -58.5
s4 -42.666 12 -63.999s18.667 -40.333 32 -57s28.833 -30.167 46.5 -40.5s36.5 -15.5 56.5 -15.5c34 0 61.333 6.5 82 19.5s34.334 29.167 41.001 48.5z" />
    <glyph glyph-name="quotesingle" unicode="'" horiz-adv-x="163" 
d="M108 679c-1.33301 -15.333 -2.99805 -31 -4.99805 -47s-4.83301 -30.5 -8.5 -43.5s-7.83398 -23.667 -12.501 -32s-10 -12.5 -16 -12.5s-11.333 4.16699 -16 12.5s-8.83398 19 -12.501 32s-7 27.5 -10 43.5s-5.5 31.667 -7.5 47c0 29.333 14.333 44 43 44
c19.333 0 31.833 -4.83301 37.5 -14.5s8.16699 -19.5 7.5 -29.5z" />
    <glyph glyph-name="parenleft" unicode="(" horiz-adv-x="207" 
d="M152 -39c0 -13.333 -4.66699 -20 -14 -20c-10.667 0 -19 6.66699 -25 20c-62 132.667 -93 266 -93 400c0 133.333 31 267 93 401c6 12.667 14.333 19 25 19c9.33301 0 14 -6.33301 14 -19c-36 -134 -54 -267.667 -54 -401c0 -134 18 -267.333 54 -400z" />
    <glyph glyph-name="parenright" unicode=")" horiz-adv-x="208" 
d="M153 363c0 -138.667 -31.333 -272.667 -94 -402c-6 -13.333 -14 -20 -24 -20s-15 6.66699 -15 20c36 132.667 54 266 54 400c0 133.333 -18 267 -54 401c0 12.667 5 19 15 19c10.667 0 19 -6.33301 25 -19c62 -133.333 93 -266.333 93 -399z" />
    <glyph glyph-name="asterisk" unicode="*" horiz-adv-x="281" 
d="M226 654c0 -7.33301 -1.83496 -12.5029 -5.50195 -15.5029s-9.5 -5.83301 -17.5 -8.5s-18.5 -5.66699 -31.5 -9s-28.5 -8.66602 -46.5 -15.999c22 -9.33301 38 -15.5 48 -18.5s17.167 -5 21.5 -6s7.33301 -1.5 9 -1.5s5.16699 -1.66699 10.5 -5
c7.33301 -7.33301 11 -14 11 -20s-2.5 -11.833 -7.5 -17.5s-10.167 -8.5 -15.5 -8.5c-6.66699 0 -11.5 1 -14.5 3s-6.5 5.83301 -10.5 11.5s-9.83301 13.5 -17.5 23.5s-19.5 22.667 -35.5 38c6 -26 10.667 -44.167 14 -54.5s5.66602 -17.166 6.99902 -20.499l3 -6
c0.666992 -0.666992 1 -4 1 -10c0 -16.667 -8 -25 -24 -25c-16.667 0 -25 8 -25 24c0 6.66699 0.166992 10.334 0.5 11.001s1.33301 2.83398 3 6.50098s4 10.5 7 20.5s7.16699 27.667 12.5 53c-18 -18 -30.5 -31.167 -37.5 -39.5s-11.5 -14.333 -13.5 -18
s-3.33301 -5.83398 -4 -6.50098s-3.66699 -2.33398 -9 -5.00098c-5.33301 -4 -10.333 -6 -15 -6c-5.33301 0 -10.666 3 -15.999 9s-8 12.667 -8 20c0 6.66699 1.83301 11.5 5.5 14.5s9.66699 5.66699 18 8s19 5.16602 32 8.49902s28.5 9 46.5 17
c-18.667 8 -33 13.5 -43 16.5s-17.833 5.16699 -23.5 6.5l-12.5 3c-2.66699 0.666992 -6 2.66699 -10 6c-8 4.66699 -12 10.667 -12 18s2.66699 13.666 8 18.999s10.333 8 15 8c6 0 10.333 -0.666992 13 -2s6 -4.5 10 -9.5l17.5 -22.5c7.66699 -10 20.167 -24 37.5 -42
c-4.66699 22.667 -8.5 39.167 -11.5 49.5s-5.5 17.833 -7.5 22.5s-3.33301 7.83398 -4 9.50098s-1 5.16699 -1 10.5c0 16.667 8 25 24 25s24 -8 24 -24c0 -5.33301 -0.5 -9.66602 -1.5 -12.999s-2.5 -7.83301 -4.5 -13.5s-4.33301 -13.5 -7 -23.5s-5.66699 -24 -9 -42v-1
c14.667 14.667 25.834 26.834 33.501 36.501s13.667 17.5 18 23.5s8.33301 10.167 12 12.5s8.83398 3.5 15.501 3.5c6 0 11.333 -3.16699 16 -9.5s7 -12.5 7 -18.5z" />
    <glyph glyph-name="plus" unicode="+" horiz-adv-x="459" 
d="M398 231c-5.33301 -4 -11.667 -6.00098 -19 -6.00098l-143 3l3 -140c0 -8 -2 -14 -6 -18s-9.83301 -5.83301 -17.5 -5.5s-13.5 2.5 -17.5 6.5c-4.66699 4.66699 -7 11 -7 19l-3 138l-144 2c-8 0.666992 -13.667 2.66699 -17 6c-4.66699 4.66699 -7 11.334 -7 20.001
c0 7.33301 2 13 6 17c4.66699 4 10.667 6 18 6l143 -2l-3 147c0 8.66699 2 14.667 6 18c4 4 9.83301 5.83301 17.5 5.5s13.834 -2.5 18.501 -6.5c4 -5.33301 6 -11.333 6 -18l3 -148l143 -2c3.33301 0 6.66602 -0.166992 9.99902 -0.5s6.33301 -1.83301 9 -4.5
c4 -4 6.16699 -10 6.5 -18s-1.5 -14.333 -5.5 -19z" />
    <glyph glyph-name="comma" unicode="," horiz-adv-x="172" 
d="M117 20c0 -8.66699 -1.16602 -17.668 -3.49902 -27.001s-5.83301 -17.666 -10.5 -24.999s-11 -13.5 -19 -18.5s-17.333 -7.5 -28 -7.5c-16 0 -24 5.33301 -24 16c0 4.66699 1.66699 8 5 10s7 3.66699 11 5c1.33301 0 2.33301 0.166992 3 0.5s1.66699 0.5 3 0.5
c7.33301 2.66699 12.166 6.16699 14.499 10.5s3.83301 8.5 4.5 12.5h-5c-32 0 -48 13.667 -48 41s16 41 48 41c32.667 0 49 -13.667 49 -41v-18z" />
    <glyph glyph-name="hyphen" unicode="-" horiz-adv-x="367" 
d="M313 265c0 -8 -2.49902 -14 -7.49902 -18s-10.833 -6 -17.5 -6h-244c-17.333 0 -25.333 8 -24 24c1.33301 15.333 9.66602 23 24.999 23h243c16.667 0 25 -7.66699 25 -23z" />
    <glyph glyph-name="period" unicode="." horiz-adv-x="173" 
d="M118 39c0 -26 -16.333 -39 -49 -39s-49 13 -49 39s16.333 39 49 39c15.333 0 27.333 -3.5 36 -10.5s13 -16.5 13 -28.5z" />
    <glyph glyph-name="slash" unicode="/" horiz-adv-x="348" 
d="M293 723l-214 -723h-59l215 723h58z" />
    <glyph glyph-name="zero" unicode="0" horiz-adv-x="518" 
d="M463 274c0 -182.667 -72 -274 -216 -274h-11c-144 -0 -216 91.333 -216 274c0 182 72 273 216 273h11c144 0 216 -91 216 -273zM382 274c0 148 -47 225.666 -141 232.999c-93.333 -7.33301 -140 -85 -140 -233s46.667 -225.667 140 -233
c94 6.66699 141 84.334 141 233.001z" />
    <glyph glyph-name="one" unicode="1" horiz-adv-x="290" 
d="M235 15c0 -10 -6.33301 -14.999 -19 -14.999h-157c-12.667 0 -19 5 -19 15c0 7.33301 3 13.166 9 17.499s12.667 8.16602 20 11.499s14 7.16602 20 11.499s9 10.166 9 17.499v390c0 10 -9.66699 15 -29 15h-20c-19.333 0 -29 4.66699 -29 14
c0 11.333 10 19.666 30 24.999l107 29c13.333 0 20 -6.66699 20 -20v-453c0 -7.33301 3 -13.166 9 -17.499s12.667 -8.16602 20 -11.499s14 -7.16602 20 -11.499s9 -10.166 9 -17.499z" />
    <glyph glyph-name="two" unicode="2" horiz-adv-x="447" 
d="M377 28c-2.66699 -18.667 -11.001 -28 -25.001 -28h-312c-13.333 0 -20 6.66699 -20 20v34c0 12 8.66699 25.667 26 41l180 159c18 16 31.667 33.5 41 52.5s14 40.167 14 63.5c0 40 -8.5 68.167 -25.5 84.5s-46.5 24.5 -88.5 24.5c-38 0 -77 -5.33301 -117 -16
c-0.666992 -0.666992 -3 -1 -7 -1c-9.33301 0 -17 5.33301 -23 16c0 16 6.66699 25.667 20 29c53.333 27.333 104 41 152 41c28.667 0 54.334 -3.83301 77.001 -11.5s41.5 -18.5 56.5 -32.5s26.333 -30.5 34 -49.5s11.167 -39.5 10.5 -61.5
c-1.33301 -36 -13.166 -69.833 -35.499 -101.5s-53.833 -65.5 -94.5 -101.5l-69 -61l-51 -42c-6 -5.33301 -9 -9 -9 -11s2.33301 -3 7 -3h186c6.66699 0 12.667 3 18 9s10.5 12.833 15.5 20.5s10.167 14.5 15.5 20.5s11.666 9 18.999 9c13.333 0 20 -6.33301 20 -19z" />
    <glyph glyph-name="three" unicode="3" horiz-adv-x="451" 
d="M396 72c0 -27.333 -4.33105 -53.002 -12.998 -77.002s-21.5 -44.667 -38.5 -62s-38.333 -31 -64 -41s-55.167 -15 -88.5 -15c-10 0 -24.667 1.33301 -44 4s-38.5 6.66699 -57.5 12s-35.5 12.333 -49.5 21s-21 18.667 -21 30c2.66699 12.667 10.667 19 24 19
c61.333 -15.333 107.666 -23 138.999 -23c87.333 0 131 46.667 131 140c0 36 -9.5 63.667 -28.5 83s-45.5 29 -79.5 29h-50c-12.667 0 -19 7.66699 -19 23v17c0 12.667 6.33301 19 19 19h50c30 0 53.167 8.66699 69.5 26s24.5 41 24.5 71
c0 18.667 -2.66699 36.334 -8 53.001s-13.333 31.334 -24 44.001s-24 22.667 -40 30s-34.333 11 -55 11c-36 0 -73.667 -8.33301 -113 -25c-12.667 0 -21 6.66699 -25 20c0 10.667 6 20.167 18 28.5s26.167 15.166 42.5 20.499s33 9.5 50 12.5s30.167 4.5 39.5 4.5
c31.333 0 59 -5.33301 83 -16s44.167 -25 60.5 -43s28.666 -39 36.999 -63s12.5 -49.333 12.5 -76c0 -60 -18.333 -101.333 -55 -124c-3.33301 -1.33301 -5 -2.66602 -5 -3.99902c0 -2.66699 1.66699 -4.66699 5 -6c48.667 -24 73 -71.667 73 -143z" />
    <glyph glyph-name="four" unicode="4" horiz-adv-x="545" 
d="M490 73c0 -12.667 -6.66699 -19 -20 -19h-59c-12.667 0 -19 -6.66699 -19 -20v-132c0 -12.667 -6.66699 -19 -20 -19h-39c-13.333 0 -20 6.33301 -20 19v132c0 13.333 -6.33301 20 -19 20h-254c-13.333 0 -20 6.33301 -20 19v25c0 12.667 3.33301 23.667 10 33l263 389
l10 14c6.66699 8.66699 16.667 13 30 13h39c13.333 0 20 -6.33301 20 -19v-391c0 -13.333 6.33301 -20 19 -20h59c13.333 0 20 -6.33301 20 -19v-25zM313 440c0 8 -1 12 -3 12l-4 -4l-209 -320c-1.33301 -1.33301 -2 -3.33301 -2 -6c0 -3.33301 4.33301 -5 13 -5h186
c12.667 0 19 6.66699 19 20v303z" />
    <glyph glyph-name="five" unicode="5" horiz-adv-x="470" 
d="M415 108c0 -33.333 -5.66406 -63.833 -16.9971 -91.5s-27.166 -51.5 -47.499 -71.5s-45 -35.5 -74 -46.5s-61.167 -16.5 -96.5 -16.5c-10 0 -23.833 1 -41.5 3s-35.334 5.33301 -53.001 10s-33 10.667 -46 18s-19.5 16.666 -19.5 27.999c0 13.333 6.66699 20 20 20
c42.667 -10 81 -15 115 -15c54.667 0 97.667 13.833 129 41.5s47 67.5 47 119.5c0 20 -3.16699 38.833 -9.5 56.5s-17.833 32.834 -34.5 45.501s-39.334 22.667 -68.001 30s-65.334 11 -110.001 11c-8 0 -16.333 -0.166992 -25 -0.5s-17.667 -0.5 -27 -0.5
c-11.333 0 -16.333 6.66699 -15 20l17 258c1.33301 13.333 7.66602 20 18.999 20h275c12.667 0 19 -6.33301 19 -19v-30c0 -7.33301 -1.83301 -12.333 -5.5 -15s-8.16699 -4 -13.5 -4h-226c-12.667 0 -19.334 -5 -20.001 -15l-9 -151h23c54.667 0 100.834 -5 138.501 -15
s68 -24.167 91 -42.5s39.5 -40 49.5 -65s15 -52.5 15 -82.5z" />
    <glyph glyph-name="six" unicode="6" horiz-adv-x="491" 
d="M436 220c0 -35.333 -5.66895 -66.667 -17.002 -94s-26.666 -50.333 -45.999 -69s-41.666 -32.834 -66.999 -42.501s-52 -14.5 -80 -14.5s-54.5 5.16699 -79.5 15.5s-46.833 26.5 -65.5 48.5s-33.5 49.833 -44.5 83.5s-16.5 74.167 -16.5 121.5
c0 53.333 4.33301 104 13 152s23.167 90 43.5 126s47 64.667 80 86s74.167 32 123.5 32c32.667 0 65 -5.33301 97 -16c12.667 -4 19 -12 19 -24c-2.66699 -10.667 -8.33398 -16 -17.001 -16c-4 0 -6.33301 0.333008 -7 1c-29.333 6 -55.333 9 -78 9
c-28.667 0 -53.167 -5 -73.5 -15s-37.166 -22.333 -50.499 -37s-23.833 -30.667 -31.5 -48s-13.334 -33.5 -17.001 -48.5s-6 -27.667 -7 -38s-1.5 -15.833 -1.5 -16.5c0 -4.66699 2 -7 6 -7c2.66699 0 6.33398 1.33301 11.001 4c29.333 10.667 63 16 101 16
c26 0 51.333 -4.33301 76 -13s46.5 -21.667 65.5 -39s34.333 -39.166 46 -65.499s17.5 -56.833 17.5 -91.5zM354.998 223.999c0 19.333 -2.33301 38.166 -7 56.499s-12 34.5 -22 48.5s-22.667 25.333 -38 34s-34 13 -56 13c-31.333 0 -68.333 -8 -111 -24
c-7.33301 -4.66699 -12.5 -14.667 -15.5 -30s-4.5 -30.666 -4.5 -45.999v-25c0 -128.667 48 -192 144 -190c34 0.666992 60.833 15 80.5 43s29.5 68 29.5 120z" />
    <glyph glyph-name="seven" unicode="7" horiz-adv-x="485" 
d="M430 488c0 -12 -2.66797 -24.667 -8.00098 -38l-216 -557c-4 -6.66699 -9 -10 -15 -10h-78c-6 0 -9 2.33301 -9 7c0 3.33301 1.33301 7.33301 4 12l254 547c2 4 3 7.66699 3 11c0 6 -4.33301 9 -13 9h-254c-7.33301 0 -13.166 -3 -17.499 -9s-8.33301 -12.833 -12 -20.5
s-7.66699 -14.5 -12 -20.5s-9.83301 -9 -16.5 -9c-13.333 0 -20 6.66699 -20 20v97c0 13.333 6.66699 20 20 20h371c12.667 0 19 -6.66699 19 -20v-39z" />
    <glyph glyph-name="eight" unicode="8" horiz-adv-x="496" 
d="M441 191c0 -28 -5.33105 -53.8311 -15.998 -77.498s-25.334 -44.334 -44.001 -62.001s-40.834 -31.5 -66.501 -41.5s-53.5 -15 -83.5 -15c-31.333 0 -60 5.16699 -86 15.5s-48.333 24.5 -67 42.5s-33 39.167 -43 63.5s-15 50.5 -15 78.5c0 66 28 117.667 84 155
c4 2 6 4 6 6c0 1.33301 -2 2.66602 -6 3.99902c-39.333 37.333 -59 81.333 -59 132c0 24 4.16699 46.333 12.5 67s20.333 38.834 36 54.501s35 28 58 37s49.167 13.5 78.5 13.5c28.667 0 54.5 -4.33301 77.5 -13s42.667 -20.834 59 -36.501s28.833 -33.834 37.5 -54.501
s13 -43 13 -67c0 -52 -21.333 -96.333 -64 -133c-3.33301 -1.33301 -5 -2.66602 -5 -3.99902c0 -2.66699 1.66699 -4.66699 5 -6c58.667 -36 88 -89 88 -159zM338.002 493.002c0 36 -8.83301 63.667 -26.5 83s-44.5 29 -80.5 29c-38 0 -66 -10.333 -84 -31s-27 -49 -27 -85
c0 -34.667 9 -62 27 -82s45 -30 81 -30c38.667 0 66.667 10.833 84 32.5s26 49.5 26 83.5zM352.002 189.002c0 38 -11.167 69.167 -33.5 93.5s-52.5 36.5 -90.5 36.5c-36 0 -64.833 -11.5 -86.5 -34.5s-32.5 -53.5 -32.5 -91.5c0 -40 11.167 -72.333 33.5 -97
s51.833 -37 88.5 -37s66 11.667 88 35s33 55 33 95z" />
    <glyph glyph-name="nine" unicode="9" horiz-adv-x="491" 
d="M436 279c0 -58.667 -4.83398 -112.332 -14.501 -160.999s-25 -90.5 -46 -125.5s-47.833 -62.167 -80.5 -81.5s-72 -29 -118 -29c-35.333 0 -67.666 5.33301 -96.999 16c-12.667 4 -19 12.333 -19 25c0.666992 10 6 15 16 15c15.333 0 30 -1.5 44 -4.5s27 -4.5 39 -4.5
c28.667 0 53 4.66699 73 14s36.833 21.166 50.5 35.499s24.5 30 32.5 47s14 33.167 18 48.5s6.66699 28.333 8 39s2 17.334 2 20.001c0 4 -2 6 -6 6c-2.66699 0 -6.33398 -1.33301 -11.001 -4c-37.333 -11.333 -71 -17 -101 -17c-27.333 0 -53.333 4.33301 -78 13
s-46.5 21.667 -65.5 39s-34.167 39 -45.5 65s-17 56.667 -17 92s5.5 66.666 16.5 93.999s26.333 50.333 46 69s42.5 32.834 68.5 42.501s54 14.5 84 14.5c26.667 0 52.167 -5.16699 76.5 -15.5s45.833 -26.5 64.5 -48.5s33.334 -49.833 44.001 -83.5s16 -73.834 16 -120.501
zM354.999 294.002c0 66.667 -11.665 115.333 -34.998 146s-59.333 46 -108 46c-34 0 -61 -13.667 -81 -41s-30 -68 -30 -122c0 -19.333 2.5 -38 7.5 -56s12.5 -34.167 22.5 -48.5s22.667 -25.833 38 -34.5s33.666 -13 54.999 -13c35.333 0 72.666 8.33301 111.999 25
c3.33301 1.33301 6.16602 4.5 8.49902 9.5s4.33301 11 6 18s2.83398 14.333 3.50098 22s1 15.167 1 22.5v26z" />
    <glyph glyph-name="colon" unicode=":" horiz-adv-x="173" 
d="M118 231c0 -28.667 -16.333 -43 -49 -43s-49 14.333 -49 43c0 28 16.333 42 49 42s49 -14 49 -42zM118 42c0 -28 -16.333 -42 -49 -42s-49 14 -49 42c0 28.667 16.333 43 49 43s49 -14.333 49 -43z" />
    <glyph glyph-name="semicolon" unicode=";" horiz-adv-x="172" 
d="M117 230c0 -28 -16.333 -42 -49 -42c-32 0 -48 14 -48 42c0 28.667 16 43 48 43c32.667 0 49 -14.333 49 -43zM117 24c0 -9.33301 -1.16699 -18.833 -3.5 -28.5s-5.83301 -18.5 -10.5 -26.5s-11 -14.5 -19 -19.5s-17.333 -7.5 -28 -7.5c-16 0 -24 5.66699 -24 17
c0 4.66699 1.66699 8 5 10s7 3.66699 11 5c0 0.666992 0.333008 1 1 1c2.66699 0 4.33398 0.333008 5.00098 1c7.33301 2 12.166 5.33301 14.499 10s3.83301 9 4.5 13h-5c-32 0 -48 14.333 -48 43s16 43 48 43c32.667 0 49 -14.333 49 -43v-18z" />
    <glyph glyph-name="less" unicode="&#x3c;" horiz-adv-x="377" 
d="M322 540c0 -2.66699 -0.999023 -6 -2.99902 -10l-180 -245c-2 -4 -3 -8 -3 -12c0 -4.66699 1 -8.33398 3 -11.001l178 -244c2.66699 -4.66699 4 -8.66699 4 -12c0 -4 -2.66699 -6 -8 -6h-49c-10.667 0 -20.334 3.33301 -29.001 10l-211 254
c-2.66699 2.66699 -4 6.33398 -4 11.001c0 3.33301 1 7 3 11l217 251c6 6.66699 14 10 24 10h49c6 0 9 -2.33301 9 -7z" />
    <glyph glyph-name="equal" unicode="=" horiz-adv-x="456" 
d="M401 338c0 -15.333 -8.33203 -23 -24.999 -23h-331c-8 0 -14.333 2 -19 6s-6.66699 9.66699 -6 17c1.33301 15.333 9.66602 23 24.999 23h331c16.667 0 25 -7.66699 25 -23zM401.001 205l-0.999023 -3c0 -2.66699 -0.666992 -4.66699 -2 -6l1 3v-2l-3 -5l-4 -3l-4 -1
c-1.33301 -1.33301 -3 -2 -5 -2h-4h-3h-331h-8l-4 2c-0.666992 0.666992 -1.33398 1 -2.00098 1c-2 0 -3.33301 0.333008 -4 1l-3 4c-2.66699 2.66699 -4 6.33398 -4 11.001v4v3c0 11.333 5.33301 17.666 16 18.999c0.666992 0.666992 3.66699 1 9 1h331h4l10 -3
c4 -1.33301 6.33301 -3.33301 7 -6c1.33301 -1.33301 2 -2.66602 2 -3.99902l1 -2c0.666992 -0.666992 1 -2.33398 1 -5.00098v-3v-4z" />
    <glyph glyph-name="greater" unicode="&#x3e;" horiz-adv-x="379" 
d="M324 275c0 -4.66699 -1.33203 -8.33398 -3.99902 -11.001l-211 -254c-8.66699 -6.66699 -18.667 -10 -30 -10h-49c-6 0 -9 2 -9 6c0 2.66699 1.66699 6.66699 5 12l177 244c2.66699 2.66699 4 6.66699 4 12c0 3.33301 -1 7 -3 11l-181 245c-2 2.66699 -3 5.66699 -3 9
c0 5.33301 3.33301 8 10 8l49 -1c11.333 0 19.666 -3 24.999 -9l217 -252c2 -3.33301 3 -6.66602 3 -9.99902z" />
    <glyph glyph-name="question" unicode="?" horiz-adv-x="434" 
d="M379 532c0 -40 -9.49902 -75.8311 -28.499 -107.498s-44.5 -57.834 -76.5 -78.501c-38.667 -26 -58 -57 -58 -93l-1 -135h-58l-1 136c0 52 23 96 69 132c45.333 35.333 68 81.666 68 138.999c0 44 -11.167 78.333 -33.5 103s-55.5 37 -99.5 37
c-27.333 0 -66 -6.66699 -116 -20c-0.666992 -0.666992 -3.33398 -1 -8.00098 -1c-8.66699 0 -14 5 -16 15c0 10 6.83301 19 20.5 27s29.667 14.667 48 20s36.833 9.5 55.5 12.5s32.667 4.5 42 4.5c34 0 63.167 -5.16699 87.5 -15.5s44.333 -24.333 60 -42
s27.167 -38 34.5 -61s11 -47.167 11 -72.5zM230.001 39.002c0 -26 -14.667 -39 -44 -39s-44 13 -44 39s14.667 39 44 39c14.667 0 25.667 -3.5 33 -10.5s11 -16.5 11 -28.5z" />
    <glyph glyph-name="at" unicode="@" horiz-adv-x="818" 
d="M763 293c0 -76.667 -13.1621 -134.835 -39.4951 -174.502s-61.833 -59.5 -106.5 -59.5c-68.667 0 -111 16 -127 48c-50.667 -26.667 -93.334 -40 -128.001 -40c-22 0 -41.5 4.83301 -58.5 14.5s-31.333 23.334 -43 41.001s-20.334 38.5 -26.001 62.5s-8.5 50.333 -8.5 79
c0 30.667 3.66699 59.334 11 86.001s17.833 49.5 31.5 68.5s30.334 34 50.001 45s41.834 16.5 66.501 16.5c26 0 56.333 -7.66699 91 -23c-0.666992 0.666992 -1 3 -1 7c0 15.333 12.333 23 37 23c27.333 0 41 -8.33301 41 -25v-306c0 -24 20.667 -36 62 -36
c44.667 0 67 56 67 168c0 40 -5.16699 79 -15.5 117s-26.833 71.833 -49.5 101.5s-51.834 53.334 -87.501 71.001s-78.834 26.5 -129.501 26.5c-37.333 0 -73.5 -7.33301 -108.5 -22s-66.333 -36.5 -94 -65.5s-49.834 -64.833 -66.501 -107.5s-25 -91.667 -25 -147
c0 -38 7 -75.667 21 -113s35 -71 63 -101s63.333 -54.167 106 -72.5s92.667 -27.5 150 -27.5c32 0 66 2.5 102 7.5s75 13.167 117 24.5c0.666992 0.666992 4 1 10 1c10.667 0 17.667 -6.66699 21 -20c-2 -6 -5.5 -11.667 -10.5 -17s-11.5 -9.33301 -19.5 -12
c-46 -14.667 -89.5 -25.334 -130.5 -32.001s-79.833 -10 -116.5 -10c-62.667 0 -118.667 10.333 -168 31s-91.166 48.167 -125.499 82.5s-60.5 73.5 -78.5 117.5s-27 89.333 -27 136c0 64.667 10.333 122.5 31 173.5s48.5 94.167 83.5 129.5s75.167 62.166 120.5 80.499
s92.666 27.5 141.999 27.5c40.667 0 79.167 -5.83301 115.5 -17.5s69.166 -27.167 98.499 -46.5s54.666 -41.666 75.999 -66.999s37 -52 47 -80s17.333 -55.667 22 -83s7 -54.333 7 -81zM475.005 404.999c-33.333 10 -61.3359 14.999 -84.0029 14.999
c-19.333 0 -35.166 -3.66699 -47.499 -11s-22 -17.166 -29 -29.499s-11.667 -26.833 -14 -43.5s-3.5 -34 -3.5 -52c0 -16.667 1.33301 -34 4 -52s7.33398 -34.5 14.001 -49.5s16 -27.333 28 -37s27.333 -14.5 46 -14.5s47.334 6.66699 86.001 20v254z" />
    <glyph glyph-name="A" unicode="A" horiz-adv-x="640" 
d="M605 15c0 -10 -6.33301 -14.999 -19 -14.999h-155c-14 0 -21 5 -21 15c0 4.66699 2.83301 8.66699 8.5 12s11.667 6.5 18 9.5s12.333 6 18 9s8.5 6.5 8.5 10.5c0 3.33301 -0.333008 5.33301 -1 6l-35 115c-4 12 -12 18 -24 18h-218c-16.667 0 -26.334 -6 -29.001 -18
l-31 -114c-0.666992 -0.666992 -1 -2.66699 -1 -6c0 -0.666992 -0.333008 -1.33398 -1 -2.00098c0 -4 2.83301 -7.33301 8.5 -10s11.667 -5.33398 18 -8.00098s12.333 -5.66699 18 -9s8.5 -7.66602 8.5 -12.999c0 -10 -6.66699 -15 -20 -15h-137c-12.667 0 -19 5 -19 15
c0 6 2.83301 10.5 8.5 13.5s12.334 6 20.001 9s15 6.5 22 10.5s11.833 9.66699 14.5 17l192 588c4 13.333 13 20 27 20h38c12.667 0 21 -6 25 -18l194 -592c4 -12.667 15.667 -20.667 35 -24c19.333 -7.33301 29 -15.333 29 -24zM401 252.001c-0.666992 0 -1 0.666992 -1 2
s-0.166992 2.5 -0.5 3.5s-0.5 2.5 -0.5 4.5l-98 301c-2.66699 6.66699 -5 10 -7 10c-2.66699 0 -5 -3.33301 -7 -10l-102 -301c-1.33301 -6.66699 -2 -9.66699 -2 -9c0 -6 4.66699 -9 14 -9h195c6 0 9 2.66699 9 8z" />
    <glyph glyph-name="B" unicode="B" 
d="M498 186c0 -124 -76 -186 -228 -186h-231c-12.667 0 -19 5 -19 15c0 6 3 10.667 9 14s12.667 6.33301 20 9s14 5.83398 20 9.50098s9 8.83398 9 15.501l1 532c0 7.33301 -3 13.166 -9 17.499s-12.833 8.16602 -20.5 11.499s-14.5 6.83301 -20.5 10.5s-9 8.5 -9 14.5
c0 10 6.33301 15 19 15h181c158.667 0 238 -58.667 238 -176c0 -63.333 -23.333 -109.333 -70 -138c73.333 -24 110 -78.667 110 -164zM370 488c0 81.333 -50 123 -150 125l-47 1c-12 0 -18 -5.33301 -18 -16v-215c0 -13.333 6.33301 -20 19 -20h63
c44.667 0 78 10.833 100 32.5s33 52.5 33 92.5zM420 182c0 87.333 -50 131 -150 131h-98c-11.333 0 -17 -5.66699 -17 -17v-228c0 -12 6.66699 -18 20 -18h95c100 0 150 44 150 132z" />
    <glyph glyph-name="C" unicode="C" horiz-adv-x="524" 
d="M469 34c-53.333 -26 -107.667 -39 -163 -39c-190.667 0 -286 112.333 -286 337c0 114.667 23.667 199.5 71 254.5s119 82.5 215 82.5c58 0 112.333 -13.333 163 -40v-87c0 -19.333 -4.66699 -29 -14 -29c-10.667 0 -19 9.66699 -25 29l-10 29
c-18.667 32.667 -53.667 49 -105 49c-30.667 0 -59 -6.16699 -85 -18.5s-48.667 -30.5 -68 -54.5s-34.5 -54 -45.5 -90s-16.5 -77.667 -16.5 -125s5.5 -89 16.5 -125s26.167 -66 45.5 -90s42 -42.167 68 -54.5s54.333 -18.5 85 -18.5c51.333 0 86.333 16.333 105 49l10 29
c6 19.333 14.333 29 25 29c9.33301 0 14 -9.66699 14 -29v-88z" />
    <glyph glyph-name="D" unicode="D" horiz-adv-x="592" 
d="M537 332c0 -221.333 -91 -332.002 -273 -332.002h-225c-12.667 0 -19 5 -19 15c0 6 3 10.667 9 14s12.667 6.33301 20 9s14 5.83398 20 9.50098s9 8.83398 9 15.501v537c0 6.66699 -3 12 -9 16s-12.667 7.33301 -20 10s-14 5.66699 -20 9s-9 8 -9 14
c0 10 6.66699 15 20 15h223c182.667 0 274 -110.667 274 -332zM454 331.998c0 94.667 -16.667 165.5 -50 212.5s-80.333 70.5 -141 70.5h-87c-13.333 0 -20 -6 -20 -18v-528c0 -13.333 7.33301 -20 22 -20h86c60.667 0 107.5 23.5 140.5 70.5s49.5 117.833 49.5 212.5z" />
    <glyph glyph-name="E" unicode="E" 
d="M498 21c0 -14 -7 -20.998 -21 -20.998h-436c-14 0 -21 5 -21 15c0 6 3 10.667 9 14s12.667 6.33301 20 9s14 5.83398 20 9.50098s9 8.83398 9 15.501l1 537c0 7.33301 -3 12.666 -9 15.999s-12.833 6.16602 -20.5 8.49902s-14.5 5.16602 -20.5 8.49902
s-9 8.66602 -9 15.999c0 10 6.33301 15 19 15h439c13.333 0 20 -6.66699 20 -20v-68c0 -12.667 -5 -19 -15 -19c-6 0 -10.667 3 -14 9s-6.5 12.667 -9.5 20s-6.16699 14 -9.5 20s-8 9 -14 9h-261c-12.667 0 -19 -6 -19 -18v-216c0 -13.333 7 -20 21 -20h113
c6 0 10.833 3 14.5 9s7 12.833 10 20.5s6.16699 14.5 9.5 20.5s8 9 14 9c10 0 15 -6.66699 15 -20v-124c0 -14.667 -5 -22 -15 -22c-6 0 -10.667 3 -14 9s-6.5 12.833 -9.5 20.5s-6.33301 14.5 -10 20.5s-8.5 9 -14.5 9h-113c-14 0 -21 -7.33301 -21 -22v-225
c0 -11.333 5.66699 -17 17 -17h260c7.33301 0 13 3 17 9s7.5 12.667 10.5 20s6.16699 14 9.5 20s8 9 14 9c9.33301 0 14 -6.33301 14 -19v-67z" />
    <glyph glyph-name="F" unicode="F" horiz-adv-x="533" 
d="M498 576c0 -12.667 -4.66699 -18.999 -14 -18.999c-6 0 -10.667 3 -14 9s-6.5 12.667 -9.5 20s-6.5 14 -10.5 20s-9.33301 9 -16 9h-255c-15.333 0 -23 -6.33301 -23 -19v-216c0 -12.667 7.33301 -19 22 -19h113c6 0 10.667 3 14 9s6.5 12.833 9.5 20.5
s6.16699 14.5 9.5 20.5s8 9 14 9c10 0 15 -6.33301 15 -19v-129c0 -12 -5 -18 -15 -18c-6 0 -10.667 3 -14 9s-6.5 12.833 -9.5 20.5s-6.33301 14.5 -10 20.5s-8.5 9 -14.5 9h-113c-14 0 -21 -6.66699 -21 -20v-231c0 -6 3 -10.833 9 -14.5s12.833 -7 20.5 -10
s14.5 -6 20.5 -9s9 -7.5 9 -13.5c0 -10 -6.66699 -15 -20 -15h-154c-14 0 -21 5 -21 15c0 5.33301 3 9.66602 9 12.999s12.833 6.5 20.5 9.5s14.5 6.33301 20.5 10s9 8.5 9 14.5v541c0 6 -3 10.5 -9 13.5s-12.833 6 -20.5 9s-14.5 6.16699 -20.5 9.5s-9 8 -9 14
c0 10 6.33301 15 19 15h444c10 0 15 -6.33301 15 -19v-69z" />
    <glyph glyph-name="G" unicode="G" horiz-adv-x="598" 
d="M543 278c0 -6 -2.99902 -10.665 -8.99902 -13.998s-12.667 -6.5 -20 -9.5s-14 -6.33301 -20 -10s-9 -8.83398 -9 -15.501v-190c-16.667 -6.66699 -32.334 -12.667 -47.001 -18s-29.334 -9.83301 -44.001 -13.5s-30 -6.5 -46 -8.5s-33.667 -3 -53 -3
c-183.333 0 -275 112 -275 336s91.667 336 275 336c22 0 41.833 -1 59.5 -3s34 -4.83301 49 -8.5s29 -8.16699 42 -13.5s26.167 -11.333 39.5 -18v-96c0 -14 -5 -21 -15 -21s-18 9.66699 -24 29l-10 29c-8.66699 16 -22.167 28.833 -40.5 38.5s-47.166 14.5 -86.499 14.5
c-32 0 -61.167 -5.83301 -87.5 -17.5s-49 -29.334 -68 -53.001s-33.833 -53.5 -44.5 -89.5s-16 -78.333 -16 -127c0 -48 5.33301 -90 16 -126s25.5 -66 44.5 -90s41.667 -41.833 68 -53.5s55.166 -17.5 86.499 -17.5c34.667 0 60.334 4.66699 77.001 14s25 22.333 25 39v133
c0 6 -3 10.667 -9 14s-12.667 6.5 -20 9.5s-14 6.16699 -20 9.5s-9 8 -9 14c0 10 6.66699 15 20 15h153c12 0 18 -5 18 -15z" />
    <glyph glyph-name="H" unicode="H" horiz-adv-x="661" 
d="M606 15c0 -10 -7.33301 -14.9971 -22 -14.9971h-153c-14 0 -21 5 -21 15c0 6 3 10.5 9 13.5s12.833 6 20.5 9s14.5 6.16699 20.5 9.5s9 8 9 14v235c0 11.333 -5.33301 17 -16 17h-277c-13.333 0 -20 -6.66699 -20 -20v-231c0 -6.66699 3 -11.667 9 -15
s12.833 -6.33301 20.5 -9s14.5 -5.66699 20.5 -9s9 -8 9 -14c0 -10 -6 -15 -18 -15h-156c-14 0 -21 5 -21 15c0 6 3 10.667 9 14s12.833 6.33301 20.5 9s14.5 5.66699 20.5 9s9 8.33301 9 15v540c0 6 -3 10.833 -9 14.5s-12.833 6.83398 -20.5 9.50098
s-14.5 5.66699 -20.5 9s-9 8 -9 14c0 10 6.66699 15 20 15h157c12 0 18 -5 18 -15c0 -6 -3 -10.667 -9 -14s-12.833 -6.33301 -20.5 -9s-14.5 -5.83398 -20.5 -9.50098s-9 -8.83398 -9 -15.501v-219c0 -14 6.66699 -21 20 -21h277c10.667 0 16 6 16 18v225
c0 5.33301 -3 9.66602 -9 12.999s-12.833 6.33301 -20.5 9s-14.5 5.66699 -20.5 9s-9 8 -9 14c0 10 7.33301 15 22 15h154c12.667 0 19 -5 19 -15c0 -6 -3 -10.667 -9 -14s-12.667 -6.5 -20 -9.5s-14 -6.16699 -20 -9.5s-9 -8.33301 -9 -15v-539
c0 -12.667 10 -20.334 30 -23.001c19.333 -6 29 -14 29 -24z" />
    <glyph glyph-name="I" unicode="I" horiz-adv-x="271" 
d="M216 15c-1.33301 -10 -8.33105 -15 -20.998 -15h-155c-13.333 0 -20 5 -20 15c0 7.33301 3 12.666 9 15.999s12.833 6 20.5 8s14.5 4.5 20.5 7.5s9 8.16699 9 15.5v542c0 5.33301 -3 9.66602 -9 12.999s-12.833 6.33301 -20.5 9s-14.5 5.66699 -20.5 9s-9 8 -9 14
c0 10 7 15 21 15h154c13.333 0 20 -5 20 -15s-9.66699 -18 -29 -24c-20 -3.33301 -30 -11.333 -30 -24v-538c0 -7.33301 3.16699 -12.666 9.5 -15.999s13.166 -6.16602 20.499 -8.49902s14.166 -5 20.499 -8s9.5 -8.16699 9.5 -15.5z" />
    <glyph glyph-name="J" unicode="J" horiz-adv-x="358" 
d="M303 649c0 -6 -2.99707 -10.665 -8.99707 -13.998s-12.833 -6.33301 -20.5 -9s-14.5 -5.83398 -20.5 -9.50098s-9 -8.83398 -9 -15.501v-464c0 -28 -2.33301 -51 -7 -69s-11.834 -32.167 -21.501 -42.5s-21.834 -17.666 -36.501 -21.999s-31.667 -6.5 -51 -6.5
c-10.667 0 -22.167 0.666992 -34.5 2s-24 3.66602 -35 6.99902s-20.167 8 -27.5 14s-11 14 -11 24c0 13.333 4.33301 20 13 20c12 0 23.167 -1.5 33.5 -4.5s20.166 -4.5 29.499 -4.5c46.667 0 70 20.667 70 62v483c0 14 -9.33301 22.333 -28 25c-20 6 -30 14 -30 24
s6.66699 15 20 15h156c12.667 0 19 -5 19 -15z" />
    <glyph glyph-name="K" unicode="K" horiz-adv-x="592" 
d="M557 15c0 -10 -6.66504 -14.999 -19.998 -14.999h-78c-13.333 0 -25.666 4.66699 -36.999 14l-248 272c-6 7.33301 -10.667 11 -14 11c-2.66699 0 -4 -3 -4 -9v-227c0 -6 3.16699 -10.667 9.5 -14s13.166 -6.33301 20.499 -9s14.166 -5.66699 20.499 -9s9.5 -8 9.5 -14
c-1.33301 -10 -8 -15 -20 -15h-156c-13.333 0 -20 5 -20 15c0 6 3 10.667 9 14s12.833 6.33301 20.5 9s14.5 5.66699 20.5 9s9 8.33301 9 15v541c0 6 -3 10.5 -9 13.5s-12.833 6 -20.5 9s-14.5 6.16699 -20.5 9.5s-9 8 -9 14c0 10 6.33301 15 19 15h157
c12.667 0 19 -5 19 -15c0 -6 -3 -10.667 -9 -14s-12.833 -6.33301 -20.5 -9s-14.5 -5.83398 -20.5 -9.50098s-9 -8.5 -9 -14.5v-200c0 -6.66699 1.33301 -10 4 -10c3.33301 0 8.33301 3.33301 15 10l190 210c2 2 3 4.33301 3 7c0 2 -1.83301 3.83301 -5.5 5.5l-12.5 5.5
c-4.66699 2 -8.83398 4.5 -12.501 7.5s-5.5 6.83301 -5.5 11.5c0 10 7 15 21 15h126c13.333 0 20 -5 20 -15c0 -6 -3.16699 -10.667 -9.5 -14s-13.666 -6.5 -21.999 -9.5l-24.5 -9c-8 -3 -13.667 -6.83301 -17 -11.5l-202 -223c-4 -5.33301 -6 -10 -6 -14
c0 -6.66699 3.33301 -13.334 10 -20.001l256 -286c6 -7.33301 13.333 -12.666 22 -15.999l24 -9c7.33301 -2.66699 13.666 -5.5 18.999 -8.5s8 -7.5 8 -13.5z" />
    <glyph glyph-name="L" unicode="L" horiz-adv-x="514" 
d="M479 17c0 -11.333 -6.66699 -17.001 -20 -17.001h-419c-13.333 0 -20 5 -20 15c0 6 3 10.667 9 14s12.833 6.33301 20.5 9s14.5 5.66699 20.5 9s9 8.33301 9 15v539c0 6.66699 -3 11.834 -9 15.501s-12.833 7 -20.5 10s-14.5 6.16699 -20.5 9.5s-9 8 -9 14
c0 9.33301 7 14 21 14h156c12 0 18 -4.66699 18 -14c0 -6 -3 -10.667 -9 -14s-12.833 -6.5 -20.5 -9.5s-14.5 -6.16699 -20.5 -9.5s-9 -8 -9 -14v-534c0 -12.667 6.66699 -19 20 -19h241c6 0 10.667 3 14 9s6.5 12.833 9.5 20.5s6.16699 14.5 9.5 20.5s8 9 14 9
c10 0 15 -5.66699 15 -17v-75z" />
    <glyph glyph-name="M" unicode="M" horiz-adv-x="778" 
d="M723 15c0 -10 -7 -15.002 -21 -15.002h-153c-14 0 -21 5 -21 15c0 6 3 10.667 9 14s12.667 6.33301 20 9s14 5.83398 20 9.50098s9 8.83398 9 15.501v465c0 4.66699 -0.666992 7 -2 7c-2 0 -5.66699 -6.66699 -11 -20l-179 -444c-9.33301 -21.333 -20 -32 -32 -32
c-14 0 -25 11 -33 33l-179 462c-6 14 -9.66699 21 -11 21s-2 -3 -2 -9v-482c0 -7.33301 3 -12.833 9 -16.5s12.833 -6.83398 20.5 -9.50098s14.5 -5.66699 20.5 -9s9 -8 9 -14c0 -10 -6.66699 -15 -20 -15h-136c-13.333 0 -20 5 -20 15c0 6 3 10.667 9 14
s12.833 6.33301 20.5 9s14.5 5.66699 20.5 9s9 8.33301 9 15v540c0 6 -3 10.833 -9 14.5s-12.833 6.83398 -20.5 9.50098s-14.5 5.66699 -20.5 9s-9 8 -9 14c0 10 7 15 21 15h123c12.667 0 23 -10.333 31 -31l175 -463c2 -5.33301 4 -8 6 -8s4 2.66699 6 8l191 463
c8.66699 20.667 20 31 34 31h98c12 0 18 -5 18 -15s-10 -18 -30 -24c-19.333 -3.33301 -29 -11.666 -29 -24.999v-536c0 -7.33301 3 -12.833 9 -16.5s12.833 -6.83398 20.5 -9.50098s14.5 -5.66699 20.5 -9s9 -8 9 -14z" />
    <glyph glyph-name="N" unicode="N" horiz-adv-x="621" 
d="M566 649c0 -6 -3 -10.6641 -9 -13.9971s-12.667 -6.33301 -20 -9s-14 -5.83398 -20 -9.50098s-9 -8.5 -9 -14.5v-582c0 -13.333 -7 -20 -21 -20h-46c-14 0 -24.333 6.33301 -31 19l-260 487c-4 8 -7.33301 12 -10 12c-2 0 -3 -3.33301 -3 -10v-445
c0 -6.66699 3 -11.834 9 -15.501s12.833 -6.83398 20.5 -9.50098s14.5 -5.66699 20.5 -9s9 -8 9 -14c0 -10 -6.33301 -15 -19 -15h-137c-13.333 0 -20 5 -20 15c0 6 3 10.667 9 14s12.833 6.33301 20.5 9s14.5 5.83398 20.5 9.50098s9 8.83398 9 15.501v532
c0 7.33301 -3 13.166 -9 17.499s-12.833 8.16602 -20.5 11.499s-14.5 6.83301 -20.5 10.5s-9 8.5 -9 14.5c0 10 6.66699 15 20 15h98c13.333 0 23.333 -6.33301 30 -19l269 -495c3.33301 -7.33301 6.33301 -11 9 -11c2 0 3 3.66699 3 11v451
c0 12.667 -9.66699 20.667 -29 24c-20 6 -30 14 -30 24s7 15 21 15h134c14 0 21 -5 21 -15z" />
    <glyph glyph-name="O" unicode="O" horiz-adv-x="612" 
d="M557 332c0 -112 -22 -196 -66 -252s-109.333 -84 -196 -84h-13c-174.667 0 -262 112 -262 336s87.333 336 262 336h13c86.667 0 152 -28 196 -84s66 -140 66 -252zM479 332c0 90 -17.5 159.167 -52.5 207.5s-80.833 74.833 -137.5 79.5
c-57.333 -4.66699 -103.5 -31.167 -138.5 -79.5s-52.5 -117.5 -52.5 -207.5s17.5 -159.167 52.5 -207.5s81.167 -74.833 138.5 -79.5c56.667 4.66699 102.5 31.167 137.5 79.5s52.5 117.5 52.5 207.5z" />
    <glyph glyph-name="P" unicode="P" horiz-adv-x="514" 
d="M459 486c0 -60.667 -19 -106.666 -57 -137.999s-95.333 -47 -172 -47h-54c-13.333 0 -20 -6 -20 -18v-220c0 -13.333 10 -21.333 30 -24c19.333 -3.33301 29 -11.333 29 -24c0 -10 -6.33301 -15 -19 -15h-156c-13.333 0 -20 5 -20 15c0 7.33301 3 12.666 9 15.999
s12.833 6 20.5 8s14.5 4.66699 20.5 8s9 8.66602 9 15.999v539c0 6 -3 10.833 -9 14.5s-12.833 6.83398 -20.5 9.50098s-14.5 5.66699 -20.5 9s-9 8 -9 14c0 10 6.66699 15 20 15h193c150.667 0 226 -59.333 226 -178zM381 482.001c0 44 -12.332 76.332 -36.999 96.999
s-62.334 32 -113.001 34l-52 2c-15.333 1.33301 -23 -4.66699 -23 -18v-229c0 -12 6.33301 -18 19 -18l56 1c50 1.33301 87.5 12.333 112.5 33s37.5 53.334 37.5 98.001z" />
    <glyph glyph-name="Q" unicode="Q" horiz-adv-x="612" 
d="M557 332c0 -44 -4.49902 -83.999 -13.499 -119.999s-21 -67.333 -36 -94s-32.333 -48.5 -52 -65.5s-39.834 -28.5 -60.501 -34.5c-5.33301 -2 -8 -4.33301 -8 -7s1.66699 -5.66699 5 -9c43.333 -27.333 89.333 -41 138 -41c11.333 0 17 -6.33301 17 -19
c0 -13.333 -5.66699 -20 -17 -20c-40 0 -78.5 5.16699 -115.5 15.5s-72.5 26.833 -106.5 49.5c-6 4 -10.833 6.66699 -14.5 8s-7.5 1.66602 -11.5 0.999023c-174.667 0 -262 112 -262 336s87.333 336 262 336h13c86.667 0 152 -28 196 -84s66 -140 66 -252zM479.001 332.001
c0 90 -17.5 159.167 -52.5 207.5s-80.833 74.833 -137.5 79.5c-57.333 -4.66699 -103.5 -31.167 -138.5 -79.5s-52.5 -117.5 -52.5 -207.5s17.5 -159.167 52.5 -207.5s81.167 -74.833 138.5 -79.5c56.667 4.66699 102.5 31.167 137.5 79.5s52.5 117.5 52.5 207.5z" />
    <glyph glyph-name="R" unicode="R" 
d="M498 15c0 -10 -7 -15.002 -21 -15.002h-59c-14 0 -24.333 6.33301 -31 19l-156 265c-7.33301 11.333 -16 17 -26 17h-29c-13.333 0 -20 -6 -20 -18v-220c0 -13.333 10 -21.333 30 -24c19.333 -6 29 -14 29 -24s-6.33301 -15 -19 -15h-156c-13.333 0 -20 5 -20 15
c0 6 3 10.667 9 14s12.833 6.33301 20.5 9s14.5 5.83398 20.5 9.50098s9 8.83398 9 15.501v539c0 6 -3 10.833 -9 14.5s-12.833 6.83398 -20.5 9.50098s-14.5 5.66699 -20.5 9s-9 8 -9 14c0 10 6.66699 15 20 15h204c66.667 0 119.167 -15 157.5 -45s57.5 -74.333 57.5 -133
c0 -24.667 -4.83301 -47.5 -14.5 -68.5s-22 -39.333 -37 -55s-31.333 -28 -49 -37s-34.5 -13.5 -50.5 -13.5c-6.66699 -2 -10 -5.33301 -10 -10s1.33301 -8.33398 4 -11.001l138 -232c3.33301 -6 8.33301 -10.667 15 -14s13.167 -6.33301 19.5 -9s11.833 -5.5 16.5 -8.5
s7 -7.16699 7 -12.5zM381 481.998c0 44 -12.332 76.332 -36.999 96.999s-62.334 32 -113.001 34l-52 2c-15.333 1.33301 -23 -4.66699 -23 -18v-229c0 -12 6.33301 -18 19 -18l56 1c50 1.33301 87.5 12.333 112.5 33s37.5 53.334 37.5 98.001z" />
    <glyph glyph-name="S" unicode="S" horiz-adv-x="464" 
d="M409 186c0 -33.333 -4.99805 -62.167 -14.998 -86.5s-24 -44.333 -42 -60s-39.167 -27.334 -63.5 -35.001s-50.5 -11.5 -78.5 -11.5c-25.333 0 -53 3.33301 -83 10s-63 17.667 -99 33l-8 96v4c0 11.333 4.33301 17 13 17c14 0 23 -6.66699 27 -20l13 -39
c12 -12 28.833 -23.333 50.5 -34s48.5 -16 80.5 -16c44 0 76.333 11.5 97 34.5s31 55.5 31 97.5c0 22.667 -10.833 45.334 -32.5 68.001s-57.834 44.667 -108.501 66s-90.5 47.5 -119.5 78.5s-43.5 67.5 -43.5 109.5c0 27.333 4.83301 51.666 14.5 72.999
s23 39.166 40 53.499s37 25.333 60 33s47.833 11.5 74.5 11.5c23.333 0 47.666 -3.16699 72.999 -9.5s52 -16.5 80 -30.5l9 -96c0 -7.33301 -1.16699 -12.666 -3.5 -15.999s-7.16602 -5 -14.499 -5c-10.667 0 -18 6.66699 -22 20l-13 39c-12 11.333 -26.667 21.833 -44 31.5
s-38 14.5 -62 14.5c-38.667 0 -67.334 -10.167 -86.001 -30.5s-28 -46.5 -28 -78.5c0 -26 12.167 -51.167 36.5 -75.5s61.833 -47.166 112.5 -68.499s89 -46.333 115 -75s39 -63 39 -103z" />
    <glyph glyph-name="T" unicode="T" horiz-adv-x="514" 
d="M479 576c0 -12.667 -4.99805 -19 -14.998 -19c-6 0 -10.667 3 -14 9s-6.5 12.667 -9.5 20s-6.33301 14 -10 20s-8.83398 9 -15.501 9h-112c-12.667 0 -19 -6.66699 -19 -20v-531c0 -14 10 -22.333 30 -25c19.333 -7.33301 29 -15.333 29 -24c0 -10 -6.66699 -15 -20 -15
h-156c-12.667 0 -19 5 -19 15c0 5.33301 3 9.66602 9 12.999s12.833 6.5 20.5 9.5s14.5 6.33301 20.5 10s9 8.83398 9 15.501v532c0 13.333 -7 20 -21 20h-122c-6.66699 0 -11.834 -3 -15.501 -9s-7 -12.667 -10 -20s-6.16699 -14 -9.5 -20s-8 -9 -14 -9
c-10 0 -15 6.33301 -15 19v69c0 12.667 7 19 21 19h438c12.667 0 19 -6.33301 19 -19z" />
    <glyph glyph-name="U" unicode="U" horiz-adv-x="621" 
d="M566 648c0 -5.33301 -2.99902 -9.66699 -8.99902 -13s-12.667 -6.5 -20 -9.5s-14 -6.33301 -20 -10s-9 -8.5 -9 -14.5v-377c0 -37.333 -5.5 -70 -16.5 -98s-26.333 -51.333 -46 -70s-43.334 -32.667 -71.001 -42s-58.167 -14 -91.5 -14
c-64.667 -0 -114.834 19.333 -150.501 58s-53.5 97.334 -53.5 176.001v367c0 6.66699 -3 11.834 -9 15.501s-12.833 6.83398 -20.5 9.50098s-14.5 5.66699 -20.5 9s-9 8 -9 14c0 10 6.66699 15 20 15h156c12.667 0 19 -5 19 -15c0 -6 -3 -10.667 -9 -14
s-12.833 -6.33301 -20.5 -9s-14.5 -5.83398 -20.5 -9.50098s-9 -8.83398 -9 -15.501v-386c0 -106.667 50.667 -159 152 -157c50.667 1.33301 87 15.5 109 42.5s33 64.833 33 113.5v387c0 6 -3 10.833 -9 14.5s-12.667 7 -20 10s-14.166 6.16699 -20.499 9.5
s-9.83301 7.66602 -10.5 12.999c0 10.667 6.66699 16 20 16l137 -1c12.667 0 19 -5 19 -15z" />
    <glyph glyph-name="V" unicode="V" horiz-adv-x="616" 
d="M581 649c0 -6 -2.83203 -10.668 -8.49902 -14.001s-12 -6.33301 -19 -9s-13.833 -5.83398 -20.5 -9.50098s-11 -9.16699 -13 -16.5l-191 -579c-5.33301 -14 -14 -21 -26 -21s-21.667 6.66699 -29 20l-210 581c-2 6.66699 -6.5 11.667 -13.5 15s-14.333 6.5 -22 9.5
s-14.334 6.16699 -20.001 9.5s-8.5 8 -8.5 14c0 10 6.66699 15 20 15h168c12.667 0 19 -5 19 -15c0 -6 -2.83301 -10.667 -8.5 -14s-12 -6.16602 -19 -8.49902s-13.333 -4.83301 -19 -7.5s-8.5 -6.33398 -8.5 -11.001c0 -2 0.333008 -3.33301 1 -4l149 -428
c5.33301 -13.333 9 -20 11 -20s4.66699 6.66699 8 20l146 426c0.666992 0.666992 1 3 1 7c0 4.66699 -2.5 8.33398 -7.5 11.001s-10.5 5.33398 -16.5 8.00098s-11.5 5.5 -16.5 8.5s-7.5 7.16699 -7.5 12.5c0 10 6.66699 15 20 15h117c16 0 24 -5 24 -15z" />
    <glyph glyph-name="W" unicode="W" horiz-adv-x="889" 
d="M854 649c0 -6 -2.8291 -10.665 -8.49609 -13.998s-12.167 -6.5 -19.5 -9.5s-14.333 -6.33301 -21 -10s-11 -8.83398 -13 -15.501l-170 -579c-4 -14 -13.333 -21 -28 -21c-14 0 -23 7.33301 -27 22l-120 442c-4 13.333 -7.66699 20 -11 20s-7 -7 -11 -21l-136 -442
c-4 -14 -12.667 -21 -26 -21s-23 7 -29 21l-170 580c-2 6 -6.33301 10.833 -13 14.5s-13.834 7 -21.501 10s-14.5 6.16699 -20.5 9.5s-9 8 -9 14c0 10 6.66699 15 20 15h167c12.667 0 19 -5 19 -15c0 -5.33301 -2.83301 -9.66602 -8.5 -12.999s-11.834 -6.33301 -18.501 -9
s-12.834 -5.33398 -18.501 -8.00098s-8.5 -6.33398 -8.5 -11.001c0 -2 0.333008 -3.33301 1 -4l113 -424c3.33301 -13.333 6.33301 -20 9 -20s6 6.66699 10 20l127 418c2.66699 7.33301 6.66699 13.666 12 18.999s13.333 8 24 8c10 0 18 -2.33301 24 -7
s9.66699 -9.66699 11 -15l111 -425c3.33301 -13.333 6.66602 -20 9.99902 -20s7 6.66699 11 20l124 425c0.666992 0.666992 1 3 1 7c0 4.66699 -2.5 8.33398 -7.5 11.001s-10.5 5.16699 -16.5 7.5s-11.5 5 -16.5 8s-7.5 7.16699 -7.5 12.5c0 10 6.66699 15 20 15h117
c16.667 0 25 -5 25 -15z" />
    <glyph glyph-name="X" unicode="X" horiz-adv-x="642" 
d="M587 649c0 -5.33301 -3 -9.83594 -9 -13.5029s-12.833 -7 -20.5 -10s-15.334 -6.16699 -23.001 -9.5s-13.167 -7.33301 -16.5 -12l-164 -242c-5.33301 -7.33301 -8 -14.333 -8 -21c0 -4 1.33301 -8.33301 4 -13l161 -267c3.33301 -6 8.83301 -10.5 16.5 -13.5l23.5 -9
c8 -3 15 -6.16699 21 -9.5s9 -8 9 -14c0 -10 -6.66699 -15 -20 -15h-170c-12.667 0 -19 5 -19 15c0 8.66699 9.66699 16.667 29 24l14 5c6 0 9 1.66699 9 5c0 -2 -0.666992 0.333008 -2 7l-118 196c-4 6.66699 -7.66699 10 -11 10c-2 0 -4 -1.66699 -6 -5l-132 -201
c-2 -3.33301 -3 -5.66602 -3 -6.99902c0 -3.33301 3.33301 -5 10 -5l14 -5c10 -3.33301 17.5 -6.83301 22.5 -10.5s7.5 -8.16699 7.5 -13.5c0 -10 -6.66699 -15 -20 -15h-146c-13.333 0 -20 5 -20 15c0 6 3 10.667 9 14s12.833 6.33301 20.5 9s15.334 5.5 23.001 8.5
s13.167 7.16699 16.5 12.5l156 238c2 3.33301 3.83301 7 5.5 11s2.5 8 2.5 12s-1 8 -3 12l-155 271c-2.66699 4.66699 -7.83398 8.66699 -15.501 12l-23.5 10c-8 3.33301 -15.167 6.83301 -21.5 10.5s-9.5 8.16699 -9.5 13.5c0 10 6.66699 15 20 15h171
c12.667 0 19 -5 19 -15c0 -9.33301 -9.66699 -16.666 -29 -21.999l-16 -4c-5.33301 -2 -8 -4.33301 -8 -7c0 -2 1 -5 3 -9l116 -206c2 -4.66699 4.66699 -7 8 -7c2.66699 0 5.33398 2.33301 8.00098 7l139 206c2 2.66699 3 5.33398 3 8.00098c0 3.33301 -3 5 -9 5l-14 5
c-9.33301 3.33301 -16.833 6.5 -22.5 9.5s-8.16699 7.83301 -7.5 14.5c0 10 6.66699 15 20 15h141c13.333 0 20 -5 20 -15z" />
    <glyph glyph-name="Y" unicode="Y" horiz-adv-x="572" 
d="M537 649c0 -6 -3 -10.668 -9 -14.001s-13 -6.33301 -21 -9s-15.833 -5.66699 -23.5 -9s-13.167 -8.33301 -16.5 -15l-145 -273c-8 -14.667 -11.333 -25.667 -10 -33v-232c0 -6.66699 3 -11.834 9 -15.501s12.833 -7 20.5 -10s14.5 -6.16699 20.5 -9.5s9 -8 9 -14
c0 -10 -6.66699 -15 -20 -15h-156c-12.667 0 -19 5 -19 15c0 6 3 10.667 9 14s12.667 6.5 20 9.5s14 6.33301 20 10s9 8.5 9 14.5v234c0 9.33301 -3.33301 20.333 -10 33l-155 272c-3.33301 6 -8.83301 10.667 -16.5 14s-15.334 6.5 -23.001 9.5s-14.5 6.16699 -20.5 9.5
s-9 8 -9 14c0 10 6.66699 15 20 15h165c13.333 0 20 -5 20 -15c0 -4.66699 -2.66699 -8.16699 -8 -10.5s-12.666 -5.16602 -21.999 -8.49902l-14 -5c-4.66699 -0.666992 -7 -3.66699 -7 -9c0 -3.33301 1 -7 3 -11l120 -217c3.33301 -5.33301 6.33301 -8 9 -8
c2 0 4.66699 2.66699 8 8l116 217c2 4 3 7.33301 3 10c0 4 -2.66699 6 -8 6l-15 4c-10 2.66699 -17.333 6.33398 -22 11.001s-7 9 -7 13c0 10 6.66699 15 20 15h136c13.333 0 20 -5 20 -15z" />
    <glyph glyph-name="Z" unicode="Z" horiz-adv-x="530" 
d="M475 20c0 -13.333 -6.66699 -19.999 -20 -19.999h-415c-13.333 0 -20 6.66699 -20 20v19c0 6.66699 1.66699 13 5 19s6.66602 11.667 9.99902 17l331 529c0.666992 0.666992 1 2 1 4c0 2.66699 -2 4 -6 4h-242c-10 0 -17.667 -3 -23 -9s-9.66602 -12.667 -12.999 -20
l-9.5 -20c-3 -6 -7.5 -9 -13.5 -9c-10 0 -15 9.66699 -15 29v62c0 12.667 6.66699 19 20 19h375c13.333 0 20 -6.33301 20 -19v-20c0 -7.33301 -1.66699 -14 -5 -20s-6.66602 -11.667 -9.99902 -17l-331 -529c-0.666992 -3.33301 -1.16699 -5.33301 -1.5 -6
s-0.5 -0.333984 -0.5 0.999023c0 -2 2.33301 -3 7 -3h281c10 0 17.667 3 23 9s9.66602 12.667 12.999 20l9.5 20c3 6 7.83301 9 14.5 9c3.33301 0 6.5 -2.5 9.5 -7.5s4.5 -12.167 4.5 -21.5z" />
    <glyph glyph-name="bracketleft" unicode="[" horiz-adv-x="193" 
d="M138 0h-118v723h118v-59h-59v-605h59v-59z" />
    <glyph glyph-name="backslash" unicode="\" horiz-adv-x="348" 
d="M293 0h-58l-215 723h59z" />
    <glyph glyph-name="bracketright" unicode="]" horiz-adv-x="193" 
d="M138 0h-118v59h59v605h-59v59h118v-723z" />
    <glyph glyph-name="asciicircum" unicode="^" horiz-adv-x="273" 
d="M218 541h-19l-80 74l-80 -74h-19l79 122h40z" />
    <glyph glyph-name="underscore" unicode="_" horiz-adv-x="563" 
d="M508 0h-488v40h488v-40z" />
    <glyph glyph-name="grave" unicode="`" horiz-adv-x="249" 
d="M194 540l-26 0.000976562l-125 77c-15.333 9.33301 -23 19.666 -23 30.999c0 8 2.5 14.5 7.5 19.5s11.833 7.5 20.5 7.5c5.33301 0 10.333 -1.33301 15 -4s11.667 -8.66699 21 -18z" />
    <glyph glyph-name="a" unicode="a" horiz-adv-x="464" 
d="M419 17c-1.33301 -11.333 -11.332 -17 -29.999 -17c-38.667 -0 -68 11.333 -88 34c-44.667 -22.667 -89.334 -34 -134.001 -34c-48 0 -84.5 12.167 -109.5 36.5s-37.5 56.5 -37.5 96.5c0 27.333 5.66699 50.833 17 70.5s27.5 35.667 48.5 48s46 21.5 75 27.5
s61.167 9 96.5 9h16c12.667 0 19 6.66699 19 20v35c0 36 -8.33301 63.5 -25 82.5s-41 28.5 -73 28.5c-20 0 -39.333 -1.16699 -58 -3.5s-36.667 -6.16602 -54 -11.499c-13.333 1.33301 -20 6.33301 -20 15c0 9.33301 6.66699 17 20 23c24.667 12.667 62 19 112 19
c60.667 0 105.167 -14 133.5 -42s42.5 -68 42.5 -120v-267c0 -8.66699 2.5 -15 7.5 -19s10.667 -7.33301 17 -10s12 -5.33398 17 -8.00098s7.5 -7 7.5 -13zM292.001 235c0 12.667 -6.33398 19.002 -19.001 19.002c-66 -2.66699 -112.5 -13.834 -139.5 -33.501
s-40.5 -47.834 -40.5 -84.501c0 -11.333 1.66699 -22.5 5 -33.5s9 -20.833 17 -29.5s18.5 -15.667 31.5 -21s29.167 -8 48.5 -8c28.667 0 54.334 3.33301 77.001 10c13.333 3.33301 20 11.333 20 24v157z" />
    <glyph glyph-name="b" unicode="b" horiz-adv-x="521" 
d="M466 262c0 -34 -4.83203 -66.668 -14.499 -98.001s-24 -59.166 -43 -83.499s-42.833 -43.833 -71.5 -58.5s-62.334 -22 -101.001 -22c-44.667 0 -97.334 13 -158.001 39l1 606c0 7.33301 -3 12 -9 14s-12.833 3.5 -20.5 4.5s-14.5 2.33301 -20.5 4s-9 5.5 -9 11.5
c0 4.66699 3 9.16699 9 13.5s13.167 8 21.5 11s16.833 5.33301 25.5 7s16 2.5 22 2.5h29c20 0 30 -6.33301 30 -19v-215c0 -8.66699 2.66699 -13 8 -13c2.66699 0 6.33398 1.33301 11.001 4c28.667 14.667 59 22 91 22c29.333 0 56.166 -6 80.499 -18s45.333 -28.5 63 -49.5
s31.334 -45.333 41.001 -73s14.5 -57.5 14.5 -89.5zM390.001 260.999c0 54 -11.668 97 -35.001 129s-56.333 48 -99 48c-6 0 -14.667 -0.5 -26 -1.5s-22.5 -3 -33.5 -6s-20.5 -7.16699 -28.5 -12.5s-12 -12 -12 -20v-316c0 -8 3.16699 -14.167 9.5 -18.5
s13.833 -7.5 22.5 -9.5s17.334 -3.16699 26.001 -3.5s15.667 -0.5 21 -0.5c20.667 0 40.5 4.5 59.5 13.5s35.5 22.333 49.5 40s25.167 39.667 33.5 66s12.5 56.833 12.5 91.5z" />
    <glyph glyph-name="c" unicode="c" horiz-adv-x="437" 
d="M382 46c0 -7.33301 -4.66699 -14.002 -14 -20.002s-20.666 -11.167 -33.999 -15.5s-27.5 -7.66602 -42.5 -9.99902s-27.833 -3.5 -38.5 -3.5c-36 0 -68.333 5.83301 -97 17.5s-53.167 28.167 -73.5 49.5s-35.833 46.666 -46.5 75.999s-16 61.666 -16 96.999
c0 34 5.16699 66.5 15.5 97.5s25 58.333 44 82s42.333 42.334 70 56.001s59.167 20.5 94.5 20.5c28.667 0 68 -6.66699 118 -20v-78c0 -14 -6.33301 -21 -19 -21c-6.66699 0 -12.167 3 -16.5 9s-8.66602 13 -12.999 21l-13 23.5
c-4.33301 7.66699 -9.83301 13.167 -16.5 16.5c-8 4 -16 6.66699 -24 8s-15.667 2 -23 2c-18.667 0 -36.334 -5.33301 -53.001 -16s-31.334 -25.667 -44.001 -45s-22.667 -42.166 -30 -68.499s-11 -55.5 -11 -87.5c0 -29.333 4.16699 -56 12.5 -80s20 -44.667 35 -62
s32.833 -30.666 53.5 -39.999s43.667 -14 69 -14c26.667 0 57.667 6 93 18c13.333 0 20 -4.33301 20 -13z" />
    <glyph glyph-name="d" unicode="d" horiz-adv-x="502" 
d="M457 17c0 -11.333 -9.66992 -17.0029 -29.0029 -17.0029c-40 0 -69.333 13 -88 39c-25.333 -13.333 -49.166 -23.666 -71.499 -30.999s-44.166 -11 -65.499 -11c-33.333 0 -61.5 7.5 -84.5 22.5s-41.833 33.5 -56.5 55.5s-25.334 45.667 -32.001 71s-10 48 -10 68
c0 30 4 61.5 12 94.5s20.5 63.5 37.5 91.5s39 51 66 69s59.5 27 97.5 27c11.333 0 23.333 -1 36 -3s26.334 -4.66699 41.001 -8c0.666992 0 1.33398 -0.166992 2.00098 -0.5s1.33398 -0.5 2.00098 -0.5c8.66699 0 13 5.33301 13 16v145c0 6.66699 -2.83301 11.167 -8.5 13.5
s-11.834 4 -18.501 5s-13 2.33301 -19 4s-9.33301 5.5 -10 11.5c0.666992 4.66699 4.16699 9.16699 10.5 13.5s13.5 8 21.5 11s16.333 5.33301 25 7s15.667 2.5 21 2.5h40c12.667 0 19 -6.66699 19 -20v-625c0 -9.33301 2.33301 -16.166 7 -20.499s10 -7.66602 16 -9.99902
s11.667 -4.83301 17 -7.5s8.33301 -7 9 -13zM331.997 411.997c0 10 -5.33301 17.3301 -16 21.9971c-21.333 10.667 -44 16 -68 16c-19.333 0 -37.5 -5.16699 -54.5 -15.5s-32 -25.166 -45 -44.499s-23.167 -42.666 -30.5 -69.999s-11 -57.666 -11 -90.999
c0 -58.667 11.667 -103.5 35 -134.5s53 -46.5 89 -46.5c6 0 14.667 0.5 26 1.5s22.5 3 33.5 6s20.667 7.16699 29 12.5s12.5 12 12.5 20v324z" />
    <glyph glyph-name="e" unicode="e" horiz-adv-x="460" 
d="M405 252c0 -10 -5.33203 -14.9961 -15.999 -14.9961h-285c0 -28 3.16699 -53.833 9.5 -77.5s15.666 -44 27.999 -61s27.333 -30.333 45 -40s37.5 -14.5 59.5 -14.5c30.667 0 66 8.33301 106 25c13.333 0 20 -4.33301 20 -13c0 -8 -5.5 -15.5 -16.5 -22.5s-24 -13 -39 -18
s-30.167 -9 -45.5 -12s-27 -4.5 -35 -4.5c-32 0 -61.333 6.16699 -88 18.5s-49.5 29.666 -68.5 51.999s-33.667 48.833 -44 79.5s-15.5 64 -15.5 100c0 35.333 5.16699 68.166 15.5 98.499s24.666 56.666 42.999 78.999s40.333 39.833 66 52.5s53.834 19 84.501 19
c58.667 0 102.667 -21.333 132 -64s44 -103.334 44 -182.001zM336.001 296.004c-3.33301 56 -13.833 96.333 -31.5 121s-46.167 37 -85.5 37c-35.333 0 -61.333 -14.167 -78 -42.5s-27.667 -66.833 -33 -115.5c0 -13.333 6.33301 -20 19 -20h190c14 0 20.333 6.66699 19 20z
" />
    <glyph glyph-name="f" unicode="f" horiz-adv-x="299" 
d="M284 644c0 -12.667 -6.66699 -19 -20 -19c-36 0 -62.833 -9.66699 -80.5 -29s-26.5 -52 -26.5 -98c0 -6.66699 3 -10 9 -10h49c13.333 0 20 -8 20 -24c0 -16.667 -6.33301 -25 -19 -25h-50c-6 0 -9 -3.33301 -9 -10v-366c0 -6.66699 3 -11.834 9 -15.501
s12.667 -6.83398 20 -9.50098s14 -5.66699 20 -9s9 -8 9 -14c0 -10 -6.33301 -15 -19 -15h-156c-13.333 0 -20 5 -20 15c0 6 3 10.667 9 14s12.833 6.33301 20.5 9s14.5 5.83398 20.5 9.50098s9 8.83398 9 15.501v358c0 12 -6.66699 18 -20 18h-19
c-13.333 0 -20 8.33301 -20 25c0 16 6.66699 24 20 24h29c6.66699 0 10 3.33301 10 10c0 58.667 15.167 101 45.5 127s76.833 39 139.5 39c13.333 0 20 -6.66699 20 -20z" />
    <glyph glyph-name="g" unicode="g" horiz-adv-x="500" 
d="M445 -75c0 -80 -49 -119.998 -147 -119.998h-161c-13.333 0 -26.833 1.33301 -40.5 4s-26.167 7.66699 -37.5 15s-20.666 17.166 -27.999 29.499s-11 28.5 -11 48.5s4.5 36.833 13.5 50.5s22.5 25.834 40.5 36.501c14 7.33301 23.333 10.666 28 9.99902
c6.66699 0 12 -1.83301 16 -5.5s6 -7.16699 6 -10.5s-2.16699 -6.83301 -6.5 -10.5s-9 -8.33398 -14 -14.001s-9.5 -12 -13.5 -19s-6 -15.167 -6 -24.5c0 -15.333 6.66699 -27.833 20 -37.5s30.666 -14.5 51.999 -14.5h142c59.333 0 89 19.333 89 58
c0 25.333 -9.66699 44.833 -29 58.5s-46 20.5 -80 20.5h-78c-46 -0 -80.333 8.33301 -103 25s-34 43 -34 79s13.333 61.333 40 76c-26.667 14 -46.5 33.667 -59.5 59s-19.5 54 -19.5 86c0 54 17 96 51 126s84.333 45 151 45c12.667 0 25 -0.833008 37 -2.5
s24 -4.83398 36 -9.50098l17 -6l99 17c12.667 0 19 -6.66699 19 -20c0 -12.667 -6.33301 -19 -19 -19l-41 -14c14.667 -14.667 25 -32.5 31 -53.5s9 -41.5 9 -61.5c0 -52 -15.667 -93.667 -47 -125s-80 -47 -146 -47c-10 0 -20.5 0.666992 -31.5 2s-22.833 3.33301 -35.5 6
l-11 -9c-6.66699 -5.33301 -11.667 -10 -15 -14s-5 -9.66699 -5 -17c0 -15.333 6.83301 -26.666 20.5 -33.999s32.5 -11 56.5 -11h78c111.333 0 167 -51 167 -153zM335 329.002c0 16 -1.83301 31.332 -5.5 45.999s-9.83398 27.667 -18.501 39s-20.667 20.333 -36 27
s-34.333 10 -57 10c-15.333 0 -32.333 -3.66699 -51 -11c-14 -6 -25.333 -12.833 -34 -20.5s-15.167 -16.167 -19.5 -25.5s-7.16602 -19.666 -8.49902 -30.999s-2 -24 -2 -38c0 -15.333 1.33301 -30.5 4 -45.5s8.16699 -28.5 16.5 -40.5s20 -21.833 35 -29.5
s35.167 -11.5 60.5 -11.5c24 0 43.5 3.83301 58.5 11.5s26.833 17.667 35.5 30s14.5 26.333 17.5 42s4.5 31.5 4.5 47.5z" />
    <glyph glyph-name="h" unicode="h" 
d="M508 15c0 -10 -6.66504 -14.999 -19.998 -14.999h-156c-13.333 0 -20 5 -20 15c0 6 3.16699 10.667 9.5 14s13.166 6.5 20.499 9.5s14.166 6.33301 20.499 10s9.5 8.5 9.5 14.5v266c0 14 -2.5 27.5 -7.5 40.5s-12.167 24.5 -21.5 34.5s-20.833 18 -34.5 24
s-29.167 9 -46.5 9c-30 0 -65 -10 -105 -30v-344c0 -6.66699 3 -11.834 9 -15.501s12.667 -6.83398 20 -9.50098s14 -5.66699 20 -9s9 -8 9 -14c0 -10 -6.33301 -15 -19 -15h-156c-13.333 0 -20 5 -20 15c0 6 3 10.667 9 14s12.833 6.33301 20.5 9
s14.5 5.83398 20.5 9.50098s9 8.83398 9 15.501v582c0 7.33301 -3 12 -9 14s-12.833 3.5 -20.5 4.5s-14.5 2.33301 -20.5 4s-9 5.5 -9 11.5c0 4.66699 3 9.16699 9 13.5s13.167 8 21.5 11s16.833 5.33301 25.5 7s16 2.5 22 2.5h39c13.333 0 20 -6.66699 20 -20v-247
c46 32 91.333 48 136 48c52 0 91.167 -14.5 117.5 -43.5s39.5 -69.5 39.5 -121.5l-1 -265c0 -6.66699 3 -11.834 9 -15.501s12.833 -7 20.5 -10s14.5 -6.16699 20.5 -9.5s9 -8 9 -14z" />
    <glyph glyph-name="i" unicode="i" horiz-adv-x="260" 
d="M157 585c0 -25.333 -14.666 -38 -43.999 -38c-28.667 0 -43.334 13 -44.001 39c0 26 14.667 39 44 39s44 -13.333 44 -40zM215.001 15c0 -10 -6.33301 -14.999 -19 -14.999h-156c-13.333 0 -20 5 -20 15c0 7.33301 3 13.166 9 17.499s12.833 8.33301 20.5 12
s14.5 7.5 20.5 11.5s9 9.66699 9 17v347c0 7.33301 -3 12.166 -9 14.499s-12.833 4 -20.5 5s-14.5 2.16699 -20.5 3.5s-9 5 -9 11c0 4.66699 2.83301 9.16699 8.5 13.5s12.667 8 21 11s17 5.33301 26 7s16.833 2.5 23.5 2.5h38c13.333 0 20 -6.33301 20 -19v-395
c0 -7.33301 3 -13.166 9 -17.499s12.667 -8.5 20 -12.5s14 -8.16699 20 -12.5s9 -9.83301 9 -16.5z" />
    <glyph glyph-name="j" unicode="j" horiz-adv-x="214" 
d="M159 586c0 -26 -14.333 -38.999 -43 -38.999c-29.333 0 -44 13 -44 39c0 13.333 3.33301 23.166 10 29.499s18 9.5 34 9.5c28.667 0 43 -13 43 -39zM159 -58.999c0 -44 -9.16699 -78.168 -27.5 -102.501s-45.833 -36.5 -82.5 -36.5c-19.333 0 -36.5 1.83301 -51.5 5.5
s-27.5 7.83398 -37.5 12.501s-17.5 9.33398 -22.5 14.001s-7.5 8 -7.5 10c0 12.667 6.66699 19 20 19c14.667 -4.66699 33.667 -7 57 -7c49.333 0 74 22 74 66v498c0 6.66699 -2.83301 11.167 -8.5 13.5s-12 4 -19 5s-13.667 2.33301 -20 4s-9.83301 5.5 -10.5 11.5
c0 5.33301 3 10.166 9 14.499s13.167 8 21.5 11s17 5.16699 26 6.5s16.167 2 21.5 2h39c12.667 0 19 -6.33301 19 -19v-528z" />
    <glyph glyph-name="k" unicode="k" horiz-adv-x="514" 
d="M469 20c0 -13.333 -6.33301 -20.002 -19 -20.002h-59c-12.667 0 -24 5 -34 15l-188 187c-3.33301 3.33301 -6 5 -8 5c-2.66699 0 -4 -4 -4 -12v-132c0 -6.66699 3 -11.834 9 -15.501s12.667 -6.83398 20 -9.50098s14 -5.66699 20 -9s9 -8 9 -14
c0 -10 -6.33301 -15 -19 -15h-156c-13.333 0 -20 5 -20 15c0 6 3 10.667 9 14s12.833 6.33301 20.5 9s14.5 5.83398 20.5 9.50098s9 8.83398 9 15.501v582c0 7.33301 -3 12 -9 14s-12.833 3.5 -20.5 4.5s-14.5 2.33301 -20.5 4s-9 5.5 -9 11.5c0 4.66699 3 9.16699 9 13.5
s13.167 8 21.5 11s16.833 5.33301 25.5 7s16 2.5 22 2.5h39c13.333 0 20 -6.66699 20 -20v-381c0 -8 1.33301 -12 4 -12s6 2.66699 10 8l103 112c4.66699 4.66699 7 9.33398 7 14.001c0 3.33301 -2.33301 6.5 -7 9.5s-10 6 -16 9s-11.333 6.33301 -16 10s-7 7.5 -7 11.5
c0 9.33301 6.33301 14 19 14h137c13.333 0 20 -4.66699 20 -14c0 -6 -2.83301 -11 -8.5 -15s-12.5 -7.83301 -20.5 -11.5l-25.5 -11.5c-9 -4 -16.833 -9.33301 -23.5 -16l-120 -129c-6.66699 -6.66699 -10 -13 -10 -19c0 -4 2 -8 6 -12l193 -198
c3.33301 -3.33301 8.66602 -6.66602 15.999 -9.99902l22.5 -10c7.66699 -3.33301 14.334 -6.83301 20.001 -10.5s8.5 -7.5 8.5 -11.5z" />
    <glyph glyph-name="l" unicode="l" horiz-adv-x="260" 
d="M215 15c0 -10 -6.33301 -15 -19 -15h-156c-13.333 0 -20 5 -20 15c0 6 3 10.667 9 14s12.833 6.33301 20.5 9s14.5 5.83398 20.5 9.50098s9 8.83398 9 15.501v582c0 7.33301 -3 12 -9 14s-12.833 3.5 -20.5 4.5s-14.5 2.33301 -20.5 4s-9 5.5 -9 11.5
c0 4.66699 3 9.16699 9 13.5s13.167 8 21.5 11s16.833 5.33301 25.5 7s16 2.5 22 2.5h39c13.333 0 20 -6.66699 20 -20v-630c0 -6.66699 3 -11.834 9 -15.501s12.667 -6.83398 20 -9.50098s14 -5.66699 20 -9s9 -8 9 -14z" />
    <glyph glyph-name="m" unicode="m" horiz-adv-x="816" 
d="M771 15c0 -10 -6.66602 -14.999 -19.999 -14.999h-156c-12.667 0 -19 5 -19 15c0 6 3 10.667 9 14s12.833 6.33301 20.5 9s14.5 5.83398 20.5 9.50098s9 8.83398 9 15.501v269c0 13.333 -2.16699 26.5 -6.5 39.5s-10.833 24.833 -19.5 35.5s-19 19.167 -31 25.5
s-26 9.5 -42 9.5c-32 0 -68.333 -15.333 -109 -46c3.33301 -9.33301 5.5 -19.333 6.5 -30s1.5 -22 1.5 -34v-268c0 -6.66699 3 -11.834 9 -15.501s12.667 -7 20 -10s14 -6.16699 20 -9.5s9 -8 9 -14c0 -10 -6.33301 -15 -19 -15h-157c-12.667 0 -19 5 -19 15
c0 6 3 10.667 9 14s12.833 6.5 20.5 9.5s14.5 6.33301 20.5 10s9 8.5 9 14.5v269c0 12 -2 24.333 -6 37s-9.83301 24.334 -17.5 35.001s-17.167 19.334 -28.5 26.001s-24 10 -38 10c-15.333 0 -32.166 -4.33301 -50.499 -13s-38.166 -20.334 -59.499 -35.001v-328
c0 -6.66699 3 -11.834 9 -15.501s12.667 -7 20 -10s14 -6.16699 20 -9.5s9 -8 9 -14c0 -10 -6.33301 -15 -19 -15h-156c-13.333 0 -20 5 -20 15c0 6 3 10.667 9 14s12.833 6.5 20.5 9.5s14.5 6.33301 20.5 10s9 8.5 9 14.5v357c0 7.33301 -3 12.166 -9 14.499
s-12.833 4 -20.5 5s-14.5 2.16699 -20.5 3.5s-9 5 -9 11c0 4.66699 2.83301 9.16699 8.5 13.5s12.667 8 21 11s17 5.33301 26 7s16.833 2.5 23.5 2.5h38c13.333 0 20 -6.33301 20 -19v-36c23.333 20 46.666 35.667 69.999 47s46.666 17 69.999 17
c24.667 0 47 -5.66699 67 -17s35.333 -25.666 46 -42.999c55.333 41.333 106.666 62 153.999 62c48.667 0 85.667 -15.167 111 -45.5s38 -70.833 38 -121.5l-1 -269c0 -6.66699 3 -11.834 9 -15.501s12.833 -6.83398 20.5 -9.50098s14.5 -5.66699 20.5 -9s9 -8 9 -14z" />
    <glyph glyph-name="n" unicode="n" 
d="M508 15c0 -10 -6.66504 -14.9961 -19.998 -14.9961h-156c-13.333 0 -20 5 -20 15c0 6 3.16699 10.667 9.5 14s13.166 6.5 20.499 9.5s14.166 6.33301 20.499 10s9.5 8.5 9.5 14.5v269c0 12 -1.83301 24.333 -5.5 37s-9.16699 24 -16.5 34s-16.5 18.167 -27.5 24.5
s-23.5 9.5 -37.5 9.5c-17.333 0 -36.5 -5 -57.5 -15s-44.5 -23.667 -70.5 -41v-317c0 -6.66699 3 -11.834 9 -15.501s12.667 -7 20 -10s14 -6.16699 20 -9.5s9 -8 9 -14c0 -10 -6.33301 -15 -19 -15h-156c-13.333 0 -20 5 -20 15c0 6 3 10.667 9 14s12.833 6.5 20.5 9.5
s14.5 6.33301 20.5 10s9 8.5 9 14.5v357c0 7.33301 -3 12.166 -9 14.499s-12.833 4 -20.5 5s-14.5 2.16699 -20.5 3.5s-9 5 -9 11c0 4.66699 2.83301 9.16699 8.5 13.5s12.667 8 21 11s17 5.33301 26 7s16.833 2.5 23.5 2.5h38c13.333 0 20 -6.33301 20 -19v-49
c28 23.333 54.833 41.666 80.5 54.999s51.167 20 76.5 20c44.667 0 78.5 -15.167 101.5 -45.5s34.5 -69.5 34.5 -117.5l-1 -268c0 -6.66699 3 -11.834 9 -15.501s12.833 -7 20.5 -10s14.5 -6.16699 20.5 -9.5s9 -8 9 -14z" />
    <glyph glyph-name="o" unicode="o" horiz-adv-x="495" 
d="M440 238c0 -36 -5.00195 -69.001 -15.002 -99.001s-24 -55.833 -42 -77.5s-40 -38.5 -66 -50.5s-55 -18 -87 -18c-31.333 0 -59.833 5.83301 -85.5 17.5s-47.834 28.334 -66.501 50.001s-33 47.5 -43 77.5s-15 63.333 -15 100c0 58.667 11.167 109.167 33.5 151.5
s53.5 71.5 93.5 87.5c28.667 11.333 56.334 17 83.001 17c30 0 57.833 -5.83301 83.5 -17.5s47.834 -28.5 66.501 -50.5s33.334 -48.833 44.001 -80.5s16 -67.5 16 -107.5zM359.998 233.999c0 30.667 -2.50098 58.8301 -7.50098 84.4971s-12.833 47.834 -23.5 66.501
s-24 33.167 -40 43.5s-35.333 15.5 -58 15.5c-19.333 0 -37.333 -4.33301 -54 -13c-26.667 -13.333 -46 -37.166 -58 -71.499s-18 -74.833 -18 -121.5c0 -26.667 2.33301 -51.5 7 -74.5s12.334 -43.167 23.001 -60.5s24 -31 40 -41s35.667 -15 59 -15
c20.667 0 39.167 4.5 55.5 13.5s30 21.833 41 38.5s19.333 36.334 25 59.001s8.5 48 8.5 76z" />
    <glyph glyph-name="p" unicode="p" horiz-adv-x="522" 
d="M467 255c0 -35.333 -4.83301 -68.6689 -14.5 -100.002s-23 -58.666 -40 -81.999s-37.333 -41.666 -61 -54.999s-49.834 -20 -78.501 -20c-17.333 0 -35.5 3.5 -54.5 10.5s-39.5 19.167 -61.5 36.5v-177c0 -6.66699 3 -11.834 9 -15.501s12.667 -7 20 -10
s14 -6.16699 20 -9.5s9 -8 9 -14c0 -10 -6.33301 -15 -19 -15h-156c-13.333 0 -20 5 -20 15c0 6 3 10.667 9 14s12.833 6.5 20.5 9.5s14.5 6.33301 20.5 10s9 8.83398 9 15.501v551c0 7.33301 -3 12 -9 14s-12.833 3.5 -20.5 4.5s-14.5 2.33301 -20.5 4
s-9 5.83398 -9 12.501c0 4.66699 3 9.16699 9 13.5s13 8 21 11s16.5 5.33301 25.5 7s16.5 2.5 22.5 2.5h39c13.333 0 20 -6.33301 20 -19v-15c23.333 13.333 45.5 23.666 66.5 30.999s41.5 11 61.5 11c28 0 53.333 -6.5 76 -19.5s41.834 -30.5 57.501 -52.5
s27.667 -47.5 36 -76.5s12.5 -59.833 12.5 -92.5zM395 260.997c0 24.667 -2.99805 48.167 -8.99805 70.5s-14.333 42 -25 59s-23.834 30.5 -39.501 40.5s-32.834 15 -51.501 15c-15.333 0 -32.5 -2.83301 -51.5 -8.5s-39.5 -13.167 -61.5 -22.5v-323
c21.333 -16 40.5 -27.333 57.5 -34s32.5 -10 46.5 -10c21.333 0 40.333 5.5 57 16.5s30.667 26.167 42 45.5s20 42 26 68s9 53.667 9 83z" />
    <glyph glyph-name="q" unicode="q" horiz-adv-x="503" 
d="M468 -181c0 -10 -6.33301 -15.002 -19 -15.002h-147c-12.667 0 -19 5 -19 15c0 6 2.83301 10.667 8.5 14s12 6.5 19 9.5s13.333 6.33301 19 10s8.5 8.83398 8.5 15.501v164l-2 6c-33.333 -24 -71.666 -36 -114.999 -36c-29.333 0 -56.333 6.16699 -81 18.5
s-45.834 28.833 -63.501 49.5s-31.5 44.834 -41.5 72.501s-15 56.5 -15 86.5c0 32 5.5 64 16.5 96s26.833 60.833 47.5 86.5s45.667 46.5 75 62.5s62.333 24 99 24c44 0 94.333 -16.333 151 -49v-581c0 -6 3 -10.833 9 -14.5s12.833 -7 20.5 -10s14.5 -6.33301 20.5 -10
s9 -8.5 9 -14.5zM338 411.998c0 8 -3.66797 14.332 -11.001 18.999s-15.666 8.5 -24.999 11.5s-18.666 5 -27.999 6s-16.333 1.5 -21 1.5c-19.333 0 -38.333 -5.5 -57 -16.5s-35.334 -26.5 -50.001 -46.5s-26.5 -43.667 -35.5 -71s-13.5 -57.333 -13.5 -90
c0 -26.667 3.83301 -51 11.5 -73s18 -40.667 31 -56s28.5 -27.333 46.5 -36s37 -13 57 -13c6.66699 0 15.334 0.833008 26.001 2.5s21.167 4.33398 31.5 8.00098s19.166 8.16699 26.499 13.5s11 12 11 20v320z" />
    <glyph glyph-name="r" unicode="r" horiz-adv-x="388" 
d="M353 376c0 -5.33301 -1.5 -8.99805 -4.5 -10.998s-6.5 -3 -10.5 -3c-5.33301 -0.666992 -9.16602 1.83301 -11.499 7.5s-6.5 12.834 -12.5 21.501l-21 29c-12.667 10.667 -26.334 16 -41.001 16s-29.834 -4.83301 -45.501 -14.5s-32.167 -23.167 -49.5 -40.5v-317
c0 -6.66699 3 -11.834 9 -15.501s12.667 -7 20 -10s14 -6.16699 20 -9.5s9 -8 9 -14c0 -10 -6.33301 -15 -19 -15h-156c-13.333 0 -20 5 -20 15c0 6 3 10.667 9 14s12.833 6.5 20.5 9.5s14.5 6.33301 20.5 10s9 8.5 9 14.5v357c0 7.33301 -3 12.166 -9 14.499
s-12.833 4 -20.5 5s-14.5 2.16699 -20.5 3.5s-9 5 -9 11c0 4.66699 2.83301 9.16699 8.5 13.5s12.667 8 21 11s17 5.33301 26 7s16.833 2.5 23.5 2.5h38c13.333 0 20 -6.33301 20 -19v-49c18.667 23.333 38.334 41.333 59.001 54s42.667 19 66 19c14 0 34 -4.66699 60 -14
l10 -98c0 -1.33301 0.166992 -2.33301 0.5 -3s0.5 -1.33398 0.5 -2.00098z" />
    <glyph glyph-name="s" unicode="s" horiz-adv-x="421" 
d="M366 136c0 -46 -14.666 -80.333 -43.999 -103s-72.333 -34 -129 -34c-23.333 0 -47.833 2.66699 -73.5 8s-52.5 14.333 -80.5 27l-19 102c0 10.667 8 16 24 16c9.33301 0 15.666 -5 18.999 -15l15 -44c6.66699 -14.667 17.834 -27 33.501 -37s36.5 -15 62.5 -15
c40 0 69.333 9.33301 88 28s28 42 28 70c0 34 -42.333 66.333 -127 97c-84 30.667 -126 77.667 -126 141c0 38 14.167 67.5 42.5 88.5s68.5 31.5 120.5 31.5c20 0 40.667 -2.16699 62 -6.5s42.666 -11.5 63.999 -21.5l19 -102c0 -10 -6.33301 -15 -19 -15
s-20.667 4.66699 -24 14l-15 44c-9.33301 14.667 -19.833 26.667 -31.5 36s-27.5 14 -47.5 14c-32 0 -55.833 -7 -71.5 -21s-23.5 -32.333 -23.5 -55c0 -39.333 42.333 -74.333 127 -105c44 -16 76 -35.833 96 -59.5s30 -51.5 30 -83.5z" />
    <glyph glyph-name="t" unicode="t" horiz-adv-x="348" 
d="M313 43c0 -8 -4.16602 -14.8311 -12.499 -20.498s-18.166 -10.334 -29.499 -14.001s-23 -6.5 -35 -8.5s-21.333 -3 -28 -3c-41.333 0 -73.333 12.5 -96 37.5s-34 65.5 -34 121.5v274c0 5.33301 -3 8.66602 -9 9.99902l-29 -1c-13.333 0 -20 8.33301 -20 25
c0 8 1.66699 14.333 5 19s8.33301 6.66699 15 6l19 -1c13.333 -1.33301 20 5 20 19v79c0 6 0.5 13.333 1.5 22s3.16699 17.167 6.5 25.5s8.16602 15.5 14.499 21.5s14.833 9 25.5 9h10c13.333 0 20 -6.33301 20 -19v-147c0 -6.66699 3 -10 9 -10l79 1
c12.667 0 19 -8.33301 19 -25c0 -16 -6.33301 -24 -19 -24h-79c-6.66699 0 -10 -3.33301 -10 -10v-274c0 -44 6.83301 -73.5 20.5 -88.5s34.167 -22.5 61.5 -22.5c19.333 0 37.666 4.66699 54.999 14c1.33301 0 2.33301 0.166992 3 0.5s1.66699 0.5 3 0.5
c9.33301 0 14 -5.66699 14 -17z" />
    <glyph glyph-name="u" unicode="u" 
d="M508 30c0 -5.33301 -2.99902 -10.1758 -8.99902 -14.5088s-13.333 -8 -22 -11s-17.334 -5.33301 -26.001 -7s-15.667 -2.5 -21 -2.5l-34 1c-16 0 -24 8 -24 24v48c-52 -46 -102 -69 -150 -69c-46.667 0 -82.167 15.167 -106.5 45.5s-36.5 70.833 -36.5 121.5v254
c0 7.33301 -3 12 -9 14s-12.833 3.33301 -20.5 4s-14.5 1.83398 -20.5 3.50098s-9 5.83398 -9 12.501c0 4.66699 2.83301 9.16699 8.5 13.5s12.834 8 21.501 11s18.167 5.33301 28.5 7s20.166 2.5 29.499 2.5h29c13.333 0 20 -6.33301 20 -19v-303
c0 -13.333 2 -26.666 6 -39.999s10 -25.166 18 -35.499s17.833 -18.666 29.5 -24.999s25.167 -9.5 40.5 -9.5c32.667 0 73 17 121 51v313c0 7.33301 -3 12 -9 14s-12.833 3.33301 -20.5 4s-14.5 1.83398 -20.5 3.50098s-9 5.83398 -9 12.501c0 9.33301 9.5 17.333 28.5 24
s48.5 10 88.5 10c12.667 0 19 -6.33301 19 -19v-406c0 -7.33301 3 -12.166 9 -14.499s12.833 -4 20.5 -5s14.5 -2.16699 20.5 -3.5s9 -4.66602 9 -9.99902z" />
    <glyph glyph-name="v" unicode="v" horiz-adv-x="489" 
d="M469 474c0 -6 -2.99902 -10.665 -8.99902 -13.998s-12.833 -6.83301 -20.5 -10.5s-15.334 -7.83398 -23.001 -12.501s-12.834 -11.334 -15.501 -20.001l-147 -417h-29l-157 417c-3.33301 8.66699 -8.66602 15.5 -15.999 20.5s-14.833 9.16699 -22.5 12.5
s-14.5 6.66602 -20.5 9.99902s-9 8 -9 14c1.33301 9.33301 8 14 20 14h156c12.667 0 19 -4.66699 19 -14c0 -5.33301 -2.83301 -9.66602 -8.5 -12.999s-11.667 -6.33301 -18 -9s-12.333 -5.66699 -18 -9s-8.5 -7.33301 -8.5 -12c0 1.33301 0.166992 1.33301 0.5 0
s0.833008 -3.66602 1.5 -6.99902l103 -286c2 -7.33301 4.33301 -11 7 -11s5 3.66699 7 11l94 286c0.666992 0.666992 1 2.66699 1 6c0 4.66699 -2.83301 8.66699 -8.5 12s-11.667 6.5 -18 9.5s-12.333 6.16699 -18 9.5s-8.5 7.66602 -8.5 12.999c6 9.33301 12.333 14 19 14
l128 1c12.667 0 19 -5 19 -15z" />
    <glyph glyph-name="w" unicode="w" horiz-adv-x="723" 
d="M703 474c0 -6 -2.99902 -10.6641 -8.99902 -13.9971s-13 -6.83301 -21 -10.5s-15.667 -7.83398 -23 -12.501s-12.333 -11.334 -15 -20.001l-129 -417h-29l-108 333c-2.66699 6.66699 -5.33398 10 -8.00098 10s-5 -3.33301 -7 -10l-120 -333h-28l-138 417
c-2.66699 8.66699 -7.66699 15.5 -15 20.5s-15 9.16699 -23 12.5s-15 6.66602 -21 9.99902s-9 8 -9 14c1.33301 9.33301 8 14 20 14h156c12.667 0 19 -4.66699 19 -14c0 -5.33301 -2.66699 -9.66602 -8 -12.999s-11.333 -6.33301 -18 -9s-12.667 -5.66699 -18 -9
s-8 -7.33301 -8 -12c0 -4 0.333008 -6.33301 1 -7l84 -267c2 -7.33301 4.33301 -11 7 -11c3.33301 0 6 3.66699 8 11l103 309c4.66699 14.667 13.334 22 26.001 22c11.333 0 19.666 -7.66699 24.999 -23l102 -308c2 -7.33301 4.33301 -11 7 -11c2 0 4.66699 3.66699 8 11
l74 266c0.666992 0.666992 1 3 1 7c0 4.66699 -2.66699 8.66699 -8 12s-11.333 6.5 -18 9.5s-12.667 6.16699 -18 9.5s-8 7.66602 -8 12.999c0 9.33301 6.33301 14 19 14h128c12.667 0 19 -4.66699 19 -14z" />
    <glyph glyph-name="x" unicode="x" horiz-adv-x="544" 
d="M489 15c0 -10 -6.33301 -15.001 -19 -15.001h-177c-12.667 0 -19.334 5 -20.001 15c0.666992 8.66699 10.667 16.667 30 24l14 5c8 0 12 3.66699 12 11c0 -1.33301 -0.166992 -1.33301 -0.5 0s-0.833008 3.66602 -1.5 6.99902l-83 136l-10 -14
c-4.66699 -6 -10.5 -14 -17.5 -24l-22.5 -32.5l-25 -36.5l-24 -35c-2 -3.33301 -3 -5.66602 -3 -6.99902c0 -3.33301 3.33301 -5 10 -5l15 -5c19.333 -6 29 -14 29 -24s-6.66699 -15 -20 -15h-136c-13.333 0 -20 4.66699 -20 14c0 6 2.83301 10.667 8.5 14
s12.334 6.5 20.001 9.5l23.5 9.5c8 3.33301 14 8 18 14l123 179l-108 185c-5.33301 6 -12.166 10.667 -20.499 14l-24.5 9.5c-8 3 -15 6.33301 -21 10s-9 8.83398 -9 15.501c0 9.33301 6.33301 14 19 14h167c12.667 0 19 -4.66699 19 -14
c0 -5.33301 -2.83301 -9.66602 -8.5 -12.999s-11.667 -6.5 -18 -9.5s-12.333 -5.66699 -18 -8s-8.5 -4.83301 -8.5 -7.5c0 1.33301 0.166992 1.66602 0.5 0.999023s0.833008 -2.66699 1.5 -6l75 -128l85 128c0.666992 0.666992 1 2.33398 1 5.00098s-2.66699 5.16699 -8 7.5
l-18 7.5c-6.66699 2.66699 -12.667 5.66699 -18 9s-8 7.66602 -8 12.999c0 10.667 6.66699 16 20 16h137c12 0 18.667 -5 20 -15c-0.666992 -6 -4 -10.833 -10 -14.5s-13 -7 -21 -10s-15.667 -6.33301 -23 -10s-13 -8.16699 -17 -13.5l-113 -168l129 -196
c5.33301 -6 12.166 -10.667 20.499 -14l24.5 -9.5c8 -3 14.833 -6.16699 20.5 -9.5s8.5 -8 8.5 -14z" />
    <glyph glyph-name="y" unicode="y" horiz-adv-x="509" 
d="M474 474c0 -4 -3 -7.33398 -9 -10.001l-20.5 -9c-7.66699 -3.33301 -15.334 -7.5 -23.001 -12.5s-12.834 -11.833 -15.501 -20.5l-187 -535c-10.667 -30.667 -24.5 -52 -41.5 -64s-35.833 -18.333 -56.5 -19c-9.33301 0 -19.833 1.5 -31.5 4.5s-22.5 7 -32.5 12
s-18.333 11 -25 18s-10 14.5 -10 22.5c0 10.667 6 16 18 16c6 0 11.5 -1.33301 16.5 -4l15.5 -8.5c5.33301 -3 11.333 -5.83301 18 -8.5s15.334 -4 26.001 -4c12 0 23.333 4 34 12s19 20.667 25 38l36 103l-143 417c-3.33301 8.66699 -8.66602 15.5 -15.999 20.5
s-14.833 9 -22.5 12s-14.5 5.83301 -20.5 8.5s-9 6.33398 -9 11.001c1.33301 9.33301 8 14 20 14h161c12.667 0 19 -4.66699 19 -14c0 -4 -2.83301 -7.16699 -8.5 -9.5l-18 -7.5c-6.33301 -2.66699 -12.333 -5.66699 -18 -9s-8.5 -7.33301 -8.5 -12
c0 1.33301 0.166992 1.33301 0.5 0s0.833008 -3.66602 1.5 -6.99902l95 -285c2 -7.33301 4.33301 -11 7 -11c3.33301 0 6 3.66699 8 11l96 285c0.666992 0.666992 1 2.66699 1 6c0 5.33301 -2.83301 9.66602 -8.5 12.999s-11.667 6.33301 -18 9l-18 7.5
c-5.66699 2.33301 -8.5 5.5 -8.5 9.5c0 9.33301 6.33301 14 19 14l133 1c12.667 0 19 -5 19 -15z" />
    <glyph glyph-name="z" unicode="z" horiz-adv-x="426" 
d="M352 0h-311.998c-13.333 0 -20 6.66699 -20 20c0 6.66699 0.833008 12.334 2.5 17.001s4.16699 9.66699 7.5 15l244 385c0 1.33301 0.166992 2.16602 0.5 2.49902s0.5 0.833008 0.5 1.5s0.333008 1.33398 1 2.00098c0 4 -4.33301 6 -13 6h-164
c-7.33301 0 -13.333 -3 -18 -9s-8.83398 -12.667 -12.501 -20s-7.66699 -14 -12 -20s-9.83301 -9 -16.5 -9c-13.333 0 -20 6.33301 -20 19l20 78h312c12.667 0 19 -6.66699 19 -20c0 -10.667 -3.33301 -21.334 -10 -32.001l-244 -374c-1.33301 -6.66699 -2 -9 -2 -7
c0 -4 4.33301 -6 13 -6h165c6.66699 0 12.167 3 16.5 9s8.5 12.667 12.5 20s8.16699 14 12.5 20s10.166 9 17.499 9c12.667 0 19 -6.33301 19 -19z" />
    <glyph glyph-name="braceleft" unicode="{" horiz-adv-x="339" 
d="M284 -44c0 -10 -6.33301 -14.999 -19 -14.999c-104.667 0 -157 62 -157 186c0 122.667 -26 197.667 -78 225c-6.66699 2.66699 -10 5.66699 -10 9c0 2.66699 3.33301 6 10 10c52 26 78 100.667 78 224c0 124 52.333 186 157 186c12.667 0 19 -4.66699 19 -14
c0 -10 -6.33301 -15 -19 -15c-54.667 -4.66699 -82 -48.667 -82 -132c0 -16.667 1.16699 -35.167 3.5 -55.5s3.5 -38.5 3.5 -54.5c0 -81.333 -27.333 -129.333 -82 -144c-5.33301 -2 -8 -3.66699 -8 -5s2.66699 -3 8 -5c54.667 -14 82 -62 82 -144
c0 -16 -1.16699 -34.167 -3.5 -54.5s-3.5 -38.833 -3.5 -55.5c0 -82.667 27.333 -126.334 82 -131.001c12.667 0 19 -5 19 -15z" />
    <glyph glyph-name="bar" unicode="|" horiz-adv-x="134" 
d="M79 0h-59v723h59v-723z" />
    <glyph glyph-name="braceright" unicode="}" horiz-adv-x="339" 
d="M284 361c0 -3.33301 -3.33301 -6.33496 -10 -9.00195c-52 -26 -78 -101 -78 -225s-52 -186 -156 -186c-13.333 0 -20 5 -20 15s6.66699 15 20 15c54 4.66699 81 48.334 81 131.001c0 16 -1 34 -3 54s-3 38 -3 54c0 83.333 27 132 81 146c5.33301 2 8 3.66699 8 5
s-2.66699 3 -8 5c-54 14.667 -81 63.334 -81 146.001c0 16 1 34 3 54s3 38 3 54c0 82.667 -27 126.667 -81 132c-13.333 0 -20 5 -20 15c0 9.33301 6.66699 14 20 14c104 0 156 -62 156 -186c0 -123.333 26 -198 78 -224c6.66699 -4 10 -7.33301 10 -10z" />
    <glyph glyph-name="asciitilde" unicode="~" horiz-adv-x="480" 
d="M425 353c-20.667 -23.333 -40.5 -39.334 -59.5 -48.001s-37.833 -13 -56.5 -13c-8 0 -20 2.5 -36 7.5l-51 16.5l-51 16.5c-16 5 -27.667 7.5 -35 7.5c-16 0 -33 -4.16699 -51 -12.5s-39.667 -27.166 -65 -56.499v77c21.333 23.333 41.5 39.333 60.5 48s37.5 13 55.5 13
c8 0 20 -2.5 36 -7.5s32.833 -10.667 50.5 -17s34.5 -12 50.5 -17s28 -7.5 36 -7.5c15.333 0 32.5 4.5 51.5 13.5s40.5 27.5 64.5 55.5v-76z" />
    <glyph glyph-name="uni00A0" unicode="&#xa0;" 
 />
    <glyph glyph-name="exclamdown" unicode="&#xa1;" horiz-adv-x="163" 
d="M108 627c0 -12 -3.66699 -21.5 -11 -28.5s-18.333 -10.5 -33 -10.5c-29.333 0 -44 13 -44 39s14.667 39 44 39s44 -13 44 -39zM108 41c0.666992 -26 -14 -39 -44 -39c-28.667 0 -43 11.333 -43 34v5l19 488c1.33301 13.333 9.33301 20 24 20s22.667 -6.66699 24 -20z" />
    <glyph glyph-name="cent" unicode="&#xa2;" horiz-adv-x="437" 
d="M382 46c0 -7.33301 -4.66895 -13.9971 -14.002 -19.9971s-20.666 -11.167 -33.999 -15.5s-27.5 -7.66602 -42.5 -9.99902s-27.833 -3.5 -38.5 -3.5h-2v-29c0 -12.667 -6.66699 -19 -20 -19c-12.667 0 -19 6.66699 -19 20v31c-10 1.33301 -19.667 3.16602 -29 5.49902
s-18.333 5.16602 -27 8.49902c-44 18 -77.667 46.167 -101 84.5s-35 84.5 -35 138.5c0 25.333 3 50 9 74s14.5 46.167 25.5 66.5s24.5 38.666 40.5 54.999s34 29.5 54 39.5c9.33301 4.66699 19.333 8.66699 30 12s21.667 5.66602 33 6.99902v41c0 13.333 6.33301 20 19 20
c13.333 0 20 -6.66699 20 -20v-39c14.667 -0.666992 31.167 -2.5 49.5 -5.5s38.833 -7.83301 61.5 -14.5v-78c0 -14 -6.33301 -21 -19 -21c-6.66699 0 -12.167 3 -16.5 9s-8.66602 13 -12.999 21l-13 23.5c-4.33301 7.66699 -9.83301 13.167 -16.5 16.5
c-11.333 4.66699 -22.333 7.66699 -33 9v-412h18c26.667 0 57.667 6 93 18c13.333 0 20 -4.33301 20 -13zM211.998 50.0029l-0.000976562 399.999c-5.33301 -1.33301 -10.166 -2.83301 -14.499 -4.5s-8.83301 -4.16699 -13.5 -7.5c-24.667 -15.333 -45 -40.666 -61 -75.999
s-24 -77 -24 -125c0 -44 8.83301 -82 26.5 -114s42.5 -54.667 74.5 -68z" />
    <glyph glyph-name="sterling" unicode="&#xa3;" horiz-adv-x="466" 
d="M411 20c0 -13.333 -6.33594 -19.999 -19.0029 -19.999h-352c-13.333 0 -20 6.66699 -20 20v38c0.666992 6.66699 3 13.667 7 21s8.5 15 13.5 23l15.5 25.5c5.33301 9 9.66602 19.167 12.999 30.5c2.66699 8.66699 4.83398 22 6.50098 40s2.5 36.667 2.5 56v11h-38
c-13.333 0 -20 6.66699 -20 20c0 12.667 6.66699 19 20 19h39v31h-39c-13.333 0 -20 6.66699 -20 20c0 12.667 6.66699 19 20 19h39v16c0 52 4.66699 95.333 14 130s22.666 62.667 39.999 84s37.833 36.5 61.5 45.5s50.167 13.5 79.5 13.5
c7.33301 0 16.666 -0.5 27.999 -1.5s22.166 -3 32.499 -6s19.333 -6.83301 27 -11.5s11.5 -11 11.5 -19c0 -13.333 -6.66699 -20 -20 -20c-11.333 2 -22.166 3.33301 -32.499 4s-20.166 1 -29.499 1c-28.667 0 -51.667 -4.83301 -69 -14.5s-30.5 -23.167 -39.5 -40.5
s-15 -38.333 -18 -63s-4.5 -52.334 -4.5 -83.001v-19l-1 -16h154c13.333 0 20 -6.33301 20 -19c0 -13.333 -6.66699 -20 -20 -20h-155l-1 -31h156c13.333 0 20 -6.33301 20 -19c0 -13.333 -6.66699 -20 -20 -20h-156c-0.666992 -40.667 -3.66699 -73 -9 -97
c-2.66699 -14.667 -5.66699 -27.5 -9 -38.5s-7 -20.833 -11 -29.5c-6.66699 -12.667 -10 -22.667 -10 -30s6.66699 -11 20 -11h195c6.66699 0 11.834 4 15.501 12s7.33398 17 11.001 27s7.83398 19 12.501 27s11.334 12 20.001 12c12.667 0 19 -6.66699 19 -20v-97z" />
    <glyph glyph-name="currency" unicode="&#xa4;" horiz-adv-x="450" 
d="M395 202l-39.0029 -40l-57 58c-12 -8.66699 -26 -15.834 -42 -21.501s-32.333 -8.5 -49 -8.5c-15.333 0 -31.333 2.66699 -48 8s-31 12.666 -43 21.999l-58 -58l-39 40l58 57c-9.33301 12.667 -16.666 27 -21.999 43s-8 32 -8 48c0 17.333 2.83301 34 8.5 50
s12.834 29.667 21.501 41l-58 58l39 39l58 -58c10 8.66699 23.833 15.834 41.5 21.501s34.167 8.5 49.5 8.5s31 -2.66699 47 -8s30.667 -12.666 44 -21.999l57 58l39 -39l-57 -58c10 -13.333 17.5 -28 22.5 -44s7.5 -31.667 7.5 -47s-2.66699 -31 -8 -47
s-12.666 -30.667 -21.999 -44zM316.997 350c0 14.667 -2.83301 28.501 -8.5 41.501s-13.5 24.5 -23.5 34.5s-21.667 17.833 -35 23.5s-27.333 8.5 -42 8.5c-15.333 0 -29.5 -2.83301 -42.5 -8.5s-24.5 -13.334 -34.5 -23.001s-17.833 -21.167 -23.5 -34.5
s-8.5 -27.333 -8.5 -42c0 -14 3 -28 9 -42s13.667 -25.667 23 -35c10 -9.33301 21.5 -16.833 34.5 -22.5s27.167 -8.5 42.5 -8.5c14.667 0 28.667 2.83301 42 8.5s25 13.5 35 23.5s17.833 21.5 23.5 34.5s8.5 26.833 8.5 41.5z" />
    <glyph glyph-name="yen" unicode="&#xa5;" horiz-adv-x="612" 
d="M557 649c0 -6 -3 -10.667 -9 -14s-13 -6.33301 -21 -9s-15.833 -5.66699 -23.5 -9s-13.167 -8.33301 -16.5 -15l-122 -228h68c13.333 0 20 -6.33301 20 -19c0 -13.333 -6.66699 -20 -20 -20h-88l-3 -6c-2.66699 -4.66699 -4.83398 -9.16699 -6.50098 -13.5
s-2.83398 -8.16602 -3.50098 -11.499h101c13.333 0 20 -6.33301 20 -19c0 -13.333 -6.66699 -20 -20 -20h-101v-201c0 -6.66699 3 -11.834 9 -15.501s12.833 -7 20.5 -10s14.5 -6.16699 20.5 -9.5s9 -8 9 -14c0 -10 -6.66699 -15 -20 -15h-156c-12.667 0 -19 5 -19 15
c0 6 3 10.667 9 14s12.667 6.5 20 9.5s14 6.33301 20 10s9 8.5 9 14.5v202h-94c-13.333 0 -20 6.66699 -20 20c0.666992 12.667 7.33398 19 20.001 19h93c-0.666992 3.33301 -1.5 7.16602 -2.5 11.499s-3.16699 9.16602 -6.5 14.499l-3 5h-81c-13.333 0 -20 6.66699 -20 20
c0.666992 12.667 7.33398 19 20.001 19h59l-130 228c-3.33301 6 -8.83301 10.667 -16.5 14s-15.334 6.5 -23.001 9.5s-14.5 6.16699 -20.5 9.5s-9 8 -9 14c0 10 6.66699 15 20 15h165c13.333 0 20 -5 20 -15c0 -4.66699 -2.66699 -8.16699 -8 -10.5
s-12.666 -5.16602 -21.999 -8.49902l-14 -5c-4.66699 -0.666992 -7 -3.66699 -7 -9c0 -3.33301 1 -7 3 -11l120 -217c3.33301 -5.33301 6.33301 -8 9 -8c2 0 4.66699 2.66699 8 8l116 217c2 4 3 7.33301 3 10c0 4 -2.66699 6 -8 6l-15 4
c-10 2.66699 -17.333 6.33398 -22 11.001s-7 9 -7 13c0 10 6.66699 15 20 15h136c13.333 0 20 -5 20 -15z" />
    <glyph glyph-name="brokenbar" unicode="&#xa6;" horiz-adv-x="134" 
d="M79 415h-59v308h59v-308zM79 0h-59v308h59v-308z" />
    <glyph glyph-name="section" unicode="&#xa7;" horiz-adv-x="404" 
d="M349 -14c0 -31.333 -5.00098 -58.6621 -15.001 -81.9951s-23.5 -43 -40.5 -59s-36.5 -28 -58.5 -36s-45.333 -12 -70 -12h-8c-10 0 -22.167 0.666992 -36.5 2s-28.166 3.33301 -41.499 6s-24.833 5.66699 -34.5 9s-14.5 7 -14.5 11v95h25
c0.666992 -12.667 4.33398 -24.334 11.001 -35.001s15 -19.834 25 -27.501s21.5 -13.834 34.5 -18.501s26.167 -7.33398 39.5 -8.00098c38 2 68.333 13.5 91 34.5s34 47.5 34 79.5c0 39.333 -51.333 84.333 -154 135c-40 19.333 -68.667 41.166 -86 65.499
s-26 53.5 -26 87.5c0 42.667 11.5 77.834 34.5 105.501s53.833 44.5 92.5 50.5l-20 9c-38.667 17.333 -66.834 38.166 -84.501 62.499s-26.5 54.833 -26.5 91.5c0 22.667 3.66699 43.667 11 63s17.666 36 30.999 50s29.833 25 49.5 33s41.5 12 65.5 12h2
c9.33301 0 21.166 -0.833008 35.499 -2.5s28.333 -3.66699 42 -6s25.334 -5.16602 35.001 -8.49902s14.5 -7 14.5 -11v-95h-25c-1.33301 14 -5.66602 26.5 -12.999 37.5s-16.5 20.333 -27.5 28s-22.833 13.5 -35.5 17.5s-24.667 6 -36 6h-7
c-26 0 -46.5 -7.16699 -61.5 -21.5s-22.5 -33.5 -22.5 -57.5c0 -43.333 46.667 -87 140 -131c26 -12 47.167 -24.167 63.5 -36.5s29.333 -25 39 -38s16.167 -26.667 19.5 -41s5 -29.833 5 -46.5c0 -38 -7.83301 -71.667 -23.5 -101s-40.5 -52 -74.5 -68
c38 -19.333 64.5 -40.333 79.5 -63s22.5 -51.334 22.5 -86.001zM284.999 269.004l-2.00098 13.002c-3.33301 8 -8.33301 16.333 -15 25s-15 16.834 -25 24.501s-21.5 14 -34.5 19s-27.167 7.5 -42.5 7.5c-25.333 0 -45.666 -7.33301 -60.999 -22s-23 -33.667 -23 -57
c0 -40.667 40.333 -81.334 121 -122.001c25.333 7.33301 45.5 20.666 60.5 39.999s22.5 41.666 22.5 66.999z" />
    <glyph glyph-name="dieresis" unicode="&#xa8;" horiz-adv-x="251" 
d="M196 587c0 -20.667 -11.667 -31 -35 -31s-35 10.333 -35 31s11.667 31 35 31s35 -10.333 35 -31zM90 587c0 -20.667 -11.667 -31 -35 -31s-35 10.333 -35 31s11.667 31 35 31s35 -10.333 35 -31z" />
    <glyph glyph-name="copyright" unicode="&#xa9;" horiz-adv-x="801" 
d="M746 351c0 -48 -9.33594 -93.832 -28.0029 -137.499s-44.5 -82.334 -77.5 -116.001s-71.667 -60.334 -116 -80.001s-92.166 -29.5 -143.499 -29.5c-49.333 0 -95.833 9.66699 -139.5 29s-82 45.666 -115 78.999s-59 71.833 -78 115.5s-28.5 90.167 -28.5 139.5
c0 47.333 9.16699 92.833 27.5 136.5s43.833 82.334 76.5 116.001s71.167 60.5 115.5 80.5s92.5 30 144.5 30c46.667 0 91.834 -9 135.501 -27s82.334 -43.167 116.001 -75.5s60.5 -70.666 80.5 -114.999s30 -92.833 30 -145.5zM709.997 351.001
c0 48.667 -9.33203 93.168 -27.999 133.501s-43.334 74.833 -74.001 103.5s-65.5 51 -104.5 67s-78.833 24 -119.5 24c-44 0 -85 -7.33301 -123 -22s-75 -39.334 -111 -74.001c-28 -26 -50.833 -59.5 -68.5 -100.5s-26.5 -84.833 -26.5 -131.5c0 -46 9 -89 27 -129
s42 -74.833 72 -104.5s64.667 -52.834 104 -69.501s80.333 -25 123 -25c45.333 0 88 8.66699 128 26s74.833 41 104.5 71s53.167 64.833 70.5 104.5s26 81.834 26 126.501zM506.998 132.002c-36.667 -18.667 -76.333 -27.998 -119 -27.998
c-68.667 0 -120.834 19.833 -156.501 59.5s-53.5 101.834 -53.5 186.501c0 84 17.833 146 53.5 186s87.834 60 156.501 60c42 0 81.667 -9.66699 119 -29v-64c0 -14 -3.33301 -21 -10 -21c-2.66699 0 -5.66699 1.66699 -9 5s-6.33301 8.66602 -9 15.999l-7 21
c-8 12 -18.833 21.5 -32.5 28.5s-31.5 9.83301 -53.5 8.5c-44 -2.66699 -79.667 -21.834 -107 -57.501s-41 -86.834 -41 -153.501c0 -68 14.333 -120.167 43 -156.5s65 -54.5 109 -54.5c21.333 0 38.5 3 51.5 9s23.167 15 30.5 27l7 21c4.66699 14.667 10.667 22 18 22
c6.66699 0 10 -7.33301 10 -22v-64z" />
    <glyph glyph-name="ordfeminine" unicode="&#xaa;" horiz-adv-x="349" 
d="M294 524c-2 -10.667 -10 -16.0029 -24 -16.0029c-26 0 -46 7 -60 21c-31.333 -14 -60.666 -21 -87.999 -21c-34 0 -59.5 8.5 -76.5 25.5s-25.5 38.5 -25.5 64.5c0 18.667 4.16699 34.667 12.5 48s19.666 24.333 33.999 33s31.333 14.834 51 18.501s41.167 5.5 64.5 5.5
h11c4.66699 0 7 3 7 9v22c0 44 -20 66 -60 66c-28.667 0 -53.334 -3.33301 -74.001 -10c-5.33301 0.666992 -9.66602 2 -12.999 4s-5 5.66699 -5 11c0 4.66699 1.5 8.33398 4.5 11.001s6.83301 5.33398 11.5 8.00098c16.667 8.66699 42 13 76 13
c42 0 72.833 -9.5 92.5 -28.5s29.5 -45.833 29.5 -80.5v-171c0 -4.66699 1.16699 -8 3.5 -10s5.5 -3.66699 9.5 -5l6 -2c8.66699 -2.66699 13 -8 13 -16zM200 663.997c0 5.33301 -2.33398 7.99902 -7.00098 7.99902c-43.333 -2 -73.166 -9 -89.499 -21s-24.5 -29 -24.5 -51
c0 -13.333 4.16699 -25.5 12.5 -36.5s24.833 -16.5 49.5 -16.5c8 0 16 0.5 24 1.5s16.667 2.16699 26 3.5c6 2.66699 9 6.33398 9 11.001v101z" />
    <glyph glyph-name="guillemotleft" unicode="&#xab;" horiz-adv-x="589" 
d="M534 540c0 -2.66699 -1 -6 -3 -10l-181 -245l-2 -10c0 -4.66699 1 -9 3 -13l178 -244c2.66699 -4.66699 4 -8.66699 4 -12c0 -4 -2.66699 -6 -8 -6h-50c-11.333 -0 -21.333 3.33301 -30 10l-210 254c-3.33301 5.33301 -5 9 -5 11c0 4 1.33301 7.33301 4 10l217 252
c4.66699 6 12.667 9 24 9l50 1c6 0 9 -2.33301 9 -7zM325 540c0 -2.66699 -1 -5.99805 -3 -9.99805l-180 -245c-2.66699 -2.66699 -4 -6.66699 -4 -12c0 -4.66699 1.33301 -8.33398 4 -11.001l178 -244c2.66699 -4.66699 4 -8.66699 4 -12c0 -4 -2.66699 -6 -8 -6h-50
c-9.33301 0 -19.333 3.33301 -30 10l-210 254c-4 4 -6 7.66699 -6 11s1.66699 6.66602 5 9.99902l216 252c4.66699 6 13 9 25 9l50 1c6 0 9 -2.33301 9 -7z" />
    <glyph glyph-name="logicalnot" unicode="&#xac;" horiz-adv-x="485" 
d="M430 134h-48v192h-362v49h410v-241z" />
    <glyph glyph-name="uni00AD" unicode="&#xad;" 
 />
    <glyph glyph-name="registered" unicode="&#xae;" horiz-adv-x="801" 
d="M746 351c0 -48 -9.33594 -93.832 -28.0029 -137.499s-44.5 -82.334 -77.5 -116.001s-71.667 -60.334 -116 -80.001s-92.166 -29.5 -143.499 -29.5c-49.333 0 -95.833 9.66699 -139.5 29s-82 45.666 -115 78.999s-59 71.833 -78 115.5s-28.5 90.167 -28.5 139.5
c0 47.333 9.16699 92.833 27.5 136.5s43.833 82.334 76.5 116.001s71.167 60.5 115.5 80.5s92.5 30 144.5 30c46.667 0 91.834 -9 135.501 -27s82.334 -43.167 116.001 -75.5s60.5 -70.666 80.5 -114.999s30 -92.833 30 -145.5zM709.997 351.001
c0 48.667 -9.33203 93.168 -27.999 133.501s-43.334 74.833 -74.001 103.5s-65.5 51 -104.5 67s-78.833 24 -119.5 24c-44 0 -85 -7.33301 -123 -22s-75 -39.334 -111 -74.001c-28 -26 -50.833 -59.5 -68.5 -100.5s-26.5 -84.833 -26.5 -131.5c0 -46 9 -89 27 -129
s42 -74.833 72 -104.5s64.667 -52.834 104 -69.501s80.333 -25 123 -25c45.333 0 88 8.66699 128 26s74.833 41 104.5 71s53.167 64.833 70.5 104.5s26 81.834 26 126.501zM564.998 115.002c0 -7.33301 -5.33398 -10.999 -16.001 -10.999h-44
c-9.33301 0 -16.666 4.66699 -21.999 14l-116 196c-5.33301 8 -12 12 -20 12h-21c-10 0 -15 -4.33301 -15 -13v-162c0 -10 7.33301 -16 22 -18c14.667 -4.66699 22 -10.667 22 -18s-4.66699 -11 -14 -11h-116c-9.33301 0 -14 3.66699 -14 11
c0 4.66699 2.16699 8.16699 6.5 10.5s9.33301 4.5 15 6.5s10.667 4.33301 15 7s6.5 6.66699 6.5 12v398c0 4 -2.16699 7.33301 -6.5 10s-9.33301 5.16699 -15 7.5s-10.667 4.83301 -15 7.5s-6.5 6 -6.5 10c0 7.33301 4.66699 11 14 11h151c50 0 89.167 -11 117.5 -33
s42.5 -55 42.5 -99c0 -18 -3.66699 -34.833 -11 -50.5s-16.5 -29.167 -27.5 -40.5s-23 -20.333 -36 -27s-25.5 -10 -37.5 -10c-5.33301 -2 -8 -4.66699 -8 -8c0 -2.66699 1 -5.33398 3 -8.00098l103 -172c2.66699 -4.66699 6.5 -8.16699 11.5 -10.5l14.5 -6.5
c4.66699 -2 8.66699 -4 12 -6s5 -5 5 -9zM477.997 461.003c0 62.667 -37 95 -111 97l-38 1h-3c-10 0 -15 -4.33301 -15 -13v-170c0 -8.66699 4.66699 -13 14 -13h42c74 0 111 32.667 111 98z" />
    <glyph glyph-name="macron" unicode="&#xaf;" horiz-adv-x="327" 
d="M272 583h-252v62h252v-62z" />
    <glyph glyph-name="degree" unicode="&#xb0;" horiz-adv-x="320" 
d="M265 579c0 -14 -2.83105 -28.332 -8.49805 -42.999s-13.834 -27.834 -24.501 -39.501s-23.667 -21.167 -39 -28.5s-32.333 -11 -51 -11s-35.5 3.5 -50.5 10.5s-27.833 16.167 -38.5 27.5s-18.834 24.333 -24.501 39s-8.5 29.667 -8.5 45c0 16 3 31.333 9 46
s14.333 27.667 25 39s23.5 20.333 38.5 27s31.833 10 50.5 10c18 0 34.5 -3.66699 49.5 -11s27.833 -16.666 38.5 -27.999s19 -24.333 25 -39s9 -29.334 9 -44.001zM213.002 579.001c0 12 -2.33301 22.5 -7 31.5s-10.5 16.333 -17.5 22s-14.667 10 -23 13
s-15.833 4.5 -22.5 4.5c-8 0 -16.333 -1.5 -25 -4.5s-16.5 -7.5 -23.5 -13.5s-12.667 -13.5 -17 -22.5s-6.5 -19.167 -6.5 -30.5c0 -21.333 7.5 -38.5 22.5 -51.5s31.5 -19.5 49.5 -19.5c8 0 16.167 1.66699 24.5 5s15.833 8.16602 22.5 14.499s12.167 13.833 16.5 22.5
s6.5 18.334 6.5 29.001z" />
    <glyph glyph-name="plusminus" unicode="&#xb1;" horiz-adv-x="459" 
d="M398 311c-5.33301 -4 -11.667 -6.00098 -19 -6.00098l-143 3l3 -150c0 -8 -2 -14 -6 -18s-9.83301 -5.83301 -17.5 -5.5s-13.5 2.5 -17.5 6.5c-4.66699 4.66699 -7 11 -7 19l-3 148l-144 2c-8 0.666992 -13.667 2.66699 -17 6c-4.66699 4.66699 -7 11.334 -7 20.001
c0 7.33301 2 13 6 17c4.66699 4 10.667 6 18 6l143 -2l-3 137c0 8.66699 2 14.667 6 18c4 4 9.83301 5.83301 17.5 5.5s13.834 -2.5 18.501 -6.5c4 -5.33301 6 -11.333 6 -18l3 -138l143 -2c3.33301 0 6.66602 -0.166992 9.99902 -0.5s6.33301 -1.83301 9 -4.5
c4 -4 6.16699 -10 6.5 -18s-1.5 -14.333 -5.5 -19zM401.999 74.999c0 -8 -2.49902 -14 -7.49902 -18s-10.833 -6 -17.5 -6h-321c-17.333 0 -25.333 8 -24 24c1.33301 15.333 9.66602 23 24.999 23h320c16.667 0 25 -7.66699 25 -23z" />
    <glyph glyph-name="twosuperior" unicode="&#xb2;" horiz-adv-x="308" 
d="M244 530c-1.33301 -6 -3.49805 -10.999 -6.49805 -14.999s-7.5 -6 -13.5 -6h-187c-11.333 0 -17 5.33301 -17 16v20c1.33301 10 7.33301 19.333 18 28l107 92c21.333 18 32 41.667 32 71c-0.666992 19.333 -6 32.833 -16 40.5s-26.333 11.5 -49 11.5
c-18.667 0 -41 -3 -67 -9c-0.666992 -0.666992 -3 -1 -7 -1c-8 0 -14 4.33301 -18 13c0 12.667 5 20 15 22c32.667 16 64 24 94 24c38 0 66.167 -9 84.5 -27s27.166 -40.333 26.499 -67c0 -22 -7.16699 -42.667 -21.5 -62s-33.833 -39.333 -58.5 -60l-71 -60h107
c2.66699 0 5.5 2.16699 8.5 6.5s5.16699 7.16602 6.5 8.49902c3.33301 5.33301 7.16602 9.83301 11.499 13.5s8.83301 5.5 13.5 5.5c11.333 0 17 -5.33301 17 -16z" />
    <glyph glyph-name="threesuperior" unicode="&#xb3;" horiz-adv-x="311" 
d="M256 549c0 -34 -10.999 -62.3311 -32.999 -84.998s-54 -34 -96 -34c-6 0 -15 1 -27 3s-24 4.83301 -36 8.5s-22.333 8.33398 -31 14.001s-13 12.167 -13 19.5c2.66699 10 9.66699 15 21 15c16.667 -5.33301 31.5 -8.83301 44.5 -10.5s25.167 -2.5 36.5 -2.5
c49.333 0 74 26.333 74 79c0 19.333 -5.5 33.833 -16.5 43.5s-25.5 14.5 -43.5 14.5h-29c-11.333 0 -17 6.33301 -17 19v10c0 10.667 5.66699 16 17 16h29c18.667 0 32 4.66699 40 14s12 22.666 12 39.999c0 19.333 -5.83301 36.5 -17.5 51.5s-29.834 22.5 -54.501 22.5
c-18 0 -40 -5 -66 -15c-11.333 0 -18.333 5.33301 -21 16c0 6.66699 4 12.667 12 18s17.167 10 27.5 14s20.833 7 31.5 9s19 3 25 3c19.333 0 36.5 -3.33301 51.5 -10s27.5 -15.5 37.5 -26.5s17.667 -23.833 23 -38.5s8 -30.334 8 -47.001
c0 -34.667 -11 -59.334 -33 -74.001c29.333 -15.333 44 -44.333 44 -87z" />
    <glyph glyph-name="acute" unicode="&#xb4;" horiz-adv-x="249" 
d="M194 648c0 -11.333 -7.66699 -21.667 -23 -31l-125 -77h-26l110 113c9.33301 9.33301 16.333 15.333 21 18s9.66699 4 15 4c8.66699 0 15.5 -2.5 20.5 -7.5s7.5 -11.5 7.5 -19.5z" />
    <glyph glyph-name="mu" unicode="&#xb5;" horiz-adv-x="631" 
d="M576 30c0 -5.33301 -2.99805 -10.1758 -8.99805 -14.5088s-13.333 -8 -22 -11s-17.334 -5.33301 -26.001 -7s-15.667 -2.5 -21 -2.5l-34 1c-16 0 -24 8 -24 24v48c-52 -46 -102 -69 -150 -69c-24.667 0 -46.334 4 -65.001 12v-32c0 -58.667 -15.167 -101 -45.5 -127
s-76.833 -39 -139.5 -39c-13.333 0 -20 6.66699 -20 20c0 12.667 6.66699 19 20 19c36 0 62.833 9.66699 80.5 29s26.5 52 26.5 98v441c0 7.33301 -3 12 -9 14s-12.833 3.33301 -20.5 4s-14.5 1.83398 -20.5 3.50098s-9 5.83398 -9 12.501
c0 4.66699 2.83301 9.16699 8.5 13.5s12.834 8 21.501 11s18.167 5.33301 28.5 7s20.166 2.5 29.499 2.5h29c13.333 0 20 -6.33301 20 -19v-303c0 -13.333 2 -26.666 6 -39.999s10 -25.166 18 -35.499s17.833 -18.666 29.5 -24.999s25.167 -9.5 40.5 -9.5
c32.667 0 73 17 121 51v313c0 7.33301 -3 12 -9 14s-12.833 3.33301 -20.5 4s-14.5 1.83398 -20.5 3.50098s-9 5.83398 -9 12.501c0 9.33301 9.5 17.333 28.5 24s48.5 10 88.5 10c12.667 0 19 -6.33301 19 -19v-406c0 -7.33301 3 -12.166 9 -14.499s12.833 -4 20.5 -5
s14.5 -2.16699 20.5 -3.5s9 -4.66602 9 -9.99902z" />
    <glyph glyph-name="paragraph" unicode="&#xb6;" horiz-adv-x="483" 
d="M428 667h-62.002v-667h-40v667h-81v-667h-41v360c-60.667 3.33301 -106.5 20.5 -137.5 51.5s-46.5 70.5 -46.5 118.5c0 26 4.66699 49.5 14 70.5s22.333 39 39 54s36.834 26.5 60.501 34.5s49.834 12 78.501 12h216v-34z" />
    <glyph glyph-name="periodcentered" unicode="&#xb7;" horiz-adv-x="173" 
d="M118 342c0 -26 -16.333 -39 -49 -39s-49 13 -49 39s16.333 39 49 39c15.333 0 27.333 -3.5 36 -10.5s13 -16.5 13 -28.5z" />
    <glyph glyph-name="cedilla" unicode="&#xb8;" horiz-adv-x="274" 
d="M219 -124c0 -24.667 -9.33105 -44.166 -27.998 -58.499s-45 -21.5 -79 -21.5c-40.667 0 -71.334 5.33301 -92.001 16v46c26.667 -16.667 51.334 -25 74.001 -25c21.333 0 36.666 3.5 45.999 10.5s14 17.833 14 32.5c0 13.333 -6.83301 23.166 -20.5 29.499
s-31.167 9.5 -52.5 9.5h-9c-4.66699 0 -7.33398 -0.333008 -8.00098 -1l23 86h31l-18 -51c10 2 20 3 30 3c28.667 0 50.667 -6.66699 66 -20s23 -32 23 -56z" />
    <glyph glyph-name="onesuperior" unicode="&#xb9;" horiz-adv-x="214" 
d="M159 522c0 -4.66699 -1.66602 -8 -4.99902 -10s-7.33301 -3 -12 -3h-93c-4.66699 0 -8.66699 1 -12 3s-5 5.33301 -5 10c0 5.33301 2.16699 9.5 6.5 12.5s8.83301 5.83301 13.5 8.5l10 6c3.33301 2 5 4.66699 5 8v226c0 2.66699 -4.33301 4 -13 4h-11
c-15.333 0 -23 4.33301 -23 13c0 5.33301 2.16699 9.5 6.5 12.5s9.5 5.16699 15.5 6.5l64 17c12 0 18 -5.33301 18 -16v-264c0 -3.33301 1.66699 -5.83301 5 -7.5s6.66602 -3.5 9.99902 -5.5c5.33301 -3.33301 10 -6.5 14 -9.5s6 -6.83301 6 -11.5z" />
    <glyph glyph-name="ordmasculine" unicode="&#xba;" horiz-adv-x="362" 
d="M307 668c0 -48 -12.5029 -86.832 -37.5029 -116.499s-60.5 -44.5 -106.5 -44.5c-21.333 0 -40.666 4 -57.999 12s-32.333 19 -45 33s-22.5 30.833 -29.5 50.5s-10.5 41.5 -10.5 65.5c0 38 7.5 71 22.5 99s36.5 47.667 64.5 59c17.333 7.33301 36 11 56 11
c20.667 0 39.834 -3.83301 57.501 -11.5s32.834 -18.834 45.501 -33.501s22.667 -32.5 30 -53.5s11 -44.5 11 -70.5zM243.997 666.001c0 40 -6.33203 71.5 -18.999 94.5s-33 34.5 -61 34.5c-10 0 -21 -2.66699 -33 -8c-16.667 -7.33301 -28.834 -21.5 -36.501 -42.5
s-11.5 -46.5 -11.5 -76.5c0 -34 6.33301 -62 19 -84s33 -33 61 -33c26 0 46 10.167 60 30.5s21 48.5 21 84.5z" />
    <glyph glyph-name="guillemotright" unicode="&#xbb;" horiz-adv-x="589" 
d="M534 275c0 -2 -1.66699 -5.66699 -5 -11l-210 -254c-8.66699 -6.66699 -18.667 -10 -30 -10h-50c-6 0 -9 2 -9 6c0 2.66699 1.66699 6.66699 5 12l178 244c2.66699 2.66699 4 6.66699 4 12c0 3.33301 -1 7 -3 11l-181 245c-2 4 -3 7.33301 -3 10c0 4.66699 3 7 9 7l50 -1
c10.667 0 19 -3 25 -9l216 -252c2.66699 -2.66699 4 -6 4 -10zM325 275c0 -2 -1.66699 -5.66699 -5 -11l-210 -254c-10.667 -6.66699 -20.667 -10 -30 -10h-50c-6 0 -9 2 -9 6c0 2.66699 1.66699 6.66699 5 12l178 244c2 4 3 8 3 12c0 3.33301 -1 7 -3 11l-180 245
c-2.66699 4.66699 -4 8 -4 10c0 4.66699 3.33301 7 10 7l50 -1c10.667 0 18.667 -3 24 -9l217 -252c2.66699 -2.66699 4 -6 4 -10z" />
    <glyph glyph-name="onequarter" unicode="&#xbc;" horiz-adv-x="629" 
d="M550 663l-475 -664h-55l478 664h52zM177 350c0 -4.66699 -1.66602 -7.99805 -4.99902 -9.99805s-7.33301 -3 -12 -3h-93c-4.66699 0 -8.66699 1 -12 3s-5 5.33301 -5 10c0 6 2.16699 10.5 6.5 13.5s8.83301 5.83301 13.5 8.5l10 6c3.33301 2 5 4.66699 5 8v230
c0 2.66699 -4.33301 4 -13 4h-11c-15.333 0 -23 4.33301 -23 13c0 5.33301 2.16699 9.66602 6.5 12.999s9.5 5.66602 15.5 6.99902l64 17c12 0 18 -5.66699 18 -17v-268c0 -3.33301 1.66699 -5.83301 5 -7.5s6.66602 -3.5 9.99902 -5.5c5.33301 -3.33301 10 -6.5 14 -9.5
s6 -7.16699 6 -12.5zM574.001 47.002c0 -10 -5.66602 -15.001 -16.999 -15.001l-35 -1c-4.66699 -0.666992 -7 -2.66699 -7 -6v-79c0 -10.667 -5.66699 -16 -17 -16h-23c-11.333 0 -17 5.33301 -17 16v79c0 4 -2 6 -6 6h-153c-10.667 0 -16.334 5.33301 -17.001 16v15
c0 8.66699 2.33301 16.334 7 23.001l158 230l6 8c4.66699 6.66699 12 10 22 10h23c11.333 0 17 -5.33301 17 -16v-232c0 -4.66699 2.33301 -7 7 -7h35c11.333 0 17 -5.33301 17 -16v-15zM458.002 259.001l-120.999 -182v-1c0 -0.666992 0.166992 -0.5 0.5 0.5
s1.16602 1.5 2.49902 1.5h112c4 0 6 2.33301 6 7v174z" />
    <glyph glyph-name="onehalf" unicode="&#xbd;" horiz-adv-x="660" 
d="M596 21c-1.33301 -6 -3.49805 -10.999 -6.49805 -14.999s-7.5 -6 -13.5 -6h-187c-11.333 0 -17 5.66699 -17 17v20c1.33301 10 7.33301 19.333 18 28l107 93c21.333 19.333 32 43.333 32 72c-0.666992 19.333 -6 33 -16 41s-26.333 12 -49 12c-18.667 0 -41 -3 -67 -9
c-0.666992 -0.666992 -3 -1 -7 -1c-8 0 -14 4.66699 -18 14c0 11.333 5 18.666 15 21.999c32.667 16 64 24 94 24c38 0 66.167 -9 84.5 -27s27.166 -41 26.499 -69c0 -22 -7.16699 -42.667 -21.5 -62s-33.833 -39.666 -58.5 -60.999l-71 -61h107
c2.66699 0 5.5 2.16699 8.5 6.5s5.16699 7.16602 6.5 8.49902c3.33301 5.33301 7.16602 10 11.499 14s8.83301 6 13.5 6c11.333 0 17 -5.66699 17 -17zM550.002 663.001l-475 -664h-55l478 664h52zM177.002 351.001c0 -4.66699 -1.66602 -7.99902 -4.99902 -9.99902
s-7.33301 -3 -12 -3h-93c-4.66699 0 -8.66699 1 -12 3s-5 5.33301 -5 10c0 5.33301 2.16699 9.66602 6.5 12.999s8.83301 6 13.5 8l10 6c3.33301 2 5 4.66699 5 8v230c0 2.66699 -4.33301 4 -13 4h-11c-15.333 0 -23 4.66699 -23 14c0 5.33301 2.16699 9.5 6.5 12.5
s9.5 5.16699 15.5 6.5l64 17c12 0 18 -5.66699 18 -17v-268c0 -3.33301 1.66699 -5.83301 5 -7.5s6.66602 -3.5 9.99902 -5.5c5.33301 -2.66699 10 -5.66699 14 -9s6 -7.33301 6 -12z" />
    <glyph glyph-name="threequarters" unicode="&#xbe;" horiz-adv-x="707" 
d="M632 663l-475 -664h-55l478 664h52zM652 47c0 -10 -5.66699 -15.001 -17 -15.001l-35 -1c-4.66699 -0.666992 -7 -2.66699 -7 -6v-79c0 -10.667 -5.66699 -16 -17 -16h-23c-11.333 0 -17 5.33301 -17 16v79c0 4 -2 6 -6 6h-153c-11.333 0 -17 5.33301 -17 16v15
c0 8.66699 2.33301 16.334 7 23.001l158 230l6 8c4.66699 6.66699 12 10 22 10h23c11.333 0 17 -5.33301 17 -16v-232c0 -4.66699 2.33301 -7 7 -7h35c11.333 0 17 -5.33301 17 -16v-15zM256 381.999c0 -34.667 -10.999 -63.333 -32.999 -86s-54 -34 -96 -34
c-6 0 -15 1 -27 3s-24 4.83301 -36 8.5s-22.333 8.33398 -31 14.001s-13 12.167 -13 19.5c2.66699 10.667 9.66699 16 21 16c16.667 -5.33301 31.5 -9 44.5 -11s25.167 -3 36.5 -3c49.333 0 74 26.667 74 80c0 19.333 -5.5 34 -16.5 44s-25.5 15 -43.5 15h-29
c-11.333 0 -17 6.33301 -17 19v10c0 10.667 5.66699 16 17 16h29c18.667 0 32 4.83301 40 14.5s12 23.167 12 40.5c0 19.333 -5.83301 36.666 -17.5 51.999s-29.834 23 -54.501 23c-18 0 -40 -5 -66 -15c-11.333 0 -18.333 5.33301 -21 16c0 6.66699 4 12.667 12 18
s17.167 10 27.5 14s20.833 7 31.5 9s19 3 25 3c19.333 0 36.5 -3.33301 51.5 -10s27.5 -15.667 37.5 -27s17.667 -24.333 23 -39s8 -30.334 8 -47.001c0 -35.333 -11 -60.333 -33 -75c29.333 -15.333 44 -44.666 44 -87.999zM536.001 260l-120.999 -183v-1
c0 -0.666992 0.166992 -0.5 0.5 0.5s1.16602 1.5 2.49902 1.5h112c4 0 6 2.33301 6 7v175z" />
    <glyph glyph-name="questiondown" unicode="&#xbf;" horiz-adv-x="434" 
d="M230 687c0 -12 -3.66699 -21.5 -11 -28.5s-18.333 -10.5 -33 -10.5c-29.333 0 -44 13 -44 39s14.667 39 44 39s44 -13 44 -39zM379 194c0 -26.667 -3.66797 -51.5 -11.001 -74.5s-18.833 -43.167 -34.5 -60.5s-35.667 -31 -60 -41s-53.5 -15 -87.5 -15
c-9.33301 0 -23.333 1.5 -42 4.5s-37.167 7.16699 -55.5 12.5s-34.333 12 -48 20s-20.5 17 -20.5 27c2 10 7.33301 15 16 15c4.66699 0 7.33398 -0.333008 8.00098 -1c22.667 -7.33301 43.667 -12.5 63 -15.5s37 -4.5 53 -4.5c44 0 77.167 12.333 99.5 37s33.5 59 33.5 103
c0 57.333 -22.667 103.666 -68 138.999c-46 36 -69 80 -69 132l1 136h58l1 -135c0 -36 19.333 -67 58 -93c32 -21.333 57.5 -47.666 76.5 -78.999s28.5 -67 28.5 -107z" />
    <glyph glyph-name="Agrave" unicode="&#xc0;" horiz-adv-x="640" 
d="M384 700l-26 0.000976562l-125 77c-15.333 9.33301 -23 19.666 -23 30.999c0 8 2.5 14.5 7.5 19.5s11.833 7.5 20.5 7.5c5.33301 0 10.333 -1.33301 15 -4s11.667 -8.66699 21 -18zM605 15.001c0 -10 -6.33301 -14.999 -19 -14.999h-155c-14 0 -21 5 -21 15
c0 4.66699 2.83301 8.66699 8.5 12s11.667 6.5 18 9.5s12.333 6 18 9s8.5 6.5 8.5 10.5c0 3.33301 -0.333008 5.33301 -1 6l-35 115c-4 12 -12 18 -24 18h-218c-16.667 0 -26.334 -6 -29.001 -18l-31 -114c-0.666992 -0.666992 -1 -2.66699 -1 -6
c0 -0.666992 -0.333008 -1.33398 -1 -2.00098c0 -4 2.83301 -7.33301 8.5 -10s11.667 -5.33398 18 -8.00098s12.333 -5.66699 18 -9s8.5 -7.66602 8.5 -12.999c0 -10 -6.66699 -15 -20 -15h-137c-12.667 0 -19 5 -19 15c0 6 2.83301 10.5 8.5 13.5s12.334 6 20.001 9
s15 6.5 22 10.5s11.833 9.66699 14.5 17l192 588c4 13.333 13 20 27 20h38c12.667 0 21 -6 25 -18l194 -592c4 -12.667 15.667 -20.667 35 -24c19.333 -7.33301 29 -15.333 29 -24zM401 252.002c-0.666992 0 -1 0.666992 -1 2s-0.166992 2.5 -0.5 3.5s-0.5 2.5 -0.5 4.5
l-98 301c-2.66699 6.66699 -5 10 -7 10c-2.66699 0 -5 -3.33301 -7 -10l-102 -301c-1.33301 -6.66699 -2 -9.66699 -2 -9c0 -6 4.66699 -9 14 -9h195c6 0 9 2.66699 9 8z" />
    <glyph glyph-name="Aacute" unicode="&#xc1;" horiz-adv-x="640" 
d="M374 808c0 -11.333 -7.66699 -21.667 -23 -31l-125 -77h-26l110 113c9.33301 9.33301 16.333 15.333 21 18s9.66699 4 15 4c8.66699 0 15.5 -2.5 20.5 -7.5s7.5 -11.5 7.5 -19.5zM605 14.999c0 -10 -6.33301 -14.999 -19 -14.999h-155c-14 0 -21 5 -21 15
c0 4.66699 2.83301 8.66699 8.5 12s11.667 6.5 18 9.5s12.333 6 18 9s8.5 6.5 8.5 10.5c0 3.33301 -0.333008 5.33301 -1 6l-35 115c-4 12 -12 18 -24 18h-218c-16.667 0 -26.334 -6 -29.001 -18l-31 -114c-0.666992 -0.666992 -1 -2.66699 -1 -6
c0 -0.666992 -0.333008 -1.33398 -1 -2.00098c0 -4 2.83301 -7.33301 8.5 -10s11.667 -5.33398 18 -8.00098s12.333 -5.66699 18 -9s8.5 -7.66602 8.5 -12.999c0 -10 -6.66699 -15 -20 -15h-137c-12.667 0 -19 5 -19 15c0 6 2.83301 10.5 8.5 13.5s12.334 6 20.001 9
s15 6.5 22 10.5s11.833 9.66699 14.5 17l192 588c4 13.333 13 20 27 20h38c12.667 0 21 -6 25 -18l194 -592c4 -12.667 15.667 -20.667 35 -24c19.333 -7.33301 29 -15.333 29 -24zM401 252c-0.666992 0 -1 0.666992 -1 2s-0.166992 2.5 -0.5 3.5s-0.5 2.5 -0.5 4.5l-98 301
c-2.66699 6.66699 -5 10 -7 10c-2.66699 0 -5 -3.33301 -7 -10l-102 -301c-1.33301 -6.66699 -2 -9.66699 -2 -9c0 -6 4.66699 -9 14 -9h195c6 0 9 2.66699 9 8z" />
    <glyph glyph-name="Acircumflex" unicode="&#xc2;" horiz-adv-x="640" 
d="M399 711h-19l-80 74l-80 -74h-19l79 122h40zM605 15c0 -10 -6.33301 -14.999 -19 -14.999h-155c-14 0 -21 5 -21 15c0 4.66699 2.83301 8.66699 8.5 12s11.667 6.5 18 9.5s12.333 6 18 9s8.5 6.5 8.5 10.5c0 3.33301 -0.333008 5.33301 -1 6l-35 115c-4 12 -12 18 -24 18
h-218c-16.667 0 -26.334 -6 -29.001 -18l-31 -114c-0.666992 -0.666992 -1 -2.66699 -1 -6c0 -0.666992 -0.333008 -1.33398 -1 -2.00098c0 -4 2.83301 -7.33301 8.5 -10s11.667 -5.33398 18 -8.00098s12.333 -5.66699 18 -9s8.5 -7.66602 8.5 -12.999
c0 -10 -6.66699 -15 -20 -15h-137c-12.667 0 -19 5 -19 15c0 6 2.83301 10.5 8.5 13.5s12.334 6 20.001 9s15 6.5 22 10.5s11.833 9.66699 14.5 17l192 588c4 13.333 13 20 27 20h38c12.667 0 21 -6 25 -18l194 -592c4 -12.667 15.667 -20.667 35 -24
c19.333 -7.33301 29 -15.333 29 -24zM401 252.001c-0.666992 0 -1 0.666992 -1 2s-0.166992 2.5 -0.5 3.5s-0.5 2.5 -0.5 4.5l-98 301c-2.66699 6.66699 -5 10 -7 10c-2.66699 0 -5 -3.33301 -7 -10l-102 -301c-1.33301 -6.66699 -2 -9.66699 -2 -9c0 -6 4.66699 -9 14 -9
h195c6 0 9 2.66699 9 8z" />
    <glyph glyph-name="Atilde" unicode="&#xc3;" horiz-adv-x="640" 
d="M444 750c-12.667 -14.667 -24.668 -24.5 -36.001 -29.5s-22.666 -7.5 -33.999 -7.5c-4.66699 0 -11.834 1.5 -21.501 4.5s-19.834 6.33301 -30.501 10s-20.834 7 -30.501 10s-16.834 4.5 -21.501 4.5c-10 0 -20.5 -3 -31.5 -9s-23.5 -16.667 -37.5 -32v46
c12.667 14 24.667 23.5 36 28.5s22.333 7.5 33 7.5c4.66699 0 11.834 -1.5 21.501 -4.5s19.834 -6.33301 30.501 -10s20.834 -7 30.501 -10s16.834 -4.5 21.501 -4.5c10 0 20.5 3 31.5 9s23.833 16.667 38.5 32v-45zM604.999 15c0 -10 -6.33301 -14.999 -19 -14.999h-155
c-14 0 -21 5 -21 15c0 4.66699 2.83301 8.66699 8.5 12s11.667 6.5 18 9.5s12.333 6 18 9s8.5 6.5 8.5 10.5c0 3.33301 -0.333008 5.33301 -1 6l-35 115c-4 12 -12 18 -24 18h-218c-16.667 0 -26.334 -6 -29.001 -18l-31 -114c-0.666992 -0.666992 -1 -2.66699 -1 -6
c0 -0.666992 -0.333008 -1.33398 -1 -2.00098c0 -4 2.83301 -7.33301 8.5 -10s11.667 -5.33398 18 -8.00098s12.333 -5.66699 18 -9s8.5 -7.66602 8.5 -12.999c0 -10 -6.66699 -15 -20 -15h-137c-12.667 0 -19 5 -19 15c0 6 2.83301 10.5 8.5 13.5s12.334 6 20.001 9
s15 6.5 22 10.5s11.833 9.66699 14.5 17l192 588c4 13.333 13 20 27 20h38c12.667 0 21 -6 25 -18l194 -592c4 -12.667 15.667 -20.667 35 -24c19.333 -7.33301 29 -15.333 29 -24zM400.999 252.001c-0.666992 0 -1 0.666992 -1 2s-0.166992 2.5 -0.5 3.5s-0.5 2.5 -0.5 4.5
l-98 301c-2.66699 6.66699 -5 10 -7 10c-2.66699 0 -5 -3.33301 -7 -10l-102 -301c-1.33301 -6.66699 -2 -9.66699 -2 -9c0 -6 4.66699 -9 14 -9h195c6 0 9 2.66699 9 8z" />
    <glyph glyph-name="Adieresis" unicode="&#xc4;" horiz-adv-x="640" 
d="M391 771c0 -20.667 -11.667 -31 -35 -31s-35 10.333 -35 31s11.667 31 35 31s35 -10.333 35 -31zM285 771c0 -20.667 -11.667 -31 -35 -31s-35 10.333 -35 31s11.667 31 35 31s35 -10.333 35 -31zM605 15c0 -10 -6.33301 -14.999 -19 -14.999h-155c-14 0 -21 5 -21 15
c0 4.66699 2.83301 8.66699 8.5 12s11.667 6.5 18 9.5s12.333 6 18 9s8.5 6.5 8.5 10.5c0 3.33301 -0.333008 5.33301 -1 6l-35 115c-4 12 -12 18 -24 18h-218c-16.667 0 -26.334 -6 -29.001 -18l-31 -114c-0.666992 -0.666992 -1 -2.66699 -1 -6
c0 -0.666992 -0.333008 -1.33398 -1 -2.00098c0 -4 2.83301 -7.33301 8.5 -10s11.667 -5.33398 18 -8.00098s12.333 -5.66699 18 -9s8.5 -7.66602 8.5 -12.999c0 -10 -6.66699 -15 -20 -15h-137c-12.667 0 -19 5 -19 15c0 6 2.83301 10.5 8.5 13.5s12.334 6 20.001 9
s15 6.5 22 10.5s11.833 9.66699 14.5 17l192 588c4 13.333 13 20 27 20h38c12.667 0 21 -6 25 -18l194 -592c4 -12.667 15.667 -20.667 35 -24c19.333 -7.33301 29 -15.333 29 -24zM401 252.001c-0.666992 0 -1 0.666992 -1 2s-0.166992 2.5 -0.5 3.5s-0.5 2.5 -0.5 4.5
l-98 301c-2.66699 6.66699 -5 10 -7 10c-2.66699 0 -5 -3.33301 -7 -10l-102 -301c-1.33301 -6.66699 -2 -9.66699 -2 -9c0 -6 4.66699 -9 14 -9h195c6 0 9 2.66699 9 8z" />
    <glyph glyph-name="Aring" unicode="&#xc5;" horiz-adv-x="640" 
d="M371 769c0 -19.333 -6.83105 -35.833 -20.498 -49.5s-30.167 -20.5 -49.5 -20.5c-20.667 0 -37.334 7.16699 -50.001 21.5s-19 30.5 -19 48.5c0 19.333 6.66699 35.666 20 48.999s29.666 20 48.999 20c21.333 0 38.333 -7.16699 51 -21.5s19 -30.166 19 -47.499z
M605.002 15c0 -10 -6.33301 -14.999 -19 -14.999h-155c-14 0 -21 5 -21 15c0 4.66699 2.83301 8.66699 8.5 12s11.667 6.5 18 9.5s12.333 6 18 9s8.5 6.5 8.5 10.5c0 3.33301 -0.333008 5.33301 -1 6l-35 115c-4 12 -12 18 -24 18h-218c-16.667 0 -26.334 -6 -29.001 -18
l-31 -114c-0.666992 -0.666992 -1 -2.66699 -1 -6c0 -0.666992 -0.333008 -1.33398 -1 -2.00098c0 -4 2.83301 -7.33301 8.5 -10s11.667 -5.33398 18 -8.00098s12.333 -5.66699 18 -9s8.5 -7.66602 8.5 -12.999c0 -10 -6.66699 -15 -20 -15h-137c-12.667 0 -19 5 -19 15
c0 6 2.83301 10.5 8.5 13.5s12.334 6 20.001 9s15 6.5 22 10.5s11.833 9.66699 14.5 17l192 588c4 13.333 13 20 27 20h38c12.667 0 21 -6 25 -18l194 -592c4 -12.667 15.667 -20.667 35 -24c19.333 -7.33301 29 -15.333 29 -24zM340.002 769.001
c0 9.33301 -3.66797 18.166 -11.001 26.499s-16.666 12.5 -27.999 12.5c-10 0 -19 -3.66699 -27 -11s-12 -16.666 -12 -27.999s3.66699 -20.666 11 -27.999s16.666 -11 27.999 -11c10.667 0 19.834 3.66699 27.501 11s11.5 16.666 11.5 27.999zM401.001 252.001
c-0.666992 0 -1 0.666992 -1 2s-0.166992 2.5 -0.5 3.5s-0.5 2.5 -0.5 4.5l-98 301c-2.66699 6.66699 -5 10 -7 10c-2.66699 0 -5 -3.33301 -7 -10l-102 -301c-1.33301 -6.66699 -2 -9.66699 -2 -9c0 -6 4.66699 -9 14 -9h195c6 0 9 2.66699 9 8z" />
    <glyph glyph-name="AE" unicode="&#xc6;" horiz-adv-x="954" 
d="M899 20c0 -13.333 -7.33203 -20.001 -21.999 -20.001h-450c-11.333 0 -17 3.33301 -17 10c0 6 3.5 11 10.5 15s14.833 7.66699 23.5 11s16.5 6.83301 23.5 10.5s10.5 8.83398 10.5 15.501l2 116c0 11.333 -6 17 -18 17h-218c-16.667 0 -28.334 -6 -35.001 -18l-67 -114
c-3.33301 -5.33301 -5 -9 -5 -11c0 -3.33301 2 -6 6 -8s8.5 -4 13.5 -6s9.66699 -4.5 14 -7.5s6.5 -6.83301 6.5 -11.5v-4c-3.33301 -10 -11.666 -15 -24.999 -15h-137c-10 0 -15 3 -15 9c0 7.33301 3.16699 12.833 9.5 16.5s14 7 23 10s18.167 6.66699 27.5 11
s16.666 10.5 21.999 18.5l381 578c8.66699 14 19.667 21 33 21h382c13.333 0 20 -6.66699 20 -20v-68c0 -12.667 -4.66699 -19 -14 -19c-6 0 -10.833 3 -14.5 9s-7 12.667 -10 20s-6.16699 14 -9.5 20s-8 9 -14 9h-261c-12 0 -18 -6 -18 -18v-216c0 -13.333 7 -20 21 -20
h112c6 0 10.833 3 14.5 9s7 12.833 10 20.5s6.33301 14.5 10 20.5s8.5 9 14.5 9c9.33301 0 14 -6.66699 14 -20v-124c0 -14.667 -4.66699 -22 -14 -22c-6 0 -10.833 3 -14.5 9s-7 12.833 -10 20.5s-6.33301 14.5 -10 20.5s-8.5 9 -14.5 9h-113
c-13.333 0 -20 -7.33301 -20 -22l1 -228v-6c3.33301 -5.33301 8.33301 -8 15 -8h261c6.66699 0 12 3 16 9s7.5 12.667 10.5 20s6.16699 14 9.5 20s8 9 14 9c9.33301 0 14 -6.33301 14 -19zM478.001 562.999c0 7.33301 -1.33301 11 -4 11c-2 0 -5.66699 -3.66699 -11 -11
l-198 -301c-3.33301 -5.33301 -5 -9 -5 -11c0 -4.66699 3.66699 -7 11 -7h196c8.66699 0 13 6 13 18z" />
    <glyph glyph-name="Ccedilla" unicode="&#xc7;" horiz-adv-x="524" 
d="M469 34c-53.333 -26 -107.664 -38.999 -162.997 -38.999h-14l-16 -46c10 2 20 3 30 3c28.667 0 50.667 -6.66699 66 -20s23 -32 23 -56c0 -24.667 -9.33301 -44.167 -28 -58.5s-45 -21.5 -79 -21.5c-40.667 0 -71.334 5.33301 -92.001 16v46
c26.667 -16.667 51.334 -25 74.001 -25c21.333 0 36.666 3.5 45.999 10.5s14 17.833 14 32.5c0 14 -7.33301 24 -22 30s-32 9 -52 9h-8c-4.66699 0 -7.33398 -0.333008 -8.00098 -1l22 83c-72.667 7.33301 -129.334 34.666 -170.001 81.999c-48 56.667 -72 141 -72 253
c0 114.667 23.667 199.5 71 254.5s119 82.5 215 82.5c58 0 112.333 -13.333 163 -40v-87c0 -19.333 -4.66699 -29 -14 -29c-10.667 0 -19 9.66699 -25 29l-10 29c-18.667 32.667 -53.667 49 -105 49c-30.667 0 -59 -6.16699 -85 -18.5s-48.667 -30.5 -68 -54.5
s-34.5 -54 -45.5 -90s-16.5 -77.667 -16.5 -125s5.5 -89 16.5 -125s26.167 -66 45.5 -90s42 -42.167 68 -54.5s54.333 -18.5 85 -18.5c51.333 0 86.333 16.333 105 49l10 29c6 19.333 14.333 29 25 29c9.33301 0 14 -9.66699 14 -29v-88z" />
    <glyph glyph-name="Egrave" unicode="&#xc8;" 
d="M384 700l-26 0.000976562l-125 77c-15.333 9.33301 -23 19.666 -23 30.999c0 8 2.5 14.5 7.5 19.5s11.833 7.5 20.5 7.5c5.33301 0 10.333 -1.33301 15 -4s11.667 -8.66699 21 -18zM498 21.001c0 -14 -7 -20.998 -21 -20.998h-436c-14 0 -21 5 -21 15c0 6 3 10.667 9 14
s12.667 6.33301 20 9s14 5.83398 20 9.50098s9 8.83398 9 15.501l1 537c0 7.33301 -3 12.666 -9 15.999s-12.833 6.16602 -20.5 8.49902s-14.5 5.16602 -20.5 8.49902s-9 8.66602 -9 15.999c0 10 6.33301 15 19 15h439c13.333 0 20 -6.66699 20 -20v-68
c0 -12.667 -5 -19 -15 -19c-6 0 -10.667 3 -14 9s-6.5 12.667 -9.5 20s-6.16699 14 -9.5 20s-8 9 -14 9h-261c-12.667 0 -19 -6 -19 -18v-216c0 -13.333 7 -20 21 -20h113c6 0 10.833 3 14.5 9s7 12.833 10 20.5s6.16699 14.5 9.5 20.5s8 9 14 9c10 0 15 -6.66699 15 -20
v-124c0 -14.667 -5 -22 -15 -22c-6 0 -10.667 3 -14 9s-6.5 12.833 -9.5 20.5s-6.33301 14.5 -10 20.5s-8.5 9 -14.5 9h-113c-14 0 -21 -7.33301 -21 -22v-225c0 -11.333 5.66699 -17 17 -17h260c7.33301 0 13 3 17 9s7.5 12.667 10.5 20s6.16699 14 9.5 20s8 9 14 9
c9.33301 0 14 -6.33301 14 -19v-67z" />
    <glyph glyph-name="Eacute" unicode="&#xc9;" 
d="M344 808c0 -11.333 -7.66699 -21.667 -23 -31l-125 -77h-26l110 113c9.33301 9.33301 16.333 15.333 21 18s9.66699 4 15 4c8.66699 0 15.5 -2.5 20.5 -7.5s7.5 -11.5 7.5 -19.5zM498 20.999c0 -14 -7 -20.998 -21 -20.998h-436c-14 0 -21 5 -21 15c0 6 3 10.667 9 14
s12.667 6.33301 20 9s14 5.83398 20 9.50098s9 8.83398 9 15.501l1 537c0 7.33301 -3 12.666 -9 15.999s-12.833 6.16602 -20.5 8.49902s-14.5 5.16602 -20.5 8.49902s-9 8.66602 -9 15.999c0 10 6.33301 15 19 15h439c13.333 0 20 -6.66699 20 -20v-68
c0 -12.667 -5 -19 -15 -19c-6 0 -10.667 3 -14 9s-6.5 12.667 -9.5 20s-6.16699 14 -9.5 20s-8 9 -14 9h-261c-12.667 0 -19 -6 -19 -18v-216c0 -13.333 7 -20 21 -20h113c6 0 10.833 3 14.5 9s7 12.833 10 20.5s6.16699 14.5 9.5 20.5s8 9 14 9c10 0 15 -6.66699 15 -20
v-124c0 -14.667 -5 -22 -15 -22c-6 0 -10.667 3 -14 9s-6.5 12.833 -9.5 20.5s-6.33301 14.5 -10 20.5s-8.5 9 -14.5 9h-113c-14 0 -21 -7.33301 -21 -22v-225c0 -11.333 5.66699 -17 17 -17h260c7.33301 0 13 3 17 9s7.5 12.667 10.5 20s6.16699 14 9.5 20s8 9 14 9
c9.33301 0 14 -6.33301 14 -19v-67z" />
    <glyph glyph-name="Ecircumflex" unicode="&#xca;" 
d="M369 711h-19l-80 74l-80 -74h-19l79 122h40zM498 21c0 -14 -7 -20.998 -21 -20.998h-436c-14 0 -21 5 -21 15c0 6 3 10.667 9 14s12.667 6.33301 20 9s14 5.83398 20 9.50098s9 8.83398 9 15.501l1 537c0 7.33301 -3 12.666 -9 15.999s-12.833 6.16602 -20.5 8.49902
s-14.5 5.16602 -20.5 8.49902s-9 8.66602 -9 15.999c0 10 6.33301 15 19 15h439c13.333 0 20 -6.66699 20 -20v-68c0 -12.667 -5 -19 -15 -19c-6 0 -10.667 3 -14 9s-6.5 12.667 -9.5 20s-6.16699 14 -9.5 20s-8 9 -14 9h-261c-12.667 0 -19 -6 -19 -18v-216
c0 -13.333 7 -20 21 -20h113c6 0 10.833 3 14.5 9s7 12.833 10 20.5s6.16699 14.5 9.5 20.5s8 9 14 9c10 0 15 -6.66699 15 -20v-124c0 -14.667 -5 -22 -15 -22c-6 0 -10.667 3 -14 9s-6.5 12.833 -9.5 20.5s-6.33301 14.5 -10 20.5s-8.5 9 -14.5 9h-113
c-14 0 -21 -7.33301 -21 -22v-225c0 -11.333 5.66699 -17 17 -17h260c7.33301 0 13 3 17 9s7.5 12.667 10.5 20s6.16699 14 9.5 20s8 9 14 9c9.33301 0 14 -6.33301 14 -19v-67z" />
    <glyph glyph-name="Edieresis" unicode="&#xcb;" 
d="M361 771c0 -20.667 -11.667 -31 -35 -31s-35 10.333 -35 31s11.667 31 35 31s35 -10.333 35 -31zM255 771c0 -20.667 -11.667 -31 -35 -31s-35 10.333 -35 31s11.667 31 35 31s35 -10.333 35 -31zM498 21c0 -14 -7 -20.998 -21 -20.998h-436c-14 0 -21 5 -21 15
c0 6 3 10.667 9 14s12.667 6.33301 20 9s14 5.83398 20 9.50098s9 8.83398 9 15.501l1 537c0 7.33301 -3 12.666 -9 15.999s-12.833 6.16602 -20.5 8.49902s-14.5 5.16602 -20.5 8.49902s-9 8.66602 -9 15.999c0 10 6.33301 15 19 15h439c13.333 0 20 -6.66699 20 -20v-68
c0 -12.667 -5 -19 -15 -19c-6 0 -10.667 3 -14 9s-6.5 12.667 -9.5 20s-6.16699 14 -9.5 20s-8 9 -14 9h-261c-12.667 0 -19 -6 -19 -18v-216c0 -13.333 7 -20 21 -20h113c6 0 10.833 3 14.5 9s7 12.833 10 20.5s6.16699 14.5 9.5 20.5s8 9 14 9c10 0 15 -6.66699 15 -20
v-124c0 -14.667 -5 -22 -15 -22c-6 0 -10.667 3 -14 9s-6.5 12.833 -9.5 20.5s-6.33301 14.5 -10 20.5s-8.5 9 -14.5 9h-113c-14 0 -21 -7.33301 -21 -22v-225c0 -11.333 5.66699 -17 17 -17h260c7.33301 0 13 3 17 9s7.5 12.667 10.5 20s6.16699 14 9.5 20s8 9 14 9
c9.33301 0 14 -6.33301 14 -19v-67z" />
    <glyph glyph-name="Igrave" unicode="&#xcc;" horiz-adv-x="271" 
d="M195 700l-25.999 0.000976562l-126 77c-15.333 9.33301 -23 19.666 -23 30.999c0 17.333 9.33301 26.333 28 27c6 0 11.167 -1.33301 15.5 -4s11.166 -8.66699 20.499 -18zM216.001 15.001c0 -10 -7 -15.001 -21 -15.001h-155c-13.333 0 -20 5 -20 15
c0 7.33301 3 12.5 9 15.5s12.833 5.66699 20.5 8s14.5 5 20.5 8s9 8.16699 9 15.5v542c0 5.33301 -3 9.66602 -9 12.999s-12.833 6.33301 -20.5 9s-14.5 5.66699 -20.5 9s-9 8 -9 14c0 10 7 15 21 15h154c13.333 0 20 -5 20 -15s-9.66699 -18 -29 -24
c-19.333 -3.33301 -29 -11.333 -29 -24v-538c0 -7.33301 3 -12.666 9 -15.999s12.833 -6 20.5 -8s14.5 -4.66699 20.5 -8s9 -8.66602 9 -15.999z" />
    <glyph glyph-name="Iacute" unicode="&#xcd;" horiz-adv-x="279" 
d="M224 808c0 -11.333 -7.66699 -21.667 -23 -31l-125 -77h-26l110 113c9.33301 9.33301 16.333 15.333 21 18s9.66699 4 15 4c8.66699 0 15.5 -2.5 20.5 -7.5s7.5 -11.5 7.5 -19.5zM216 14.999c-1.33301 -10 -8.33105 -15 -20.998 -15h-155c-13.333 0 -20 5 -20 15
c0 7.33301 3 12.666 9 15.999s12.833 6 20.5 8s14.5 4.5 20.5 7.5s9 8.16699 9 15.5v542c0 5.33301 -3 9.66602 -9 12.999s-12.833 6.33301 -20.5 9s-14.5 5.66699 -20.5 9s-9 8 -9 14c0 10 7 15 21 15h154c13.333 0 20 -5 20 -15s-9.66699 -18 -29 -24
c-20 -3.33301 -30 -11.333 -30 -24v-538c0 -7.33301 3.16699 -12.666 9.5 -15.999s13.166 -6.16602 20.499 -8.49902s14.166 -5 20.499 -8s9.5 -8.16699 9.5 -15.5z" />
    <glyph glyph-name="Icircumflex" unicode="&#xce;" horiz-adv-x="275" 
d="M219 711h-20l-80 74l-79 -74h-20l79 122h41zM220 15c0 -10 -7 -15.001 -21 -15.001h-155c-13.333 0 -20 5 -20 15c0 7.33301 3 12.5 9 15.5s12.833 5.66699 20.5 8s14.5 5 20.5 8s9 8.16699 9 15.5v542c0 5.33301 -3 9.66602 -9 12.999s-12.833 6.33301 -20.5 9
s-14.5 5.66699 -20.5 9s-9 8 -9 14c0 10 7 15 21 15h155c13.333 0 20 -5 20 -15s-10 -18 -30 -24c-19.333 -3.33301 -29 -11.333 -29 -24v-538c0 -7.33301 3 -12.666 9 -15.999s12.833 -6 20.5 -8s14.5 -4.66699 20.5 -8s9 -8.66602 9 -15.999z" />
    <glyph glyph-name="Idieresis" unicode="&#xcf;" horiz-adv-x="271" 
d="M209 771c0 -20.667 -11.667 -31 -35 -31s-35 10.333 -35 31s11.667 31 35 31s35 -10.333 35 -31zM103 771c0 -20.667 -11.667 -31 -35 -31s-35 10.333 -35 31s11.667 31 35 31s35 -10.333 35 -31zM216 15c-1.33301 -10 -8.33105 -15 -20.998 -15h-155
c-13.333 0 -20 5 -20 15c0 7.33301 3 12.666 9 15.999s12.833 6 20.5 8s14.5 4.5 20.5 7.5s9 8.16699 9 15.5v542c0 5.33301 -3 9.66602 -9 12.999s-12.833 6.33301 -20.5 9s-14.5 5.66699 -20.5 9s-9 8 -9 14c0 10 7 15 21 15h154c13.333 0 20 -5 20 -15
s-9.66699 -18 -29 -24c-20 -3.33301 -30 -11.333 -30 -24v-538c0 -7.33301 3.16699 -12.666 9.5 -15.999s13.166 -6.16602 20.499 -8.49902s14.166 -5 20.499 -8s9.5 -8.16699 9.5 -15.5z" />
    <glyph glyph-name="Eth" unicode="&#xd0;" horiz-adv-x="592" 
d="M310 335c0 -8 -2.49902 -14 -7.49902 -18s-10.833 -6 -17.5 -6h-261c-17.333 0 -25.333 8 -24 24c1.33301 15.333 9.66602 23 24.999 23h260c16.667 0 25 -7.66699 25 -23zM537.001 332c0 -221.333 -91 -332.002 -273 -332.002h-225c-12.667 0 -19 5 -19 15
c0 6 3 10.667 9 14s12.667 6.33301 20 9s14 5.83398 20 9.50098s9 8.83398 9 15.501v537c0 6.66699 -3 12 -9 16s-12.667 7.33301 -20 10s-14 5.66699 -20 9s-9 8 -9 14c0 10 6.66699 15 20 15h223c182.667 0 274 -110.667 274 -332zM454.001 331.998
c0 94.667 -16.667 165.5 -50 212.5s-80.333 70.5 -141 70.5h-87c-13.333 0 -20 -6 -20 -18v-528c0 -13.333 7.33301 -20 22 -20h86c60.667 0 107.5 23.5 140.5 70.5s49.5 117.833 49.5 212.5z" />
    <glyph glyph-name="Ntilde" unicode="&#xd1;" horiz-adv-x="621" 
d="M414 764c-12 -14.667 -23.6719 -24.5 -35.0049 -29.5s-22.666 -7.5 -33.999 -7.5c-4.66699 0 -12 1.5 -22 4.5s-20.5 6.33301 -31.5 10l-30.5 10c-9.33301 3 -16 4.5 -20 4.5c-9.33301 0 -19.5 -2.5 -30.5 -7.5s-23.833 -16.167 -38.5 -33.5v46
c12.667 14 24.667 23.5 36 28.5s22.333 7.5 33 7.5c4.66699 0 11.834 -1.5 21.501 -4.5s19.834 -6.33301 30.501 -10s20.834 -7 30.501 -10s16.834 -4.5 21.501 -4.5c10 0 20.5 3 31.5 9s23.5 16.667 37.5 32v-45zM565.995 649c0 -6 -3 -10.6641 -9 -13.9971
s-12.667 -6.33301 -20 -9s-14 -5.83398 -20 -9.50098s-9 -8.5 -9 -14.5v-582c0 -13.333 -7 -20 -21 -20h-46c-14 0 -24.333 6.33301 -31 19l-260 487c-4 8 -7.33301 12 -10 12c-2 0 -3 -3.33301 -3 -10v-445c0 -6.66699 3 -11.834 9 -15.501s12.833 -6.83398 20.5 -9.50098
s14.5 -5.66699 20.5 -9s9 -8 9 -14c0 -10 -6.33301 -15 -19 -15h-137c-13.333 0 -20 5 -20 15c0 6 3 10.667 9 14s12.833 6.33301 20.5 9s14.5 5.83398 20.5 9.50098s9 8.83398 9 15.501v532c0 7.33301 -3 13.166 -9 17.499s-12.833 8.16602 -20.5 11.499
s-14.5 6.83301 -20.5 10.5s-9 8.5 -9 14.5c0 10 6.66699 15 20 15h98c13.333 0 23.333 -6.33301 30 -19l269 -495c3.33301 -7.33301 6.33301 -11 9 -11c2 0 3 3.66699 3 11v451c0 12.667 -9.66699 20.667 -29 24c-20 6 -30 14 -30 24s7 15 21 15h134c14 0 21 -5 21 -15z" />
    <glyph glyph-name="Ograve" unicode="&#xd2;" horiz-adv-x="612" 
d="M384 700l-26 0.000976562l-125 77c-15.333 9.33301 -23 19.666 -23 30.999c0 8 2.5 14.5 7.5 19.5s11.833 7.5 20.5 7.5c5.33301 0 10.333 -1.33301 15 -4s11.667 -8.66699 21 -18zM557 332.001c0 -112 -22 -196 -66 -252s-109.333 -84 -196 -84h-13
c-174.667 0 -262 112 -262 336s87.333 336 262 336h13c86.667 0 152 -28 196 -84s66 -140 66 -252zM479 332.001c0 90 -17.5 159.167 -52.5 207.5s-80.833 74.833 -137.5 79.5c-57.333 -4.66699 -103.5 -31.167 -138.5 -79.5s-52.5 -117.5 -52.5 -207.5
s17.5 -159.167 52.5 -207.5s81.167 -74.833 138.5 -79.5c56.667 4.66699 102.5 31.167 137.5 79.5s52.5 117.5 52.5 207.5z" />
    <glyph glyph-name="Oacute" unicode="&#xd3;" horiz-adv-x="612" 
d="M374 808c0 -11.333 -7.66699 -21.667 -23 -31l-125 -77h-26l110 113c9.33301 9.33301 16.333 15.333 21 18s9.66699 4 15 4c8.66699 0 15.5 -2.5 20.5 -7.5s7.5 -11.5 7.5 -19.5zM557 331.999c0 -112 -22 -196 -66 -252s-109.333 -84 -196 -84h-13
c-174.667 0 -262 112 -262 336s87.333 336 262 336h13c86.667 0 152 -28 196 -84s66 -140 66 -252zM479 331.999c0 90 -17.5 159.167 -52.5 207.5s-80.833 74.833 -137.5 79.5c-57.333 -4.66699 -103.5 -31.167 -138.5 -79.5s-52.5 -117.5 -52.5 -207.5
s17.5 -159.167 52.5 -207.5s81.167 -74.833 138.5 -79.5c56.667 4.66699 102.5 31.167 137.5 79.5s52.5 117.5 52.5 207.5z" />
    <glyph glyph-name="Ocircumflex" unicode="&#xd4;" horiz-adv-x="612" 
d="M388 711h-19l-80 74l-80 -74h-19l79 122h40zM557 332c0 -112 -22 -196 -66 -252s-109.333 -84 -196 -84h-13c-174.667 0 -262 112 -262 336s87.333 336 262 336h13c86.667 0 152 -28 196 -84s66 -140 66 -252zM479 332c0 90 -17.5 159.167 -52.5 207.5
s-80.833 74.833 -137.5 79.5c-57.333 -4.66699 -103.5 -31.167 -138.5 -79.5s-52.5 -117.5 -52.5 -207.5s17.5 -159.167 52.5 -207.5s81.167 -74.833 138.5 -79.5c56.667 4.66699 102.5 31.167 137.5 79.5s52.5 117.5 52.5 207.5z" />
    <glyph glyph-name="Otilde" unicode="&#xd5;" horiz-adv-x="612" 
d="M430 750c-12.667 -14.667 -24.668 -24.5 -36.001 -29.5s-22.666 -7.5 -33.999 -7.5c-4.66699 0 -11.834 1.5 -21.501 4.5s-19.834 6.33301 -30.501 10s-20.834 7 -30.501 10s-16.834 4.5 -21.501 4.5c-10 0 -20.5 -3 -31.5 -9s-23.5 -16.667 -37.5 -32v46
c12.667 14 24.667 23.5 36 28.5s22.333 7.5 33 7.5c4.66699 0 11.834 -1.5 21.501 -4.5s19.834 -6.33301 30.501 -10s20.834 -7 30.501 -10s16.834 -4.5 21.501 -4.5c10 0 20.5 3 31.5 9s23.833 16.667 38.5 32v-45zM556.999 332c0 -112 -22 -196 -66 -252
s-109.333 -84 -196 -84h-13c-174.667 0 -262 112 -262 336s87.333 336 262 336h13c86.667 0 152 -28 196 -84s66 -140 66 -252zM478.999 332c0 90 -17.5 159.167 -52.5 207.5s-80.833 74.833 -137.5 79.5c-57.333 -4.66699 -103.5 -31.167 -138.5 -79.5
s-52.5 -117.5 -52.5 -207.5s17.5 -159.167 52.5 -207.5s81.167 -74.833 138.5 -79.5c56.667 4.66699 102.5 31.167 137.5 79.5s52.5 117.5 52.5 207.5z" />
    <glyph glyph-name="Odieresis" unicode="&#xd6;" horiz-adv-x="612" 
d="M377 771c0 -20.667 -12 -31 -36 -31c-23.333 0 -35 10.333 -35 31s11.667 31 35 31c24 0 36 -10.333 36 -31zM270 771c0 -20.667 -11.667 -31 -35 -31s-35 10.333 -35 31s11.667 31 35 31s35 -10.333 35 -31zM557 332c0 -112 -22 -196 -66 -252s-109.333 -84 -196 -84
h-13c-174.667 0 -262 112 -262 336s87.333 336 262 336h13c86.667 0 152 -28 196 -84s66 -140 66 -252zM479 332c0 90 -17.5 159.167 -52.5 207.5s-80.833 74.833 -137.5 79.5c-57.333 -4.66699 -103.5 -31.167 -138.5 -79.5s-52.5 -117.5 -52.5 -207.5
s17.5 -159.167 52.5 -207.5s81.167 -74.833 138.5 -79.5c56.667 4.66699 102.5 31.167 137.5 79.5s52.5 117.5 52.5 207.5z" />
    <glyph glyph-name="multiply" unicode="&#xd7;" horiz-adv-x="372" 
d="M317 369c0 -6 -2.66504 -11.667 -7.99805 -17l-103 -100l100 -95c5.33301 -5.33301 8 -11 8 -17c0 -5.33301 -2.83301 -10.666 -8.5 -15.999s-11.5 -8 -17.5 -8c-4.66699 0 -10.667 2.66699 -18 8l-99 95l-102 -100c-6 -6 -12 -9 -18 -9c-5.33301 0 -11 2.83301 -17 8.5
s-9 11.167 -9 16.5c0 6 3 12 9 18l103 99l-108 104c-6 6 -9 11.667 -9 17s3 10.666 9 15.999s11.667 8 17 8s11.666 -2.66699 18.999 -8l106 -103l103 100c7.33301 5.33301 13 8 17 8c5.33301 0 11.666 -3 18.999 -9c4.66699 -4.66699 7 -10 7 -16z" />
    <glyph glyph-name="Oslash" unicode="&#xd8;" horiz-adv-x="612" 
d="M557 332c0 -112 -22 -196 -66 -252s-109.333 -84 -196 -84h-13c-174.667 0 -262 112 -262 336s87.333 336 262 336h13c86.667 0 152 -28 196 -84s66 -140 66 -252zM479 332c0 88.667 -17.668 157.667 -53.001 207c-6.66699 9.33301 -13.667 17.833 -21 25.5
s-14.666 14.167 -21.999 19.5l-161 -522c24 -9.33301 46.333 -15 67 -17c56.667 4.66699 102.5 31.167 137.5 79.5s52.5 117.5 52.5 207.5zM352.999 602c-24 9.33301 -45.333 15 -64 17c-57.333 -4.66699 -103.5 -31.167 -138.5 -79.5s-52.5 -117.5 -52.5 -207.5
s17.333 -159.333 52 -208c6.66699 -8.66699 13.5 -16.667 20.5 -24s14.833 -14.333 23.5 -21z" />
    <glyph glyph-name="Ugrave" unicode="&#xd9;" horiz-adv-x="621" 
d="M384 700l-26 0.000976562l-125 77c-15.333 9.33301 -23 19.666 -23 30.999c0 8 2.5 14.5 7.5 19.5s11.833 7.5 20.5 7.5c5.33301 0 10.333 -1.33301 15 -4s11.667 -8.66699 21 -18zM566 648.001c0 -5.33301 -2.99902 -9.66699 -8.99902 -13s-12.667 -6.5 -20 -9.5
s-14 -6.33301 -20 -10s-9 -8.5 -9 -14.5v-377c0 -37.333 -5.5 -70 -16.5 -98s-26.333 -51.333 -46 -70s-43.334 -32.667 -71.001 -42s-58.167 -14 -91.5 -14c-64.667 0 -114.834 19.333 -150.501 58s-53.5 97.334 -53.5 176.001v367c0 6.66699 -3 11.834 -9 15.501
s-12.833 6.83398 -20.5 9.50098s-14.5 5.66699 -20.5 9s-9 8 -9 14c0 10 6.66699 15 20 15h156c12.667 0 19 -5 19 -15c0 -6 -3 -10.667 -9 -14s-12.833 -6.33301 -20.5 -9s-14.5 -5.83398 -20.5 -9.50098s-9 -8.83398 -9 -15.501v-386c0 -104.667 48 -157 144 -157
c54 0 92.5 13.5 115.5 40.5s34.5 65.5 34.5 115.5v387c0 6 -3 10.833 -9 14.5s-12.667 7 -20 10s-14.166 6.16699 -20.499 9.5s-9.83301 7.66602 -10.5 12.999c0 10.667 6.66699 16 20 16l137 -1c12.667 0 19 -5 19 -15z" />
    <glyph glyph-name="Uacute" unicode="&#xda;" horiz-adv-x="621" 
d="M394 808c0 -11.333 -7.66699 -21.667 -23 -31l-125 -77h-26l110 113c9.33301 9.33301 16.333 15.333 21 18s9.66699 4 15 4c8.66699 0 15.5 -2.5 20.5 -7.5s7.5 -11.5 7.5 -19.5zM566 647.999c0 -5.33301 -2.99902 -9.66699 -8.99902 -13s-12.667 -6.5 -20 -9.5
s-14 -6.33301 -20 -10s-9 -8.5 -9 -14.5v-377c0 -37.333 -5.5 -70 -16.5 -98s-26.333 -51.333 -46 -70s-43.334 -32.667 -71.001 -42s-58.167 -14 -91.5 -14c-64.667 0 -114.834 19.333 -150.501 58s-53.5 97.334 -53.5 176.001v367c0 6.66699 -3 11.834 -9 15.501
s-12.833 6.83398 -20.5 9.50098s-14.5 5.66699 -20.5 9s-9 8 -9 14c0 10 6.66699 15 20 15h156c12.667 0 19 -5 19 -15c0 -6 -3 -10.667 -9 -14s-12.833 -6.33301 -20.5 -9s-14.5 -5.83398 -20.5 -9.50098s-9 -8.83398 -9 -15.501v-386c0 -106.667 50.667 -159 152 -157
c50.667 1.33301 87 15.5 109 42.5s33 64.833 33 113.5v387c0 6 -3 10.833 -9 14.5s-12.667 7 -20 10s-14.166 6.16699 -20.499 9.5s-9.83301 7.66602 -10.5 12.999c0 10.667 6.66699 16 20 16l137 -1c12.667 0 19 -5 19 -15z" />
    <glyph glyph-name="Ucircumflex" unicode="&#xdb;" horiz-adv-x="621" 
d="M399 711h-19l-80 74l-80 -74h-19l79 122h40zM566 648c0 -5.33301 -2.99902 -9.66699 -8.99902 -13s-12.667 -6.5 -20 -9.5s-14 -6.33301 -20 -10s-9 -8.5 -9 -14.5v-377c0 -37.333 -5.5 -70 -16.5 -98s-26.333 -51.333 -46 -70s-43.334 -32.667 -71.001 -42
s-58.167 -14 -91.5 -14c-64.667 -0 -114.834 19.333 -150.501 58s-53.5 97.334 -53.5 176.001v367c0 6.66699 -3 11.834 -9 15.501s-12.833 6.83398 -20.5 9.50098s-14.5 5.66699 -20.5 9s-9 8 -9 14c0 10 6.66699 15 20 15h156c12.667 0 19 -5 19 -15
c0 -6 -3 -10.667 -9 -14s-12.833 -6.33301 -20.5 -9s-14.5 -5.83398 -20.5 -9.50098s-9 -8.83398 -9 -15.501v-386c0 -106.667 50.667 -159 152 -157c50.667 1.33301 87 15.5 109 42.5s33 64.833 33 113.5v387c0 6 -3 10.833 -9 14.5s-12.667 7 -20 10
s-14.166 6.16699 -20.499 9.5s-9.83301 7.66602 -10.5 12.999c0 10.667 6.66699 16 20 16l137 -1c12.667 0 19 -5 19 -15z" />
    <glyph glyph-name="Udieresis" unicode="&#xdc;" horiz-adv-x="621" 
d="M381 771c0 -20.667 -11.667 -31 -35 -31s-35 10.333 -35 31s11.667 31 35 31s35 -10.333 35 -31zM275 771c0 -20.667 -11.667 -31 -35 -31s-35 10.333 -35 31s11.667 31 35 31s35 -10.333 35 -31zM566 648c0 -5.33301 -2.99902 -9.66699 -8.99902 -13
s-12.667 -6.5 -20 -9.5s-14 -6.33301 -20 -10s-9 -8.5 -9 -14.5v-377c0 -37.333 -5.5 -70 -16.5 -98s-26.333 -51.333 -46 -70s-43.334 -32.667 -71.001 -42s-58.167 -14 -91.5 -14c-64.667 -0 -114.834 19.333 -150.501 58s-53.5 97.334 -53.5 176.001v367
c0 6.66699 -3 11.834 -9 15.501s-12.833 6.83398 -20.5 9.50098s-14.5 5.66699 -20.5 9s-9 8 -9 14c0 10 6.66699 15 20 15h156c12.667 0 19 -5 19 -15c0 -6 -3 -10.667 -9 -14s-12.833 -6.33301 -20.5 -9s-14.5 -5.83398 -20.5 -9.50098s-9 -8.83398 -9 -15.501v-386
c0 -106.667 50.667 -159 152 -157c50.667 1.33301 87 15.5 109 42.5s33 64.833 33 113.5v387c0 6 -3 10.833 -9 14.5s-12.667 7 -20 10s-14.166 6.16699 -20.499 9.5s-9.83301 7.66602 -10.5 12.999c0 10.667 6.66699 16 20 16l137 -1c12.667 0 19 -5 19 -15z" />
    <glyph glyph-name="Yacute" unicode="&#xdd;" horiz-adv-x="612" 
d="M394 808c0 -11.333 -7.66699 -21.667 -23 -31l-125 -77h-26l110 113c9.33301 9.33301 16.333 15.333 21 18s9.66699 4 15 4c8.66699 0 15.5 -2.5 20.5 -7.5s7.5 -11.5 7.5 -19.5zM557 648.999c0 -6 -3 -10.668 -9 -14.001s-13 -6.33301 -21 -9s-15.833 -5.66699 -23.5 -9
s-13.167 -8.33301 -16.5 -15l-145 -273c-8 -14.667 -11.333 -25.667 -10 -33v-232c0 -6.66699 3 -11.834 9 -15.501s12.833 -7 20.5 -10s14.5 -6.16699 20.5 -9.5s9 -8 9 -14c0 -10 -6.66699 -15 -20 -15h-156c-12.667 0 -19 5 -19 15c0 6 3 10.667 9 14s12.667 6.5 20 9.5
s14 6.33301 20 10s9 8.5 9 14.5v234c0 9.33301 -3.33301 20.333 -10 33l-155 272c-3.33301 6 -8.83301 10.667 -16.5 14s-15.334 6.5 -23.001 9.5s-14.5 6.16699 -20.5 9.5s-9 8 -9 14c0 10 6.66699 15 20 15h165c13.333 0 20 -5 20 -15
c0 -4.66699 -2.66699 -8.16699 -8 -10.5s-12.666 -5.16602 -21.999 -8.49902l-14 -5c-4.66699 -0.666992 -7 -3.66699 -7 -9c0 -3.33301 1 -7 3 -11l120 -217c3.33301 -5.33301 6.33301 -8 9 -8c2 0 4.66699 2.66699 8 8l116 217c2 4 3 7.33301 3 10c0 4 -2.66699 6 -8 6
l-15 4c-10 2.66699 -17.333 6.33398 -22 11.001s-7 9 -7 13c0 10 6.66699 15 20 15h136c13.333 0 20 -5 20 -15z" />
    <glyph glyph-name="Thorn" unicode="&#xde;" horiz-adv-x="522" 
d="M467 262c0 -34 -4.83398 -66.832 -14.501 -98.499s-24.167 -59.667 -43.5 -84s-43.5 -43.833 -72.5 -58.5s-62.833 -22 -101.5 -22c-12.667 0 -25 1 -37 3s-25.667 5 -41 9v-210c0 -12.667 -10 -19 -30 -19h-29c-6 0 -13.333 0.833008 -22 2.5s-17.167 4 -25.5 7
s-15.5 6.5 -21.5 10.5s-9 8.66699 -9 14c0 6 3 9.66699 9 11s12.833 2.5 20.5 3.5s14.5 2.66699 20.5 5s9 7.16602 9 14.499l1 795c0 7.33301 -3 12 -9 14s-12.833 3.5 -20.5 4.5s-14.5 2.33301 -20.5 4s-9 5.5 -9 11.5c0 4.66699 3 9.16699 9 13.5s13.167 8 21.5 11
s16.833 5.33301 25.5 7s16 2.5 22 2.5h29c20 0 30 -6.33301 30 -19v-215c0 -8.66699 2.66699 -13 8 -13c2.66699 0 6.33398 1.33301 11.001 4c28.667 14.667 59 22 91 22c29.333 0 56.166 -6 80.499 -18s45.333 -28.5 63 -49.5s31.334 -45.333 41.001 -73
s14.5 -57.5 14.5 -89.5zM390.999 261.001c0 54 -11.668 97 -35.001 129s-56.333 48 -99 48c-6 0 -14.667 -0.5 -26 -1.5s-22.5 -3 -33.5 -6s-20.5 -7.16699 -28.5 -12.5s-12 -12 -12 -20v-316c0 -8 3.16699 -14.167 9.5 -18.5s13.833 -7.5 22.5 -9.5
s17.334 -3.16699 26.001 -3.5s15.667 -0.5 21 -0.5c20.667 0 40.5 4.5 59.5 13.5s35.5 22.333 49.5 40s25.167 39.667 33.5 66s12.5 56.833 12.5 91.5z" />
    <glyph glyph-name="germandbls" unicode="&#xdf;" horiz-adv-x="631" 
d="M576 131c0 -46 -14.668 -80.3301 -44.001 -102.997s-72.333 -34 -129 -34c-23.333 0 -47.833 2.66699 -73.5 8s-52.5 14.333 -80.5 27l-19 102c0 10.667 8 16 24 16c9.33301 0 15.666 -5 18.999 -15l15 -44c6.66699 -14.667 17.834 -27 33.501 -37s36.5 -15 62.5 -15
c40 0 69.333 9.33301 88 28s28 42 28 70c0 34 -42.333 66.333 -127 97c-84 30.667 -126 77.667 -126 141c0 26 7 47.833 21 65.5s33.667 33.167 59 46.5c4 2 8.5 4.5 13.5 7.5s9.66699 7 14 12s8.16602 11.333 11.499 19s5 16.834 5 27.501v10
c-3.33301 23.333 -14.5 40 -33.5 50s-42.5 15 -70.5 15h-3c0 -1.33301 -0.333008 -2 -1 -2c-1.33301 0 -2.66602 0.666992 -3.99902 2c-34 -1.33301 -59.5 -11.333 -76.5 -30s-25.5 -51 -25.5 -97v-435c0 -6.66699 3 -11.834 9 -15.501s12.667 -6.83398 20 -9.50098
s14 -5.66699 20 -9s9 -8 9 -14c0 -10 -6.33301 -15 -19 -15h-156c-13.333 0 -20 5 -20 15c0 6 3 10.667 9 14s12.833 6.33301 20.5 9s14.5 5.83398 20.5 9.50098s9 8.83398 9 15.501v358c0 12 -6.66699 18 -20 18h-19c-13.333 0 -20 8.33301 -20 25c0 16 6.66699 24 20 24
h29c6.66699 0 10 3.33301 10 10c0 58.667 15.167 101 45.5 127s76.833 39 139.5 39h18c10.667 0 24.5 -1.33301 41.5 -4s33.5 -8 49.5 -16s29.833 -19.5 41.5 -34.5s17.5 -34.833 17.5 -59.5c0 -13.333 -2.16699 -25.333 -6.5 -36s-9.83301 -20.334 -16.5 -29.001
s-14 -16.167 -22 -22.5s-15.667 -11.833 -23 -16.5c-3.33301 -2 -7.16602 -4.5 -11.499 -7.5s-8.83301 -7.33301 -13.5 -13s-8.5 -12.334 -11.5 -20.001s-4.5 -16.834 -4.5 -27.501c0 -38.667 42.333 -73.334 127 -104.001c44 -16 76 -35.833 96 -59.5s30 -51.5 30 -83.5z
" />
    <glyph glyph-name="agrave" unicode="&#xe0;" horiz-adv-x="474" 
d="M284 540l-26 0.000976562l-125 77c-15.333 9.33301 -23 19.666 -23 30.999c0 8 2.5 14.5 7.5 19.5s11.833 7.5 20.5 7.5c5.33301 0 10.333 -1.33301 15 -4s11.667 -8.66699 21 -18zM419 17.001c-1.33301 -11.333 -11.335 -17 -30.002 -17c-38.667 0 -68 11.333 -88 34
c-44.667 -22.667 -89.334 -34 -134.001 -34c-46 0 -81.667 11.5 -107 34.5s-38.666 53.5 -39.999 91.5c-1.33301 28 3.33398 52.333 14.001 73s26.334 37.5 47.001 50.5s45.834 22.667 75.501 29s63.167 9.5 100.5 9.5h16c12.667 0 19 6.66699 19 20v35
c0 36 -8 63.5 -24 82.5s-40 28.5 -72 28.5c-20.667 0 -40.334 -1.16699 -59.001 -3.5s-37 -6.16602 -55 -11.499c-13.333 1.33301 -20 6.33301 -20 15c0 9.33301 6.66699 17 20 23c24.667 12.667 62 19 112 19c60.667 0 105.167 -14 133.5 -42s42.5 -68 42.5 -120v-267
c0 -8.66699 2.5 -15 7.5 -19s10.667 -7.33301 17 -10s12 -5.33398 17 -8.00098s7.5 -7 7.5 -13zM291.998 235.001c0 12.667 -6.33398 19.002 -19.001 19.002c-66 -2.66699 -112.5 -13.834 -139.5 -33.501s-40.5 -47.834 -40.5 -84.501c0 -11.333 1.66699 -22.5 5 -33.5
s9 -20.833 17 -29.5s18.5 -15.667 31.5 -21s29.167 -8 48.5 -8c28.667 0 54.334 3.33301 77.001 10c13.333 3.33301 20 11.333 20 24v157z" />
    <glyph glyph-name="aacute" unicode="&#xe1;" horiz-adv-x="474" 
d="M274 648c0 -11.333 -7.66699 -21.667 -23 -31l-125 -77h-26l110 113c9.33301 9.33301 16.333 15.333 21 18s9.66699 4 15 4c8.66699 0 15.5 -2.5 20.5 -7.5s7.5 -11.5 7.5 -19.5zM419 16.999c-1.33301 -11.333 -11.332 -17 -29.999 -17c-38.667 0 -68 11.333 -88 34
c-44.667 -22.667 -89.334 -34 -134.001 -34c-48 0 -84.5 12.167 -109.5 36.5s-37.5 56.5 -37.5 96.5c0 27.333 5.66699 50.833 17 70.5s27.5 35.667 48.5 48s46 21.5 75 27.5s61.167 9 96.5 9h16c12.667 0 19 6.66699 19 20v35c0 36 -8.33301 63.5 -25 82.5
s-41 28.5 -73 28.5c-20 0 -39.333 -1.16699 -58 -3.5s-36.667 -6.16602 -54 -11.499c-13.333 1.33301 -20 6.33301 -20 15c0 9.33301 6.66699 17 20 23c24.667 12.667 62 19 112 19c60.667 0 105.167 -14 133.5 -42s42.5 -68 42.5 -120v-267c0 -8.66699 2.5 -15 7.5 -19
s10.667 -7.33301 17 -10s12 -5.33398 17 -8.00098s7.5 -7 7.5 -13zM292.001 234.999c0 12.667 -6.33398 19.002 -19.001 19.002c-66 -2.66699 -112.5 -13.834 -139.5 -33.501s-40.5 -47.834 -40.5 -84.501c0 -11.333 1.66699 -22.5 5 -33.5s9 -20.833 17 -29.5
s18.5 -15.667 31.5 -21s29.167 -8 48.5 -8c28.667 0 54.334 3.33301 77.001 10c13.333 3.33301 20 11.333 20 24v157z" />
    <glyph glyph-name="acircumflex" unicode="&#xe2;" horiz-adv-x="474" 
d="M289 541h-19l-80 74l-80 -74h-19l79 122h40zM419 17c-1.33301 -11.333 -11.332 -17 -29.999 -17c-38.667 -0 -68 11.333 -88 34c-44.667 -22.667 -89.334 -34 -134.001 -34c-48 0 -84.5 12.167 -109.5 36.5s-37.5 56.5 -37.5 96.5c0 27.333 5.66699 50.833 17 70.5
s27.5 35.667 48.5 48s46 21.5 75 27.5s61.167 9 96.5 9h16c12.667 0 19 6.66699 19 20v35c0 36 -8.33301 63.5 -25 82.5s-41 28.5 -73 28.5c-20 0 -39.333 -1.16699 -58 -3.5s-36.667 -6.16602 -54 -11.499c-13.333 1.33301 -20 6.33301 -20 15c0 9.33301 6.66699 17 20 23
c24.667 12.667 62 19 112 19c60.667 0 105.167 -14 133.5 -42s42.5 -68 42.5 -120v-267c0 -8.66699 2.5 -15 7.5 -19s10.667 -7.33301 17 -10s12 -5.33398 17 -8.00098s7.5 -7 7.5 -13zM292.001 235c0 12.667 -6.33398 19.002 -19.001 19.002
c-66 -2.66699 -112.5 -13.834 -139.5 -33.501s-40.5 -47.834 -40.5 -84.501c0 -11.333 1.66699 -22.5 5 -33.5s9 -20.833 17 -29.5s18.5 -15.667 31.5 -21s29.167 -8 48.5 -8c28.667 0 54.334 3.33301 77.001 10c13.333 3.33301 20 11.333 20 24v157z" />
    <glyph glyph-name="atilde" unicode="&#xe3;" horiz-adv-x="474" 
d="M324 594c-12 -14.667 -23.6719 -24.5 -35.0049 -29.5s-22.666 -7.5 -33.999 -7.5c-4.66699 0 -12 1.5 -22 4.5s-20.5 6.33301 -31.5 10l-30.5 10c-9.33301 3 -16 4.5 -20 4.5c-9.33301 0 -19.5 -2.5 -30.5 -7.5s-23.833 -16.167 -38.5 -33.5v46
c12.667 14 24.667 23.5 36 28.5s22.333 7.5 33 7.5c4.66699 0 11.834 -1.5 21.501 -4.5s19.834 -6.33301 30.501 -10s20.834 -7 30.501 -10s16.834 -4.5 21.501 -4.5c10 0 20.5 3 31.5 9s23.5 16.667 37.5 32v-45zM418.995 17c-1.33301 -11.333 -11.332 -17 -29.999 -17
c-38.667 -0 -68 11.333 -88 34c-44.667 -22.667 -89.334 -34 -134.001 -34c-48 0 -84.5 12.167 -109.5 36.5s-37.5 56.5 -37.5 96.5c0 27.333 5.66699 50.833 17 70.5s27.5 35.667 48.5 48s46 21.5 75 27.5s61.167 9 96.5 9h16c12.667 0 19 6.66699 19 20v35
c0 36 -8.33301 63.5 -25 82.5s-41 28.5 -73 28.5c-20 0 -39.333 -1.16699 -58 -3.5s-36.667 -6.16602 -54 -11.499c-13.333 1.33301 -20 6.33301 -20 15c0 9.33301 6.66699 17 20 23c24.667 12.667 62 19 112 19c60.667 0 105.167 -14 133.5 -42s42.5 -68 42.5 -120v-267
c0 -8.66699 2.5 -15 7.5 -19s10.667 -7.33301 17 -10s12 -5.33398 17 -8.00098s7.5 -7 7.5 -13zM291.996 235c0 12.667 -6.33398 19.002 -19.001 19.002c-66 -2.66699 -112.5 -13.834 -139.5 -33.501s-40.5 -47.834 -40.5 -84.501c0 -11.333 1.66699 -22.5 5 -33.5
s9 -20.833 17 -29.5s18.5 -15.667 31.5 -21s29.167 -8 48.5 -8c28.667 0 54.334 3.33301 77.001 10c13.333 3.33301 20 11.333 20 24v157z" />
    <glyph glyph-name="adieresis" unicode="&#xe4;" horiz-adv-x="474" 
d="M280 587c0 -20.667 -11.667 -31 -35 -31s-35 10.333 -35 31s11.667 31 35 31s35 -10.333 35 -31zM174 587c0 -20.667 -11.667 -31 -35 -31s-35 10.333 -35 31s11.667 31 35 31s35 -10.333 35 -31zM419 17c-1.33301 -11.333 -11.332 -17 -29.999 -17
c-38.667 -0 -68 11.333 -88 34c-44.667 -22.667 -89.334 -34 -134.001 -34c-48 0 -84.5 12.167 -109.5 36.5s-37.5 56.5 -37.5 96.5c0 27.333 5.66699 50.833 17 70.5s27.5 35.667 48.5 48s46 21.5 75 27.5s61.167 9 96.5 9h16c12.667 0 19 6.66699 19 20v35
c0 36 -8.33301 63.5 -25 82.5s-41 28.5 -73 28.5c-20 0 -39.333 -1.16699 -58 -3.5s-36.667 -6.16602 -54 -11.499c-13.333 1.33301 -20 6.33301 -20 15c0 9.33301 6.66699 17 20 23c24.667 12.667 62 19 112 19c60.667 0 105.167 -14 133.5 -42s42.5 -68 42.5 -120v-267
c0 -8.66699 2.5 -15 7.5 -19s10.667 -7.33301 17 -10s12 -5.33398 17 -8.00098s7.5 -7 7.5 -13zM292.001 235c0 12.667 -6.33398 19.002 -19.001 19.002c-66 -2.66699 -112.5 -13.834 -139.5 -33.501s-40.5 -47.834 -40.5 -84.501c0 -11.333 1.66699 -22.5 5 -33.5
s9 -20.833 17 -29.5s18.5 -15.667 31.5 -21s29.167 -8 48.5 -8c28.667 0 54.334 3.33301 77.001 10c13.333 3.33301 20 11.333 20 24v157z" />
    <glyph glyph-name="aring" unicode="&#xe5;" horiz-adv-x="474" 
d="M264 606c0 -19.333 -6.83496 -35.833 -20.502 -49.5s-30.167 -20.5 -49.5 -20.5s-35.666 6.66699 -48.999 20s-20 30 -20 50c0 17.333 6.33301 33.166 19 47.499s29.334 21.5 50.001 21.5c18 0 34.167 -6.66699 48.5 -20s21.5 -29.666 21.5 -48.999zM418.998 17
c-1.33301 -11.333 -11.332 -17 -29.999 -17c-38.667 -0 -68 11.333 -88 34c-44.667 -22.667 -89.334 -34 -134.001 -34c-48 0 -84.5 12.167 -109.5 36.5s-37.5 56.5 -37.5 96.5c0 27.333 5.66699 50.833 17 70.5s27.5 35.667 48.5 48s46 21.5 75 27.5s61.167 9 96.5 9h16
c12.667 0 19 6.66699 19 20v35c0 36 -8.33301 63.5 -25 82.5s-41 28.5 -73 28.5c-20 0 -39.333 -1.16699 -58 -3.5s-36.667 -6.16602 -54 -11.499c-13.333 1.33301 -20 6.33301 -20 15c0 9.33301 6.66699 17 20 23c24.667 12.667 62 19 112 19
c60.667 0 105.167 -14 133.5 -42s42.5 -68 42.5 -120v-267c0 -8.66699 2.5 -15 7.5 -19s10.667 -7.33301 17 -10s12 -5.33398 17 -8.00098s7.5 -7 7.5 -13zM232.999 606c0 9.33301 -3.83203 18 -11.499 26s-16.834 12 -27.501 12c-10 0 -19 -3.66699 -27 -11
s-12 -16.333 -12 -27c0 -11.333 3.66699 -20.833 11 -28.5s16.666 -11.5 27.999 -11.5c10.667 0 19.834 3.83301 27.501 11.5s11.5 17.167 11.5 28.5zM292 235c0 12.667 -6.33398 19.002 -19.001 19.002c-66 -2.66699 -112.5 -13.834 -139.5 -33.501
s-40.5 -47.834 -40.5 -84.501c0 -11.333 1.66699 -22.5 5 -33.5s9 -20.833 17 -29.5s18.5 -15.667 31.5 -21s29.167 -8 48.5 -8c28.667 0 54.334 3.33301 77.001 10c13.333 3.33301 20 11.333 20 24v157z" />
    <glyph glyph-name="ae" unicode="&#xe6;" horiz-adv-x="731" 
d="M676 252c0 -10 -5.33301 -14.998 -16 -14.998h-285c0 -28 3.16699 -53.833 9.5 -77.5s15.666 -44 27.999 -61s27.333 -30.333 45 -40s37.5 -14.5 59.5 -14.5c30.667 0 66 8.33301 106 25c13.333 0 20 -4.33301 20 -13c0 -8 -5.5 -15.5 -16.5 -22.5s-24 -13 -39 -18
s-30.167 -9 -45.5 -12s-27 -4.5 -35 -4.5c-25.333 0 -50.5 5 -75.5 15s-47.167 23.667 -66.5 41c-32 -18.667 -64.667 -32.667 -98 -42s-64 -14 -92 -14c-50 0 -88.333 12.167 -115 36.5s-40 56.833 -40 97.5c0 27.333 5.66699 50.833 17 70.5s27.5 35.667 48.5 48
s46 21.5 75 27.5s61.167 9 96.5 9h16c12.667 0 19 6.66699 19 20v35c0 36 -8.33301 63.5 -25 82.5s-41 28.5 -73 28.5c-20 0 -39.333 -1.16699 -58 -3.5s-36.667 -6.16602 -54 -11.499c-13.333 1.33301 -20 6.33301 -20 15c0 6.66699 3.83301 12.667 11.5 18
s17.667 9.66602 30 12.999s26.333 6 42 8s31.834 3 48.501 3c38 0 69.833 -6.16699 95.5 -18.5s45.167 -29.5 58.5 -51.5c22 23.333 46.333 41.166 73 53.499s53 18.5 79 18.5c58.667 0 102.667 -21.333 132 -64s44 -103.334 44 -182.001zM607 296.002
c-3.33301 56 -13.833 96.333 -31.5 121s-46.167 37 -85.5 37c-35.333 0 -61.333 -14.167 -78 -42.5s-27.667 -66.833 -33 -115.5c0 -13.333 6.33301 -20 19 -20h190c14 0 20.333 6.66699 19 20zM292 219.002c-0.666992 4 -1.00195 8.16699 -1.00195 12.5
s-0.5 8.16602 -1.5 11.499s-2.66699 6 -5 8s-6.16602 3 -11.499 3c-66 -1.33301 -112.5 -12.166 -139.5 -32.499s-40.5 -48.833 -40.5 -85.5c0 -11.333 1.5 -22.5 4.5 -33.5s8.33301 -20.833 16 -29.5s17.834 -15.667 30.501 -21s28.667 -8 48 -8
c13.333 0 26.833 1.16699 40.5 3.5s27.5 5.5 41.5 9.5c12 4 18 11 18 21v141z" />
    <glyph glyph-name="ccedilla" unicode="&#xe7;" horiz-adv-x="437" 
d="M382 46c0 -7.33301 -4.66504 -14.0039 -13.998 -20.0039s-20.666 -11.167 -33.999 -15.5s-27.5 -7.66602 -42.5 -9.99902s-27.833 -3.5 -38.5 -3.5h-10l-17 -48c10 2 20 3 30 3c28.667 0 50.667 -6.66699 66 -20s23 -32 23 -56c0 -24.667 -9.33301 -44.167 -28 -58.5
s-45 -21.5 -79 -21.5c-40.667 0 -71.334 5.33301 -92.001 16v46c26.667 -16.667 51.334 -25 74.001 -25c21.333 0 36.666 3.5 45.999 10.5s14 17.833 14 32.5c0 14 -7.33301 24 -22 30s-32 9 -52 9h-8c-4.66699 0 -7.33398 -0.333008 -8.00098 -1l23 86
c-9.33301 1.33301 -18.833 3 -28.5 5s-19.167 5 -28.5 9c-44 17.333 -77.667 45.333 -101 84s-35 85 -35 139c0 34 5.16699 66.5 15.5 97.5s25 58.333 44 82s42.333 42.334 70 56.001s59.167 20.5 94.5 20.5c28.667 0 68 -6.66699 118 -20v-78c0 -14 -6.33301 -21 -19 -21
c-6.66699 0 -12.167 3 -16.5 9s-8.66602 13 -12.999 21l-13 23.5c-4.33301 7.66699 -9.83301 13.167 -16.5 16.5c-8 4 -16 6.66699 -24 8s-15.667 2 -23 2c-18.667 0 -36.334 -5.33301 -53.001 -16s-31.334 -25.667 -44.001 -45s-22.667 -42.166 -30 -68.499
s-11 -55.5 -11 -87.5c0 -29.333 4.16699 -56 12.5 -80s20 -44.667 35 -62s32.833 -30.666 53.5 -39.999s43.667 -14 69 -14c26.667 0 57.667 6 93 18c13.333 0 20 -4.33301 20 -13z" />
    <glyph glyph-name="egrave" unicode="&#xe8;" horiz-adv-x="460" 
d="M284 540l-26 0.000976562l-125 77c-15.333 9.33301 -23 19.666 -23 30.999c0 8 2.5 14.5 7.5 19.5s11.833 7.5 20.5 7.5c5.33301 0 10.333 -1.33301 15 -4s11.667 -8.66699 21 -18zM405 252.001c0 -10 -5.33301 -14.9961 -16 -14.9961h-285
c0 -28 3.33301 -53.833 10 -77.5s16 -44 28 -61s26.833 -30.333 44.5 -40s37.5 -14.5 59.5 -14.5c30.667 0 66 8.33301 106 25c13.333 0 20 -4.33301 20 -13c0 -8 -5.5 -15.5 -16.5 -22.5s-24 -13 -39 -18s-30.167 -9 -45.5 -12s-27 -4.5 -35 -4.5
c-32 0 -61.333 6.16699 -88 18.5s-49.5 29.666 -68.5 51.999s-33.667 48.833 -44 79.5s-15.5 64 -15.5 100c0 35.333 5.16699 68.166 15.5 98.499s24.666 56.666 42.999 78.999s40.333 39.833 66 52.5s53.834 19 84.501 19c58.667 0 102.667 -21.333 132 -64
s44 -103.334 44 -182.001zM336 296.005c-3.33301 54.667 -13.335 94.3311 -30.002 118.998s-44 37.667 -82 39c-37.333 0.666992 -64.666 -12.666 -81.999 -39.999s-28.666 -66.666 -33.999 -117.999c0 -13.333 6.33301 -20 19 -20h190c14 0 20.333 6.66699 19 20z" />
    <glyph glyph-name="eacute" unicode="&#xe9;" horiz-adv-x="460" 
d="M294 648c0 -11.333 -7.66699 -21.667 -23 -31l-125 -77h-26l110 113c9.33301 9.33301 16.333 15.333 21 18s9.66699 4 15 4c8.66699 0 15.5 -2.5 20.5 -7.5s7.5 -11.5 7.5 -19.5zM405 251.999c0 -10 -5.33203 -14.9961 -15.999 -14.9961h-285
c0 -28 3.16699 -53.833 9.5 -77.5s15.666 -44 27.999 -61s27.333 -30.333 45 -40s37.5 -14.5 59.5 -14.5c30.667 0 66 8.33301 106 25c13.333 0 20 -4.33301 20 -13c0 -8 -5.5 -15.5 -16.5 -22.5s-24 -13 -39 -18s-30.167 -9 -45.5 -12s-27 -4.5 -35 -4.5
c-32 0 -61.333 6.16699 -88 18.5s-49.5 29.666 -68.5 51.999s-33.667 48.833 -44 79.5s-15.5 64 -15.5 100c0 35.333 5.16699 68.166 15.5 98.499s24.666 56.666 42.999 78.999s40.333 39.833 66 52.5s53.834 19 84.501 19c58.667 0 102.667 -21.333 132 -64
s44 -103.334 44 -182.001zM336.001 296.003c-3.33301 56 -13.833 96.333 -31.5 121s-46.167 37 -85.5 37c-35.333 0 -61.333 -14.167 -78 -42.5s-27.667 -66.833 -33 -115.5c0 -13.333 6.33301 -20 19 -20h190c14 0 20.333 6.66699 19 20z" />
    <glyph glyph-name="ecircumflex" unicode="&#xea;" horiz-adv-x="460" 
d="M319 541h-19l-80 74l-80 -74h-19l79 122h40zM405 252c0 -10 -5.33203 -14.9961 -15.999 -14.9961h-285c0 -28 3.16699 -53.833 9.5 -77.5s15.666 -44 27.999 -61s27.333 -30.333 45 -40s37.5 -14.5 59.5 -14.5c30.667 0 66 8.33301 106 25c13.333 0 20 -4.33301 20 -13
c0 -8 -5.5 -15.5 -16.5 -22.5s-24 -13 -39 -18s-30.167 -9 -45.5 -12s-27 -4.5 -35 -4.5c-32 0 -61.333 6.16699 -88 18.5s-49.5 29.666 -68.5 51.999s-33.667 48.833 -44 79.5s-15.5 64 -15.5 100c0 35.333 5.16699 68.166 15.5 98.499s24.666 56.666 42.999 78.999
s40.333 39.833 66 52.5s53.834 19 84.501 19c58.667 0 102.667 -21.333 132 -64s44 -103.334 44 -182.001zM336.001 296.004c-3.33301 56 -13.833 96.333 -31.5 121s-46.167 37 -85.5 37c-35.333 0 -61.333 -14.167 -78 -42.5s-27.667 -66.833 -33 -115.5
c0 -13.333 6.33301 -20 19 -20h190c14 0 20.333 6.66699 19 20z" />
    <glyph glyph-name="edieresis" unicode="&#xeb;" horiz-adv-x="460" 
d="M310 587c0 -20.667 -11.667 -31 -35 -31s-35 10.333 -35 31s11.667 31 35 31s35 -10.333 35 -31zM204 587c0 -20.667 -11.667 -31 -35 -31s-35 10.333 -35 31s11.667 31 35 31s35 -10.333 35 -31zM405 252c0 -10 -5.33203 -14.9961 -15.999 -14.9961h-285
c0 -28 3.16699 -53.833 9.5 -77.5s15.666 -44 27.999 -61s27.333 -30.333 45 -40s37.5 -14.5 59.5 -14.5c30.667 0 66 8.33301 106 25c13.333 0 20 -4.33301 20 -13c0 -8 -5.5 -15.5 -16.5 -22.5s-24 -13 -39 -18s-30.167 -9 -45.5 -12s-27 -4.5 -35 -4.5
c-32 0 -61.333 6.16699 -88 18.5s-49.5 29.666 -68.5 51.999s-33.667 48.833 -44 79.5s-15.5 64 -15.5 100c0 35.333 5.16699 68.166 15.5 98.499s24.666 56.666 42.999 78.999s40.333 39.833 66 52.5s53.834 19 84.501 19c58.667 0 102.667 -21.333 132 -64
s44 -103.334 44 -182.001zM336.001 296.004c-3.33301 56 -13.833 96.333 -31.5 121s-46.167 37 -85.5 37c-35.333 0 -61.333 -14.167 -78 -42.5s-27.667 -66.833 -33 -115.5c0 -13.333 6.33301 -20 19 -20h190c14 0 20.333 6.66699 19 20z" />
    <glyph glyph-name="igrave" unicode="&#xec;" horiz-adv-x="280" 
d="M194 540l-26 0.000976562l-125 77c-15.333 9.33301 -23 19.666 -23 30.999c0 8 2.5 14.5 7.5 19.5s11.833 7.5 20.5 7.5c5.33301 0 10.333 -1.33301 15 -4s11.667 -8.66699 21 -18zM225 15.001c0 -10 -6.33301 -14.999 -19 -14.999h-156c-13.333 0 -20 5 -20 15
c0 7.33301 3 13.166 9 17.499s12.833 8.33301 20.5 12s14.5 7.5 20.5 11.5s9 9.66699 9 17v347c0 7.33301 -3 12.166 -9 14.499s-12.833 4 -20.5 5s-14.5 2.16699 -20.5 3.5s-9 5 -9 11c0 4.66699 2.83301 9.16699 8.5 13.5s12.667 8 21 11s17 5.33301 26 7
s16.833 2.5 23.5 2.5h38c13.333 0 20 -6.33301 20 -19v-395c0 -7.33301 3 -13.166 9 -17.499s12.667 -8.5 20 -12.5s14 -8.16699 20 -12.5s9 -9.83301 9 -16.5z" />
    <glyph glyph-name="iacute" unicode="&#xed;" horiz-adv-x="270" 
d="M194 648c0 -11.333 -7.66699 -21.667 -23 -31l-125 -77h-26l110 113c9.33301 9.33301 16.333 15.333 21 18s9.66699 4 15 4c8.66699 0 15.5 -2.5 20.5 -7.5s7.5 -11.5 7.5 -19.5zM215 14.999c0 -10 -6.33301 -14.999 -19 -14.999h-156c-13.333 0 -20 5 -20 15
c0 7.33301 3 13.166 9 17.499s12.833 8.33301 20.5 12s14.5 7.5 20.5 11.5s9 9.66699 9 17v347c0 7.33301 -3 12.166 -9 14.499s-12.833 4 -20.5 5s-14.5 2.16699 -20.5 3.5s-9 5 -9 11c0 4.66699 2.83301 9.16699 8.5 13.5s12.667 8 21 11s17 5.33301 26 7
s16.833 2.5 23.5 2.5h38c13.333 0 20 -6.33301 20 -19v-395c0 -7.33301 3 -13.166 9 -17.499s12.667 -8.5 20 -12.5s14 -8.16699 20 -12.5s9 -9.83301 9 -16.5z" />
    <glyph glyph-name="icircumflex" unicode="&#xee;" horiz-adv-x="276" 
d="M218 541h-19l-80 74l-80 -74h-19l79 122h40zM221 15c0 -10 -6.33301 -14.999 -19 -14.999h-156c-13.333 0 -20 5 -20 15c0 7.33301 3 13.166 9 17.499s12.833 8.33301 20.5 12s14.5 7.5 20.5 11.5s9 9.66699 9 17v347c0 7.33301 -3 12.166 -9 14.499s-12.833 4 -20.5 5
s-14.5 2.16699 -20.5 3.5s-9 5 -9 11c0 4.66699 2.83301 9.16699 8.5 13.5s12.667 8 21 11s17 5.33301 26 7s16.833 2.5 23.5 2.5h38c13.333 0 20 -6.33301 20 -19v-395c0 -7.33301 3 -13.166 9 -17.499s12.667 -8.5 20 -12.5s14 -8.16699 20 -12.5s9 -9.83301 9 -16.5z" />
    <glyph glyph-name="idieresis" unicode="&#xef;" horiz-adv-x="270" 
d="M197 587c0 -20.667 -12 -31 -36 -31c-23.333 0 -35 10.333 -35 31s11.667 31 35 31c24 0 36 -10.333 36 -31zM90 587c0 -20.667 -11.667 -31 -35 -31s-35 10.333 -35 31s11.667 31 35 31s35 -10.333 35 -31zM215 15c0 -10 -6.33301 -14.999 -19 -14.999h-156
c-13.333 0 -20 5 -20 15c0 7.33301 3 13.166 9 17.499s12.833 8.33301 20.5 12s14.5 7.5 20.5 11.5s9 9.66699 9 17v347c0 7.33301 -3 12.166 -9 14.499s-12.833 4 -20.5 5s-14.5 2.16699 -20.5 3.5s-9 5 -9 11c0 4.66699 2.83301 9.16699 8.5 13.5s12.667 8 21 11
s17 5.33301 26 7s16.833 2.5 23.5 2.5h38c13.333 0 20 -6.33301 20 -19v-395c0 -7.33301 3 -13.166 9 -17.499s12.667 -8.5 20 -12.5s14 -8.16699 20 -12.5s9 -9.83301 9 -16.5z" />
    <glyph glyph-name="eth" unicode="&#xf0;" horiz-adv-x="491" 
d="M436 269c0 -47.333 -5.49902 -88.002 -16.499 -122.002s-25.833 -61.833 -44.5 -83.5s-40.334 -37.667 -65.001 -48s-51 -15.5 -79 -15.5c-54.667 0 -103 18 -145 54c-10.667 9.33301 -20.167 21.5 -28.5 36.5s-15.166 31.167 -20.499 48.5s-9.5 35.333 -12.5 54
s-4.5 36.334 -4.5 53.001c0 34 4.33301 65.833 13 95.5s21.5 55.5 38.5 77.5s38 39.333 63 52s54.167 19 87.5 19c32 0 59.5 -7 82.5 -21s37.167 -33.667 42.5 -59l-14 69c-3.33301 14.667 -9 30.334 -17 47.001s-19.333 31.667 -34 45c-2.66699 4 -6.66699 7.66699 -12 11
l-51 -32h-27l50 51l-10 4c-10 4 -20.833 7.33301 -32.5 10s-24.167 4 -37.5 4c-12.667 0 -26 -1.66699 -40 -5s-28.667 -5 -44 -5c-9.33301 0 -15 5.33301 -17 16c0 8.66699 4.5 15.5 13.5 20.5s19.833 9 32.5 12s25.5 5 38.5 6s23.5 1.5 31.5 1.5c36 0 71 -7.66699 105 -23
l21 21c9.33301 9.33301 16.166 15.333 20.499 18s9.5 4 15.5 4c18.667 -0.666992 28 -9.66699 28 -27c0 -10.667 -7.66699 -21 -23 -31l-20 -13c20 -16.667 37 -37 51 -61c21.333 -36 36.833 -77.667 46.5 -125s14.5 -100.333 14.5 -159zM355.001 278.998
c0 14.667 -1.33496 29.168 -4.00195 43.501s-7.66699 24.166 -15 29.499c-17.333 28.667 -35.666 49.667 -54.999 63s-38.666 20 -57.999 20c-20 0 -37.5 -4.83301 -52.5 -14.5s-27.667 -23 -38 -40s-18 -36.667 -23 -59s-7.5 -45.833 -7.5 -70.5
c0 -3.33301 0.333008 -10.333 1 -21s2 -23 4 -37s5.5 -28.667 10.5 -44s11.5 -29.5 19.5 -42.5s18.333 -23.833 31 -32.5s28 -13 46 -13c94 0 141 64.333 141 193v25z" />
    <glyph glyph-name="ntilde" unicode="&#xf1;" horiz-adv-x="563" 
d="M384 594c-12 -14.667 -23.6719 -24.5 -35.0049 -29.5s-22.666 -7.5 -33.999 -7.5c-4.66699 0 -12 1.5 -22 4.5s-20.5 6.33301 -31.5 10l-30.5 10c-9.33301 3 -16 4.5 -20 4.5c-9.33301 0 -19.5 -2.5 -30.5 -7.5s-23.833 -16.167 -38.5 -33.5v46
c12.667 14 24.667 23.5 36 28.5s22.333 7.5 33 7.5c4.66699 0 11.834 -1.5 21.501 -4.5s19.834 -6.33301 30.501 -10s20.834 -7 30.501 -10s16.834 -4.5 21.501 -4.5c10 0 20.5 3 31.5 9s23.5 16.667 37.5 32v-45zM507.995 15c0 -10 -6.66504 -14.9961 -19.998 -14.9961
h-156c-13.333 0 -20 5 -20 15c0 6 3.16699 10.667 9.5 14s13.166 6.5 20.499 9.5s14.166 6.33301 20.499 10s9.5 8.5 9.5 14.5v269c0 12 -1.83301 24.333 -5.5 37s-9.16699 24 -16.5 34s-16.5 18.167 -27.5 24.5s-23.5 9.5 -37.5 9.5c-17.333 0 -36.5 -5 -57.5 -15
s-44.5 -23.667 -70.5 -41v-317c0 -6.66699 3 -11.834 9 -15.501s12.667 -7 20 -10s14 -6.16699 20 -9.5s9 -8 9 -14c0 -10 -6.33301 -15 -19 -15h-156c-13.333 0 -20 5 -20 15c0 6 3 10.667 9 14s12.833 6.5 20.5 9.5s14.5 6.33301 20.5 10s9 8.5 9 14.5v357
c0 7.33301 -3 12.166 -9 14.499s-12.833 4 -20.5 5s-14.5 2.16699 -20.5 3.5s-9 5 -9 11c0 4.66699 2.83301 9.16699 8.5 13.5s12.667 8 21 11s17 5.33301 26 7s16.833 2.5 23.5 2.5h38c13.333 0 20 -6.33301 20 -19v-49c28 23.333 54.833 41.666 80.5 54.999
s51.167 20 76.5 20c44.667 0 78.5 -15.167 101.5 -45.5s34.5 -69.5 34.5 -117.5l-1 -268c0 -6.66699 3 -11.834 9 -15.501s12.833 -7 20.5 -10s14.5 -6.16699 20.5 -9.5s9 -8 9 -14z" />
    <glyph glyph-name="ograve" unicode="&#xf2;" horiz-adv-x="495" 
d="M324 540l-26 0.000976562l-125 77c-15.333 9.33301 -23 19.666 -23 30.999c0 8 2.5 14.5 7.5 19.5s11.833 7.5 20.5 7.5c5.33301 0 10.333 -1.33301 15 -4s11.667 -8.66699 21 -18zM440 238.001c0 -36.667 -4.99902 -69.998 -14.999 -99.998s-24.333 -55.833 -43 -77.5
s-40.834 -38.334 -66.501 -50.001s-54.167 -17.5 -85.5 -17.5c-32 0 -60.833 6 -86.5 18s-47.667 28.833 -66 50.5s-32.5 47.5 -42.5 77.5s-15 63 -15 99c0 58.667 11.167 109.167 33.5 151.5s53.5 71.5 93.5 87.5c28.667 11.333 56.334 17 83.001 17c30.667 0 59 -6 85 -18
s48.167 -29.167 66.5 -51.5s32.666 -49.333 42.999 -81s15.5 -66.834 15.5 -105.501zM360.001 234.003c0 66.667 -10.8301 118.331 -32.4971 154.998s-53.834 55 -96.501 55c-19.333 0 -37.333 -4.33301 -54 -13c-26.667 -13.333 -46 -37.166 -58 -71.499
s-18 -74.833 -18 -121.5c0 -26.667 2.5 -51.667 7.5 -75s12.667 -43.5 23 -60.5s23.666 -30.5 39.999 -40.5s35.833 -15 58.5 -15c21.333 0 40.166 4.5 56.499 13.5s30 21.833 41 38.5s19.167 36.334 24.5 59.001s8 48 8 76z" />
    <glyph glyph-name="oacute" unicode="&#xf3;" horiz-adv-x="495" 
d="M314 648c0 -11.333 -7.66699 -21.667 -23 -31l-125 -77h-26l110 113c9.33301 9.33301 16.333 15.333 21 18s9.66699 4 15 4c8.66699 0 15.5 -2.5 20.5 -7.5s7.5 -11.5 7.5 -19.5zM440 237.999c0 -36 -5.00195 -69.001 -15.002 -99.001s-24 -55.833 -42 -77.5
s-40 -38.5 -66 -50.5s-55 -18 -87 -18c-31.333 0 -59.833 5.83301 -85.5 17.5s-47.834 28.334 -66.501 50.001s-33 47.5 -43 77.5s-15 63.333 -15 100c0 58.667 11.167 109.167 33.5 151.5s53.5 71.5 93.5 87.5c28.667 11.333 56.334 17 83.001 17
c30 0 57.833 -5.83301 83.5 -17.5s47.834 -28.5 66.501 -50.5s33.334 -48.833 44.001 -80.5s16 -67.5 16 -107.5zM359.998 233.998c0 30.667 -2.50098 58.8301 -7.50098 84.4971s-12.833 47.834 -23.5 66.501s-24 33.167 -40 43.5s-35.333 15.5 -58 15.5
c-19.333 0 -37.333 -4.33301 -54 -13c-26.667 -13.333 -46 -37.166 -58 -71.499s-18 -74.833 -18 -121.5c0 -26.667 2.33301 -51.5 7 -74.5s12.334 -43.167 23.001 -60.5s24 -31 40 -41s35.667 -15 59 -15c20.667 0 39.167 4.5 55.5 13.5s30 21.833 41 38.5
s19.333 36.334 25 59.001s8.5 48 8.5 76z" />
    <glyph glyph-name="ocircumflex" unicode="&#xf4;" horiz-adv-x="495" 
d="M332 541h-19l-80 74l-80 -74h-19l79 122h40zM440 238c0 -36 -5.00195 -69.001 -15.002 -99.001s-24 -55.833 -42 -77.5s-40 -38.5 -66 -50.5s-55 -18 -87 -18c-31.333 0 -59.833 5.83301 -85.5 17.5s-47.834 28.334 -66.501 50.001s-33 47.5 -43 77.5s-15 63.333 -15 100
c0 58.667 11.167 109.167 33.5 151.5s53.5 71.5 93.5 87.5c28.667 11.333 56.334 17 83.001 17c30 0 57.833 -5.83301 83.5 -17.5s47.834 -28.5 66.501 -50.5s33.334 -48.833 44.001 -80.5s16 -67.5 16 -107.5zM359.998 233.999c0 30.667 -2.50098 58.8301 -7.50098 84.4971
s-12.833 47.834 -23.5 66.501s-24 33.167 -40 43.5s-35.333 15.5 -58 15.5c-19.333 0 -37.333 -4.33301 -54 -13c-26.667 -13.333 -46 -37.166 -58 -71.499s-18 -74.833 -18 -121.5c0 -26.667 2.33301 -51.5 7 -74.5s12.334 -43.167 23.001 -60.5s24 -31 40 -41
s35.667 -15 59 -15c20.667 0 39.167 4.5 55.5 13.5s30 21.833 41 38.5s19.333 36.334 25 59.001s8.5 48 8.5 76z" />
    <glyph glyph-name="otilde" unicode="&#xf5;" horiz-adv-x="495" 
d="M344 594c-12 -14.667 -23.6719 -24.5 -35.0049 -29.5s-22.666 -7.5 -33.999 -7.5c-4.66699 0 -12 1.5 -22 4.5s-20.5 6.33301 -31.5 10l-30.5 10c-9.33301 3 -16 4.5 -20 4.5c-9.33301 0 -19.5 -2.5 -30.5 -7.5s-23.833 -16.167 -38.5 -33.5v46
c12.667 14 24.667 23.5 36 28.5s22.333 7.5 33 7.5c4.66699 0 11.834 -1.5 21.501 -4.5s19.834 -6.33301 30.501 -10s20.834 -7 30.501 -10s16.834 -4.5 21.501 -4.5c10 0 20.5 3 31.5 9s23.5 16.667 37.5 32v-45zM439.995 238c0 -36 -5.00195 -69.001 -15.002 -99.001
s-24 -55.833 -42 -77.5s-40 -38.5 -66 -50.5s-55 -18 -87 -18c-31.333 0 -59.833 5.83301 -85.5 17.5s-47.834 28.334 -66.501 50.001s-33 47.5 -43 77.5s-15 63.333 -15 100c0 58.667 11.167 109.167 33.5 151.5s53.5 71.5 93.5 87.5c28.667 11.333 56.334 17 83.001 17
c30 0 57.833 -5.83301 83.5 -17.5s47.834 -28.5 66.501 -50.5s33.334 -48.833 44.001 -80.5s16 -67.5 16 -107.5zM359.993 233.999c0 30.667 -2.50098 58.8301 -7.50098 84.4971s-12.833 47.834 -23.5 66.501s-24 33.167 -40 43.5s-35.333 15.5 -58 15.5
c-19.333 0 -37.333 -4.33301 -54 -13c-26.667 -13.333 -46 -37.166 -58 -71.499s-18 -74.833 -18 -121.5c0 -26.667 2.33301 -51.5 7 -74.5s12.334 -43.167 23.001 -60.5s24 -31 40 -41s35.667 -15 59 -15c20.667 0 39.167 4.5 55.5 13.5s30 21.833 41 38.5
s19.333 36.334 25 59.001s8.5 48 8.5 76z" />
    <glyph glyph-name="odieresis" unicode="&#xf6;" horiz-adv-x="495" 
d="M320 587c0 -20.667 -11.667 -31 -35 -31s-35 10.333 -35 31s11.667 31 35 31s35 -10.333 35 -31zM214 587c0 -20.667 -11.667 -31 -35 -31s-35 10.333 -35 31s11.667 31 35 31s35 -10.333 35 -31zM440 238c0 -36 -5.00195 -69.001 -15.002 -99.001s-24 -55.833 -42 -77.5
s-40 -38.5 -66 -50.5s-55 -18 -87 -18c-31.333 0 -59.833 5.83301 -85.5 17.5s-47.834 28.334 -66.501 50.001s-33 47.5 -43 77.5s-15 63.333 -15 100c0 58.667 11.167 109.167 33.5 151.5s53.5 71.5 93.5 87.5c28.667 11.333 56.334 17 83.001 17
c30 0 57.833 -5.83301 83.5 -17.5s47.834 -28.5 66.501 -50.5s33.334 -48.833 44.001 -80.5s16 -67.5 16 -107.5zM359.998 233.999c0 30.667 -2.50098 58.8301 -7.50098 84.4971s-12.833 47.834 -23.5 66.501s-24 33.167 -40 43.5s-35.333 15.5 -58 15.5
c-19.333 0 -37.333 -4.33301 -54 -13c-26.667 -13.333 -46 -37.166 -58 -71.499s-18 -74.833 -18 -121.5c0 -26.667 2.33301 -51.5 7 -74.5s12.334 -43.167 23.001 -60.5s24 -31 40 -41s35.667 -15 59 -15c20.667 0 39.167 4.5 55.5 13.5s30 21.833 41 38.5
s19.333 36.334 25 59.001s8.5 48 8.5 76z" />
    <glyph glyph-name="divide" unicode="&#xf7;" horiz-adv-x="445" 
d="M248 390c0 -28.667 -16.333 -43 -49 -43s-49 14.333 -49 43s16.333 43 49 43s49 -14.333 49 -43zM390 265c0 -8 -2.49902 -14 -7.49902 -18s-10.833 -6 -17.5 -6h-321c-17.333 0 -25.333 8 -24 24c1.33301 15.333 9.66602 23 24.999 23h320c16.667 0 25 -7.66699 25 -23z
M248.001 143c0 -28.667 -16.333 -43 -49 -43s-49 14.333 -49 43s16.333 43 49 43s49 -14.333 49 -43zM248.001 390c0 28.667 -16.333 43 -49 43s-49 -14.333 -49 -43s16.333 -43 49 -43s49 14.333 49 43zM248.001 143c0 28.667 -16.333 43 -49 43s-49 -14.333 -49 -43
s16.333 -43 49 -43s49 14.333 49 43zM238.001 390c0 -22 -13 -33 -39 -33s-39 11 -39 33s13 33 39 33s39 -11 39 -33zM238.001 143c0 -22 -12.999 -33 -38.999 -33s-39 11 -39 33s13 33 39 33c13.333 0 23.166 -3 29.499 -9s9.5 -14 9.5 -24z" />
    <glyph glyph-name="oslash" unicode="&#xf8;" horiz-adv-x="495" 
d="M440 238c0 -36 -5.00195 -69.001 -15.002 -99.001s-24 -55.833 -42 -77.5s-40 -38.5 -66 -50.5s-55 -18 -87 -18c-31.333 0 -59.833 5.83301 -85.5 17.5s-47.834 28.334 -66.501 50.001s-33 47.5 -43 77.5s-15 63.333 -15 100c0 58.667 11.167 109.167 33.5 151.5
s53.5 71.5 93.5 87.5c28.667 11.333 56.334 17 83.001 17c30 0 57.833 -5.83301 83.5 -17.5s47.834 -28.5 66.501 -50.5s33.334 -48.833 44.001 -80.5s16 -67.5 16 -107.5zM359.998 233.999c0 30.667 -2.49902 58.8311 -7.49902 84.498s-12.833 47.834 -23.5 66.501
c-8 14 -17.667 25.667 -29 35l-113 -366c9.33301 -4.66699 23.666 -7 42.999 -7c20.667 0 39.167 4.5 55.5 13.5s30 21.833 41 38.5s19.333 36.334 25 59.001s8.5 48 8.5 76zM270.999 436.996c-8.66699 4.66699 -22.001 6.99902 -40.001 6.99902
c-19.333 0 -37.333 -4.33301 -54 -13c-26.667 -13.333 -46 -37.166 -58 -71.499s-18 -74.833 -18 -121.5c0 -26.667 2.33301 -51.5 7 -74.5s12.334 -43.167 23.001 -60.5c7.33301 -12.667 17 -24 29 -34z" />
    <glyph glyph-name="ugrave" unicode="&#xf9;" horiz-adv-x="563" 
d="M334 540l-26 0.000976562l-125 77c-15.333 9.33301 -23 19.666 -23 30.999c0 8 2.5 14.5 7.5 19.5s11.833 7.5 20.5 7.5c5.33301 0 10.333 -1.33301 15 -4s11.667 -8.66699 21 -18zM508 30.001c0 -5.33301 -2.99902 -10.1758 -8.99902 -14.5088s-13.333 -8 -22 -11
s-17.334 -5.33301 -26.001 -7s-15.667 -2.5 -21 -2.5l-34 1c-16 0 -24 8 -24 24v48c-52 -46 -102 -69 -150 -69c-46.667 0 -82.167 15.167 -106.5 45.5s-36.5 70.833 -36.5 121.5v254c0 7.33301 -3 12 -9 14s-12.833 3.33301 -20.5 4s-14.5 1.83398 -20.5 3.50098
s-9 5.83398 -9 12.501c0 4.66699 2.83301 9.16699 8.5 13.5s12.834 8 21.501 11s18.167 5.33301 28.5 7s20.166 2.5 29.499 2.5h29c13.333 0 20 -6.33301 20 -19v-303c0 -13.333 2 -26.666 6 -39.999s10 -25.166 18 -35.499s17.833 -18.666 29.5 -24.999
s25.167 -9.5 40.5 -9.5c32.667 0 73 17 121 51v313c0 7.33301 -3 12 -9 14s-12.833 3.33301 -20.5 4s-14.5 1.83398 -20.5 3.50098s-9 5.83398 -9 12.501c0 9.33301 9.5 17.333 28.5 24s48.5 10 88.5 10c12.667 0 19 -6.33301 19 -19v-406c0 -7.33301 3 -12.166 9 -14.499
s12.833 -4 20.5 -5s14.5 -2.16699 20.5 -3.5s9 -4.66602 9 -9.99902z" />
    <glyph glyph-name="uacute" unicode="&#xfa;" horiz-adv-x="563" 
d="M344 648c0 -11.333 -7.66699 -21.667 -23 -31l-125 -77h-26l110 113c9.33301 9.33301 16.333 15.333 21 18s9.66699 4 15 4c8.66699 0 15.5 -2.5 20.5 -7.5s7.5 -11.5 7.5 -19.5zM508 29.999c0 -5.33301 -2.99902 -10.1758 -8.99902 -14.5088s-13.333 -8 -22 -11
s-17.334 -5.33301 -26.001 -7s-15.667 -2.5 -21 -2.5l-34 1c-16 0 -24 8 -24 24v48c-52 -46 -102 -69 -150 -69c-46.667 0 -82.167 15.167 -106.5 45.5s-36.5 70.833 -36.5 121.5v254c0 7.33301 -3 12 -9 14s-12.833 3.33301 -20.5 4s-14.5 1.83398 -20.5 3.50098
s-9 5.83398 -9 12.501c0 4.66699 2.83301 9.16699 8.5 13.5s12.834 8 21.501 11s18.167 5.33301 28.5 7s20.166 2.5 29.499 2.5h29c13.333 0 20 -6.33301 20 -19v-303c0 -13.333 2 -26.666 6 -39.999s10 -25.166 18 -35.499s17.833 -18.666 29.5 -24.999
s25.167 -9.5 40.5 -9.5c32.667 0 73 17 121 51v313c0 7.33301 -3 12 -9 14s-12.833 3.33301 -20.5 4s-14.5 1.83398 -20.5 3.50098s-9 5.83398 -9 12.501c0 9.33301 9.5 17.333 28.5 24s48.5 10 88.5 10c12.667 0 19 -6.33301 19 -19v-406c0 -7.33301 3 -12.166 9 -14.499
s12.833 -4 20.5 -5s14.5 -2.16699 20.5 -3.5s9 -4.66602 9 -9.99902z" />
    <glyph glyph-name="ucircumflex" unicode="&#xfb;" horiz-adv-x="563" 
d="M357 541h-19l-80 74l-80 -74h-19l79 122h40zM508 30c0 -5.33301 -2.99902 -10.1758 -8.99902 -14.5088s-13.333 -8 -22 -11s-17.334 -5.33301 -26.001 -7s-15.667 -2.5 -21 -2.5l-34 1c-16 0 -24 8 -24 24v48c-52 -46 -102 -69 -150 -69
c-46.667 0 -82.167 15.167 -106.5 45.5s-36.5 70.833 -36.5 121.5v254c0 7.33301 -3 12 -9 14s-12.833 3.33301 -20.5 4s-14.5 1.83398 -20.5 3.50098s-9 5.83398 -9 12.501c0 4.66699 2.83301 9.16699 8.5 13.5s12.834 8 21.501 11s18.167 5.33301 28.5 7
s20.166 2.5 29.499 2.5h29c13.333 0 20 -6.33301 20 -19v-303c0 -13.333 2 -26.666 6 -39.999s10 -25.166 18 -35.499s17.833 -18.666 29.5 -24.999s25.167 -9.5 40.5 -9.5c32.667 0 73 17 121 51v313c0 7.33301 -3 12 -9 14s-12.833 3.33301 -20.5 4
s-14.5 1.83398 -20.5 3.50098s-9 5.83398 -9 12.501c0 9.33301 9.5 17.333 28.5 24s48.5 10 88.5 10c12.667 0 19 -6.33301 19 -19v-406c0 -7.33301 3 -12.166 9 -14.499s12.833 -4 20.5 -5s14.5 -2.16699 20.5 -3.5s9 -4.66602 9 -9.99902z" />
    <glyph glyph-name="udieresis" unicode="&#xfc;" horiz-adv-x="563" 
d="M340 587c0 -20.667 -11.667 -31 -35 -31s-35 10.333 -35 31s11.667 31 35 31s35 -10.333 35 -31zM234 587c0 -20.667 -11.667 -31 -35 -31s-35 10.333 -35 31s11.667 31 35 31s35 -10.333 35 -31zM508 30c0 -5.33301 -2.99902 -10.1758 -8.99902 -14.5088
s-13.333 -8 -22 -11s-17.334 -5.33301 -26.001 -7s-15.667 -2.5 -21 -2.5l-34 1c-16 0 -24 8 -24 24v48c-52 -46 -102 -69 -150 -69c-46.667 0 -82.167 15.167 -106.5 45.5s-36.5 70.833 -36.5 121.5v254c0 7.33301 -3 12 -9 14s-12.833 3.33301 -20.5 4
s-14.5 1.83398 -20.5 3.50098s-9 5.83398 -9 12.501c0 4.66699 2.83301 9.16699 8.5 13.5s12.834 8 21.501 11s18.167 5.33301 28.5 7s20.166 2.5 29.499 2.5h29c13.333 0 20 -6.33301 20 -19v-303c0 -13.333 2 -26.666 6 -39.999s10 -25.166 18 -35.499
s17.833 -18.666 29.5 -24.999s25.167 -9.5 40.5 -9.5c32.667 0 73 17 121 51v313c0 7.33301 -3 12 -9 14s-12.833 3.33301 -20.5 4s-14.5 1.83398 -20.5 3.50098s-9 5.83398 -9 12.501c0 9.33301 9.5 17.333 28.5 24s48.5 10 88.5 10c12.667 0 19 -6.33301 19 -19v-406
c0 -7.33301 3 -12.166 9 -14.499s12.833 -4 20.5 -5s14.5 -2.16699 20.5 -3.5s9 -4.66602 9 -9.99902z" />
    <glyph glyph-name="yacute" unicode="&#xfd;" horiz-adv-x="529" 
d="M364 648c0 -11.333 -7.66699 -21.667 -23 -31l-125 -77h-26l110 113c9.33301 9.33301 16.333 15.333 21 18s9.66699 4 15 4c8.66699 0 15.5 -2.5 20.5 -7.5s7.5 -11.5 7.5 -19.5zM494 473.999c0 -4 -3 -7.33398 -9 -10.001l-20.5 -9
c-7.66699 -3.33301 -15.334 -7.5 -23.001 -12.5s-12.834 -11.833 -15.501 -20.5l-187 -535c-10.667 -30.667 -24.5 -52 -41.5 -64s-35.833 -18.333 -56.5 -19c-9.33301 0 -19.833 1.5 -31.5 4.5s-22.5 7 -32.5 12s-18.333 11 -25 18s-10 14.5 -10 22.5c0 10.667 6 16 18 16
c6 0 11.5 -1.33301 16.5 -4l15.5 -8.5c5.33301 -3 11.333 -5.83301 18 -8.5s15.334 -4 26.001 -4c12 0 23.333 4 34 12s19 20.667 25 38l36 103l-143 417c-3.33301 8.66699 -8.66602 15.5 -15.999 20.5s-14.833 9 -22.5 12s-14.5 5.83301 -20.5 8.5s-9 6.33398 -9 11.001
c1.33301 9.33301 8 14 20 14h161c12.667 0 19 -4.66699 19 -14c0 -4 -2.83301 -7.16699 -8.5 -9.5l-18 -7.5c-6.33301 -2.66699 -12.333 -5.66699 -18 -9s-8.5 -7.33301 -8.5 -12c0 1.33301 0.166992 1.33301 0.5 0s0.833008 -3.66602 1.5 -6.99902l96 -281
c2 -7.33301 4.33301 -11 7 -11c3.33301 0 6 3.66699 8 11l95 281c0.666992 0.666992 1 2.66699 1 6c0 5.33301 -2.83301 9.66602 -8.5 12.999s-11.667 6.33301 -18 9l-18 7.5c-5.66699 2.33301 -8.5 5.5 -8.5 9.5c0 9.33301 6.33301 14 19 14l133 1c12.667 0 19 -5 19 -15z
" />
    <glyph glyph-name="thorn" unicode="&#xfe;" horiz-adv-x="522" 
d="M467 262c0 -34 -4.83398 -66.832 -14.501 -98.499s-24.167 -59.667 -43.5 -84s-43.5 -43.833 -72.5 -58.5s-62.833 -22 -101.5 -22c-12.667 0 -25 1 -37 3s-25.667 5 -41 9v-210c0 -12.667 -10 -19 -30 -19h-29c-6 0 -13.333 0.833008 -22 2.5s-17.167 4 -25.5 7
s-15.5 6.5 -21.5 10.5s-9 8.66699 -9 14c0 6 3 9.66699 9 11s12.833 2.5 20.5 3.5s14.5 2.66699 20.5 5s9 7.16602 9 14.499l1 795c0 7.33301 -3 12 -9 14s-12.833 3.5 -20.5 4.5s-14.5 2.33301 -20.5 4s-9 5.5 -9 11.5c0 4.66699 3 9.16699 9 13.5s13.167 8 21.5 11
s16.833 5.33301 25.5 7s16 2.5 22 2.5h29c20 0 30 -6.33301 30 -19v-215c0 -8.66699 2.66699 -13 8 -13c2.66699 0 6.33398 1.33301 11.001 4c28.667 14.667 59 22 91 22c29.333 0 56.166 -6 80.499 -18s45.333 -28.5 63 -49.5s31.334 -45.333 41.001 -73
s14.5 -57.5 14.5 -89.5zM390.999 261.001c0 54 -11.668 97 -35.001 129s-56.333 48 -99 48c-6 0 -14.667 -0.5 -26 -1.5s-22.5 -3 -33.5 -6s-20.5 -7.16699 -28.5 -12.5s-12 -12 -12 -20v-316c0 -8 3.16699 -14.167 9.5 -18.5s13.833 -7.5 22.5 -9.5
s17.334 -3.16699 26.001 -3.5s15.667 -0.5 21 -0.5c20.667 0 40.5 4.5 59.5 13.5s35.5 22.333 49.5 40s25.167 39.667 33.5 66s12.5 56.833 12.5 91.5z" />
    <glyph glyph-name="ydieresis" unicode="&#xff;" horiz-adv-x="529" 
d="M360 587c0 -20.667 -11.667 -31 -35 -31s-35 10.333 -35 31s11.667 31 35 31s35 -10.333 35 -31zM254 587c0 -20.667 -11.667 -31 -35 -31s-35 10.333 -35 31s11.667 31 35 31s35 -10.333 35 -31zM494 474c0 -4 -3 -7.33398 -9 -10.001l-20.5 -9
c-7.66699 -3.33301 -15.334 -7.5 -23.001 -12.5s-12.834 -11.833 -15.501 -20.5l-187 -535c-10.667 -30.667 -24.5 -52 -41.5 -64s-35.833 -18.333 -56.5 -19c-9.33301 0 -19.833 1.5 -31.5 4.5s-22.5 7 -32.5 12s-18.333 11 -25 18s-10 14.5 -10 22.5c0 10.667 6 16 18 16
c6 0 11.5 -1.33301 16.5 -4l15.5 -8.5c5.33301 -3 11.333 -5.83301 18 -8.5s15.334 -4 26.001 -4c12 0 23.333 4 34 12s19 20.667 25 38l36 103l-143 417c-3.33301 8.66699 -8.66602 15.5 -15.999 20.5s-14.833 9 -22.5 12s-14.5 5.83301 -20.5 8.5s-9 6.33398 -9 11.001
c1.33301 9.33301 8 14 20 14h161c12.667 0 19 -4.66699 19 -14c0 -4 -2.83301 -7.16699 -8.5 -9.5l-18 -7.5c-6.33301 -2.66699 -12.333 -5.66699 -18 -9s-8.5 -7.33301 -8.5 -12c0 1.33301 0.166992 1.33301 0.5 0s0.833008 -3.66602 1.5 -6.99902l96 -281
c2 -7.33301 4.33301 -11 7 -11c3.33301 0 6 3.66699 8 11l95 281c0.666992 0.666992 1 2.66699 1 6c0 5.33301 -2.83301 9.66602 -8.5 12.999s-11.667 6.33301 -18 9l-18 7.5c-5.66699 2.33301 -8.5 5.5 -8.5 9.5c0 9.33301 6.33301 14 19 14l133 1c12.667 0 19 -5 19 -15z
" />
    <glyph glyph-name="dotlessi" unicode="&#x131;" horiz-adv-x="270" 
d="M215 15c0 -10 -6.33301 -14.999 -19 -14.999h-156c-13.333 0 -20 5 -20 15c0 7.33301 3 13.166 9 17.499s12.833 8.33301 20.5 12s14.5 7.5 20.5 11.5s9 9.66699 9 17v347c0 7.33301 -3 12.166 -9 14.499s-12.833 4 -20.5 5s-14.5 2.16699 -20.5 3.5s-9 5 -9 11
c0 4.66699 2.83301 9.16699 8.5 13.5s12.667 8 21 11s17 5.33301 26 7s16.833 2.5 23.5 2.5h38c13.333 0 20 -6.33301 20 -19v-395c0 -7.33301 3 -13.166 9 -17.499s12.667 -8.5 20 -12.5s14 -8.16699 20 -12.5s9 -9.83301 9 -16.5z" />
    <glyph glyph-name="Lslash" unicode="&#x141;" horiz-adv-x="514" 
d="M-41 138l255 343h63l-253 -343h-65zM479 17c0 -11.333 -6.66699 -17.001 -20 -17.001h-419c-13.333 0 -20 5 -20 15c0 6 3 10.667 9 14s12.833 6.33301 20.5 9s14.5 5.66699 20.5 9s9 8.33301 9 15v539c0 6.66699 -3 11.834 -9 15.501s-12.833 7 -20.5 10
s-14.5 6.16699 -20.5 9.5s-9 8 -9 14c0 9.33301 7 14 21 14h156c12 0 18 -4.66699 18 -14c0 -6 -3 -10.667 -9 -14s-12.833 -6.5 -20.5 -9.5s-14.5 -6.16699 -20.5 -9.5s-9 -8 -9 -14v-534c0 -12.667 6.66699 -19 20 -19h241c6 0 10.667 3 14 9s6.5 12.833 9.5 20.5
s6.16699 14.5 9.5 20.5s8 9 14 9c10 0 15 -5.66699 15 -17v-75z" />
    <glyph glyph-name="lslash" unicode="&#x142;" horiz-adv-x="260" 
d="M-41 138l255 343h63l-253 -343h-65zM215 15c0 -10 -6.33301 -15 -19 -15h-156c-13.333 0 -20 5 -20 15c0 6 3 10.667 9 14s12.833 6.33301 20.5 9s14.5 5.83398 20.5 9.50098s9 8.83398 9 15.501v582c0 7.33301 -3 12 -9 14s-12.833 3.5 -20.5 4.5s-14.5 2.33301 -20.5 4
s-9 5.5 -9 11.5c0 4.66699 3 9.16699 9 13.5s13.167 8 21.5 11s16.833 5.33301 25.5 7s16 2.5 22 2.5h39c13.333 0 20 -6.66699 20 -20v-630c0 -6.66699 3 -11.834 9 -15.501s12.667 -6.83398 20 -9.50098s14 -5.66699 20 -9s9 -8 9 -14z" />
    <glyph glyph-name="OE" unicode="&#x152;" horiz-adv-x="921" 
d="M801 49c7.33301 0 13 3 17 9s7.5 12.667 10.5 20s6.16699 14 9.5 20s8 9 14 9c9.33301 0 14 -6.33301 14 -19v-67c0 -14 -7 -21 -21 -21h-436c-11.333 -0 -18.333 3.33301 -21 10c-30 -9.33301 -61 -14 -93 -14h-13c-174.667 0 -262 112 -262 336s87.333 336 262 336h13
c34 0 65 -5 93 -15c2 7.33301 8.33301 11 19 11h439c13.333 0 20 -6.66699 20 -20v-68c0 -12.667 -5 -19 -15 -19c-6 0 -10.667 3 -14 9s-6.5 12.667 -9.5 20s-6.16699 14 -9.5 20s-8 9 -14 9h-261c-12.667 0 -19 -6 -19 -18v-216c0 -13.333 7 -20 21 -20h113
c6 0 10.833 3 14.5 9s7 12.833 10 20.5s6.16699 14.5 9.5 20.5s8 9 14 9c10 0 15 -6.66699 15 -20v-124c0 -14.667 -5 -22 -15 -22c-6 0 -10.667 3 -14 9s-6.5 12.833 -9.5 20.5s-6.33301 14.5 -10 20.5s-8.5 9 -14.5 9h-113c-14 0 -21 -7.33301 -21 -22v-225
c0 -11.333 5.66699 -17 17 -17h260zM384 584c-26 20 -57.667 31.667 -95 35c-57.333 -4.66699 -103.5 -31.167 -138.5 -79.5s-52.5 -117.5 -52.5 -207.5s17.5 -159.167 52.5 -207.5s81.167 -74.833 138.5 -79.5c37.333 3.33301 69 15 95 35c25.333 19.333 46 45.333 62 78
l1 347c-16.667 34 -37.667 60.333 -63 79z" />
    <glyph glyph-name="oe" unicode="&#x153;" horiz-adv-x="800" 
d="M745 252c0 -10 -5.33105 -15.001 -15.998 -15.001h-285c0 -28 3.16699 -53.833 9.5 -77.5s15.666 -44 27.999 -61s27.333 -30.333 45 -40s37.5 -14.5 59.5 -14.5c30.667 0 66 8.33301 106 25c13.333 0 20 -4.33301 20 -13c0 -8 -5.5 -15.5 -16.5 -22.5s-24 -13 -39 -18
s-30.167 -9 -45.5 -12s-27 -4.5 -35 -4.5c-32.667 0 -64.834 8 -96.501 24s-57.167 38 -76.5 66c-17.333 -32 -41.833 -56 -73.5 -72s-64.834 -24 -99.501 -24c-31.333 0 -59.833 5.83301 -85.5 17.5s-47.834 28.334 -66.501 50.001s-33 47.5 -43 77.5s-15 63.333 -15 100
c0 38.667 5.16699 73.834 15.5 105.501s24.833 58.667 43.5 81s40.834 39.5 66.501 51.5s53.834 18 84.501 18c34 0 66.167 -8 96.5 -24s54.5 -39 72.5 -69c20 30.667 45.333 54.5 76 71.5s62 25.5 94 25.5c58.667 0 102.667 -21.333 132 -64s44 -103.334 44 -182.001z
M676.002 295.999c-3.33301 56 -13.833 96.333 -31.5 121s-46.167 37 -85.5 37c-35.333 0 -61.333 -14.167 -78 -42.5s-27.667 -66.833 -33 -115.5c0 -13.333 6.33301 -20 19 -20h190c14 0 20.333 6.66699 19 20zM360.002 257.999c0 58.667 -11.001 104.332 -33.001 136.999
s-54 49 -96 49c-19.333 0 -37.333 -4.33301 -54 -13c-26.667 -13.333 -46 -37.166 -58 -71.499s-18 -74.833 -18 -121.5c0 -26.667 2.33301 -51.5 7 -74.5s12.334 -43.167 23.001 -60.5s24 -31 40 -41s35.667 -15 59 -15c20 0 38.167 4.33301 54.5 13s30 21 41 37
s19.5 35 25.5 57s9 46.333 9 73v31z" />
    <glyph glyph-name="Scaron" unicode="&#x160;" horiz-adv-x="464" 
d="M142 809c0 -9.33301 1.50195 -18.502 4.50195 -27.502s7.83301 -16.833 14.5 -23.5c6.66699 -7.33301 14.667 -12.666 24 -15.999s17.666 -4.66602 24.999 -3.99902c8 0 16.333 1.5 25 4.5s16.334 7.5 23.001 13.5c7.33301 7.33301 12.833 15.833 16.5 25.5
s5.5 18.834 5.5 27.501h55c0 -14 -2.83301 -28.333 -8.5 -43s-13.834 -27.834 -24.501 -39.501s-23.667 -21.167 -39 -28.5s-32.333 -11 -51 -11s-35.5 3.5 -50.5 10.5s-27.833 16.167 -38.5 27.5s-18.834 24.333 -24.501 39s-8.5 29.667 -8.5 45h52zM409.002 185.998
c0 -33.333 -4.99805 -62.167 -14.998 -86.5s-24 -44.333 -42 -60s-39.167 -27.334 -63.5 -35.001s-50.5 -11.5 -78.5 -11.5c-25.333 0 -53 3.33301 -83 10s-63 17.667 -99 33l-8 96v4c0 11.333 4.33301 17 13 17c14 0 23 -6.66699 27 -20l13 -39
c12 -12 28.833 -23.333 50.5 -34s48.5 -16 80.5 -16c44 0 76.333 11.5 97 34.5s31 55.5 31 97.5c0 22.667 -10.833 45.334 -32.5 68.001s-57.834 44.667 -108.501 66s-90.5 47.5 -119.5 78.5s-43.5 67.5 -43.5 109.5c0 27.333 4.83301 51.666 14.5 72.999
s23 39.166 40 53.499s37 25.333 60 33s47.833 11.5 74.5 11.5c23.333 0 47.666 -3.16699 72.999 -9.5s52 -16.5 80 -30.5l9 -96c0 -7.33301 -1.16699 -12.666 -3.5 -15.999s-7.16602 -5 -14.499 -5c-10.667 0 -18 6.66699 -22 20l-13 39c-12 11.333 -26.667 21.833 -44 31.5
s-38 14.5 -62 14.5c-38.667 0 -67.334 -10.167 -86.001 -30.5s-28 -46.5 -28 -78.5c0 -26 12.167 -51.167 36.5 -75.5s61.833 -47.166 112.5 -68.499s89 -46.333 115 -75s39 -63 39 -103z" />
    <glyph glyph-name="scaron" unicode="&#x161;" horiz-adv-x="421" 
d="M122 649c0 -9.33301 1.50195 -18.502 4.50195 -27.502s7.83301 -16.833 14.5 -23.5c6.66699 -7.33301 14.667 -12.666 24 -15.999s17.666 -4.66602 24.999 -3.99902c8 0 16.333 1.5 25 4.5s16.334 7.5 23.001 13.5c7.33301 7.33301 12.833 15.833 16.5 25.5
s5.5 18.834 5.5 27.501h55c0 -14 -2.83301 -28.333 -8.5 -43s-13.834 -27.834 -24.501 -39.501s-23.667 -21.167 -39 -28.5s-32.333 -11 -51 -11s-35.5 3.5 -50.5 10.5s-27.833 16.167 -38.5 27.5s-18.834 24.333 -24.501 39s-8.5 29.667 -8.5 45h52zM366.002 135.998
c0 -46 -14.666 -80.333 -43.999 -103s-72.333 -34 -129 -34c-23.333 0 -47.833 2.66699 -73.5 8s-52.5 14.333 -80.5 27l-19 102c0 10.667 8 16 24 16c9.33301 0 15.666 -5 18.999 -15l15 -44c6.66699 -14.667 17.834 -27 33.501 -37s36.5 -15 62.5 -15
c40 0 69.333 9.33301 88 28s28 42 28 70c0 34 -42.333 66.333 -127 97c-84 30.667 -126 77.667 -126 141c0 38 14.167 67.5 42.5 88.5s68.5 31.5 120.5 31.5c20 0 40.667 -2.16699 62 -6.5s42.666 -11.5 63.999 -21.5l19 -102c0 -10 -6.33301 -15 -19 -15
s-20.667 4.66699 -24 14l-15 44c-9.33301 14.667 -19.833 26.667 -31.5 36s-27.5 14 -47.5 14c-32 0 -55.833 -7 -71.5 -21s-23.5 -32.333 -23.5 -55c0 -39.333 42.333 -74.333 127 -105c44 -16 76 -35.833 96 -59.5s30 -51.5 30 -83.5z" />
    <glyph glyph-name="Ydieresis" unicode="&#x178;" horiz-adv-x="612" 
d="M391 771c0 -20.667 -11.667 -31 -35 -31s-35 10.333 -35 31s11.667 31 35 31s35 -10.333 35 -31zM285 771c0 -20.667 -11.667 -31 -35 -31s-35 10.333 -35 31s11.667 31 35 31s35 -10.333 35 -31zM557 649c0 -6 -3 -10.668 -9 -14.001s-13 -6.33301 -21 -9
s-15.833 -5.66699 -23.5 -9s-13.167 -8.33301 -16.5 -15l-145 -273c-8 -14.667 -11.333 -25.667 -10 -33v-232c0 -6.66699 3 -11.834 9 -15.501s12.833 -7 20.5 -10s14.5 -6.16699 20.5 -9.5s9 -8 9 -14c0 -10 -6.66699 -15 -20 -15h-156c-12.667 0 -19 5 -19 15
c0 6 3 10.667 9 14s12.667 6.5 20 9.5s14 6.33301 20 10s9 8.5 9 14.5v234c0 9.33301 -3.33301 20.333 -10 33l-155 272c-3.33301 6 -8.83301 10.667 -16.5 14s-15.334 6.5 -23.001 9.5s-14.5 6.16699 -20.5 9.5s-9 8 -9 14c0 10 6.66699 15 20 15h165
c13.333 0 20 -5 20 -15c0 -4.66699 -2.66699 -8.16699 -8 -10.5s-12.666 -5.16602 -21.999 -8.49902l-14 -5c-4.66699 -0.666992 -7 -3.66699 -7 -9c0 -3.33301 1 -7 3 -11l120 -217c3.33301 -5.33301 6.33301 -8 9 -8c2 0 4.66699 2.66699 8 8l116 217c2 4 3 7.33301 3 10
c0 4 -2.66699 6 -8 6l-15 4c-10 2.66699 -17.333 6.33398 -22 11.001s-7 9 -7 13c0 10 6.66699 15 20 15h136c13.333 0 20 -5 20 -15z" />
    <glyph glyph-name="Zcaron" unicode="&#x17d;" horiz-adv-x="530" 
d="M192 809c0 -9.33301 1.50195 -18.502 4.50195 -27.502s7.83301 -16.833 14.5 -23.5c6.66699 -7.33301 14.667 -12.666 24 -15.999s17.666 -4.66602 24.999 -3.99902c8 0 16.333 1.5 25 4.5s16.334 7.5 23.001 13.5c7.33301 7.33301 12.833 15.833 16.5 25.5
s5.5 18.834 5.5 27.501h55c0 -14 -2.83301 -28.333 -8.5 -43s-13.834 -27.834 -24.501 -39.501s-23.667 -21.167 -39 -28.5s-32.333 -11 -51 -11s-35.5 3.5 -50.5 10.5s-27.833 16.167 -38.5 27.5s-18.834 24.333 -24.501 39s-8.5 29.667 -8.5 45h52zM475.002 19.998
c0 -13.333 -6.66699 -19.999 -20 -19.999h-415c-13.333 0 -20 6.66699 -20 20v19c0 6.66699 1.66699 13 5 19s6.66602 11.667 9.99902 17l331 529c0.666992 0.666992 1 2 1 4c0 2.66699 -2 4 -6 4h-242c-10 0 -17.667 -3 -23 -9s-9.66602 -12.667 -12.999 -20l-9.5 -20
c-3 -6 -7.5 -9 -13.5 -9c-10 0 -15 9.66699 -15 29v62c0 12.667 6.66699 19 20 19h375c13.333 0 20 -6.33301 20 -19v-20c0 -7.33301 -1.66699 -14 -5 -20s-6.66602 -11.667 -9.99902 -17l-331 -529c-0.666992 -3.33301 -1.16699 -5.33301 -1.5 -6
s-0.5 -0.333984 -0.5 0.999023c0 -2 2.33301 -3 7 -3h281c10 0 17.667 3 23 9s9.66602 12.667 12.999 20l9.5 20c3 6 7.83301 9 14.5 9c3.33301 0 6.5 -2.5 9.5 -7.5s4.5 -12.167 4.5 -21.5z" />
    <glyph glyph-name="zcaron" unicode="&#x17e;" horiz-adv-x="426" 
d="M122 649c0 -9.33301 1.50195 -18.502 4.50195 -27.502s7.83301 -16.833 14.5 -23.5c6.66699 -7.33301 14.667 -12.666 24 -15.999s17.666 -4.66602 24.999 -3.99902c8 0 16.333 1.5 25 4.5s16.334 7.5 23.001 13.5c7.33301 7.33301 12.833 15.833 16.5 25.5
s5.5 18.834 5.5 27.501h55c0 -14 -2.83301 -28.333 -8.5 -43s-13.834 -27.834 -24.501 -39.501s-23.667 -21.167 -39 -28.5s-32.333 -11 -51 -11s-35.5 3.5 -50.5 10.5s-27.833 16.167 -38.5 27.5s-18.834 24.333 -24.501 39s-8.5 29.667 -8.5 45h52zM352.002 -0.00195312
h-311.998c-13.333 0 -20 6.66699 -20 20c0 6.66699 0.833008 12.334 2.5 17.001s4.16699 9.66699 7.5 15l244 385c0 1.33301 0.166992 2.16602 0.5 2.49902s0.5 0.833008 0.5 1.5s0.333008 1.33398 1 2.00098c0 4 -4.33301 6 -13 6h-164c-7.33301 0 -13.333 -3 -18 -9
s-8.83398 -12.667 -12.501 -20s-7.66699 -14 -12 -20s-9.83301 -9 -16.5 -9c-13.333 0 -20 6.33301 -20 19l20 78h312c12.667 0 19 -6.66699 19 -20c0 -10.667 -3.33301 -21.334 -10 -32.001l-244 -374c-1.33301 -6.66699 -2 -9 -2 -7c0 -4 4.33301 -6 13 -6h165
c6.66699 0 12.167 3 16.5 9s8.5 12.667 12.5 20s8.16699 14 12.5 20s10.166 9 17.499 9c12.667 0 19 -6.33301 19 -19z" />
    <glyph glyph-name="florin" unicode="&#x192;" horiz-adv-x="407" 
d="M352 644c0 -12.667 -6.66699 -19 -20 -19c-36 0 -62.833 -9.66699 -80.5 -29s-26.5 -52 -26.5 -98c0 -6.66699 3 -10 9 -10h49c13.333 0 20 -8 20 -24c0 -16.667 -6.33301 -25 -19 -25h-50c-6 0 -9 -3.33301 -9 -10v-450c0 -58.667 -15.167 -101 -45.5 -127
s-76.833 -39 -139.5 -39c-13.333 0 -20 6.66699 -20 20c0 12.667 6.66699 19 20 19c36 0 62.833 9.66699 80.5 29s26.5 52 26.5 98v442c0 12 -6.66699 18 -20 18h-19c-13.333 0 -20 8.33301 -20 25c0 16 6.66699 24 20 24h29c6.66699 0 10 3.33301 10 10
c0 58.667 15.167 101 45.5 127s76.833 39 139.5 39c13.333 0 20 -6.66699 20 -20z" />
    <glyph glyph-name="circumflex" unicode="&#x2c6;" horiz-adv-x="273" 
d="M218 541h-19l-80 74l-80 -74h-19l79 122h40z" />
    <glyph glyph-name="caron" unicode="&#x2c7;" horiz-adv-x="273" 
d="M218 663l-79 -122h-40l-79 122h19l80 -74l80 74h19z" />
    <glyph glyph-name="uni02C9" unicode="&#x2c9;" horiz-adv-x="327" 
d="M272 583h-252v62h252v-62z" />
    <glyph glyph-name="breve" unicode="&#x2d8;" horiz-adv-x="320" 
d="M82 659c0 -18 5.83594 -31.998 17.5029 -41.998s25.167 -15 40.5 -15c17.333 0 31.666 5.66699 42.999 17s17 24.666 17 39.999h65c0 -14 -2.83301 -28.333 -8.5 -43s-13.834 -27.834 -24.501 -39.501s-23.667 -21.167 -39 -28.5s-32.333 -11 -51 -11
s-35.5 3.5 -50.5 10.5s-27.833 16.167 -38.5 27.5s-18.834 24.333 -24.501 39s-8.5 29.667 -8.5 45h62z" />
    <glyph glyph-name="dotaccent" unicode="&#x2d9;" horiz-adv-x="155" 
d="M100 771c0 -20.667 -13.333 -31 -40 -31s-40 10.333 -40 31s13.333 31 40 31s40 -10.333 40 -31z" />
    <glyph glyph-name="ring" unicode="&#x2da;" horiz-adv-x="214" 
d="M159 606c0 -19.333 -6.83496 -35.833 -20.502 -49.5s-30.167 -20.5 -49.5 -20.5s-35.666 6.66699 -48.999 20s-20 30 -20 50c0 17.333 6.33301 33.166 19 47.499s29.334 21.5 50.001 21.5c18 0 34.167 -6.66699 48.5 -20s21.5 -29.666 21.5 -48.999zM127.998 606
c0 9.33301 -3.83203 18 -11.499 26s-16.834 12 -27.501 12c-10 0 -19 -3.66699 -27 -11s-12 -16.333 -12 -27c0 -11.333 3.66699 -20.833 11 -28.5s16.666 -11.5 27.999 -11.5c10.667 0 19.834 3.83301 27.501 11.5s11.5 17.167 11.5 28.5z" />
    <glyph glyph-name="ogonek" unicode="&#x2db;" horiz-adv-x="269" 
d="M214 -188c-13.333 -6 -27.834 -10.167 -43.501 -12.5s-33.167 -3.5 -52.5 -3.5c-11.333 0 -22.833 1.66699 -34.5 5s-22.167 9.5 -31.5 18.5s-17 21.5 -23 37.5s-9 36.667 -9 62c0 22 2 48.667 6 80c0.666992 0.666992 6 1 16 1h41c-4 -23.333 -6.83301 -44 -8.5 -62
s-2.5 -33.333 -2.5 -46c0 -22.667 6.33301 -38.167 19 -46.5s29 -12.5 49 -12.5c22.667 0 47.334 8.33301 74.001 25v-46z" />
    <glyph glyph-name="tilde" unicode="&#x2dc;" horiz-adv-x="318" 
d="M263 594c-12.667 -14.667 -24.668 -24.5 -36.001 -29.5s-22.666 -7.5 -33.999 -7.5c-4.66699 0 -11.834 1.5 -21.501 4.5s-19.834 6.33301 -30.501 10s-20.834 7 -30.501 10s-16.834 4.5 -21.501 4.5c-10 0 -20.5 -3 -31.5 -9s-23.5 -16.667 -37.5 -32v46
c12.667 14 24.667 23.5 36 28.5s22.333 7.5 33 7.5c4.66699 0 11.834 -1.5 21.501 -4.5s19.834 -6.33301 30.501 -10s20.834 -7 30.501 -10s16.834 -4.5 21.501 -4.5c10 0 20.5 3 31.5 9s23.833 16.667 38.5 32v-45z" />
    <glyph glyph-name="hungarumlaut" unicode="&#x2dd;" horiz-adv-x="372" 
d="M317 648c0 -11.333 -7.66699 -21.667 -23 -31l-125 -77h-26l110 113c9.33301 9.33301 16.333 15.333 21 18s9.66699 4 15 4c8.66699 0 15.5 -2.5 20.5 -7.5s7.5 -11.5 7.5 -19.5zM194 647.999c0 -11.333 -7.66699 -21.667 -23 -31l-125 -77h-26l110 113
c9.33301 9.33301 16.333 15.333 21 18s9.66699 4 15 4c8.66699 0 15.5 -2.5 20.5 -7.5s7.5 -11.5 7.5 -19.5z" />
    <glyph glyph-name="uni037E" unicode="&#x37e;" horiz-adv-x="172" 
d="M117 230c0 -28 -16.333 -42 -49 -42c-32 0 -48 14 -48 42c0 28.667 16 43 48 43c32.667 0 49 -14.333 49 -43zM117 24c0 -9.33301 -1.16699 -18.833 -3.5 -28.5s-5.83301 -18.5 -10.5 -26.5s-11 -14.5 -19 -19.5s-17.333 -7.5 -28 -7.5c-16 0 -24 5.66699 -24 17
c0 4.66699 1.66699 8 5 10s7 3.66699 11 5c0 0.666992 0.333008 1 1 1c2.66699 0 4.33398 0.333008 5.00098 1c7.33301 2 12.166 5.33301 14.499 10s3.83301 9 4.5 13h-5c-32 0 -48 14.333 -48 43s16 43 48 43c32.667 0 49 -14.333 49 -43v-18z" />
    <glyph glyph-name="uni03A9" unicode="&#x3a9;" horiz-adv-x="596" 
d="M406 15c0 -10 -6.33691 -15.0078 -19.0039 -15.0078l-57 -1c-13.333 0 -20 5.33301 -20 16v107l30 13c8.66699 4 18.334 9 29.001 15s20.667 13 30 21c18.667 15.333 33.5 37.666 44.5 66.999s16.5 70.666 16.5 123.999c0 32.667 -3 64.167 -9 94.5
s-16.333 57.333 -31 81s-34.334 42.667 -59.001 57s-55.667 21.5 -93 21.5c-36 0 -66.167 -7.66699 -90.5 -23s-44 -35.166 -59 -59.499s-25.667 -51.666 -32 -81.999s-9.5 -60.5 -9.5 -90.5c0 -29.333 1.5 -54 4.5 -74s7.33301 -37 13 -51s12.334 -25.833 20.001 -35.5
s16.5 -19.5 26.5 -29.5c9.33301 -9.33301 18.833 -17.166 28.5 -23.499s18.834 -11.166 27.501 -14.499c10 -4 19.667 -7.33301 29 -10v-27.5c0 -10.333 -0.166992 -20.5 -0.5 -30.5s-0.5 -19.5 -0.5 -28.5v-22.5c0 -10 -6.33301 -15 -19 -15h-66c-13.333 0 -20 5 -20 15
c0 6 3.5 10.667 10.5 14s14.333 6.5 22 9.5s14.5 6.16699 20.5 9.5s8 8.33301 6 15c-14.667 5.33301 -29 12 -43 20c-12 7.33301 -24.5 16.333 -37.5 27s-24.167 23.667 -33.5 39c-8 12.667 -15.833 23.5 -23.5 32.5s-14.667 20.167 -21 33.5s-11.333 31.333 -15 54
s-5.5 54 -5.5 94c0 6.66699 0.333008 18.834 1 36.501s3.5 37.834 8.5 60.501s12.833 46.334 23.5 71.001s25.834 47.167 45.501 67.5s44.834 37.166 75.501 50.499s68 20 112 20c44.667 0 82.334 -6.5 113.001 -19.5s55.834 -29.667 75.501 -50s35 -42.666 46 -66.999
s19 -47.833 24 -70.5s8 -43.167 9 -61.5s1.5 -31.5 1.5 -39.5c-1.33301 -20 -3.83301 -41.167 -7.5 -63.5s-8.33398 -44 -14.001 -65s-12.167 -40.333 -19.5 -58s-15 -31.167 -23 -40.5c-12 -13.333 -24.667 -24.666 -38 -33.999s-25.666 -16.666 -36.999 -21.999
c-12.667 -6.66699 -25.334 -11.667 -38.001 -15c-1.33301 -6 0.5 -10.833 5.5 -14.5s10.667 -7 17 -10s12.166 -6.16699 17.499 -9.5s8 -7.66602 8 -12.999z" />
    <glyph glyph-name="pi" unicode="&#x3c0;" horiz-adv-x="575" 
d="M396 497c-12.667 0 -18.998 -6.66504 -18.998 -19.998v-213c0 -3.33301 -2.5 -5.33301 -7.5 -6s-10.167 -0.833984 -15.5 -0.500977s-9.33301 0.833008 -12 1.5s-1.33398 0.666992 3.99902 0c6.66699 -2.66699 10.667 -5.33398 12 -8.00098s1.33301 -4.66699 0 -6
s-3.16602 -2 -5.49902 -2s-3.5 1.66699 -3.5 5c0 -2.66699 -1 -5.33398 -3 -8.00098s-4 -5 -6 -7s-4 -3 -6 -3s-3 1.66699 -3 5l-2 20c0 3.33301 -0.666992 5.5 -2 6.5s-3 1.66699 -5 2s-3.66699 0.833008 -5 1.5s-2 2.33398 -2 5.00098
c0 5.33301 -0.833008 6.83301 -2.5 4.5s-3.33398 -5.5 -5.00098 -9.5s-3.33398 -7 -5.00098 -9s-2.5 0.333008 -2.5 7v214c0 6.66699 -2 11.667 -6 15s-9 5 -15 5h117zM504.002 19.002c0 -13.333 -6.66699 -20 -20 -20c-62.667 0 -109 13 -139 39s-45 68.333 -45 127v196
l77 -8v-188c0 -46 8.83301 -78.667 26.5 -98s44.5 -29 80.5 -29c13.333 0 20 -6.33301 20 -19zM520.002 458.002c0 -12.667 -4.99805 -19 -14.998 -19c-6 0 -10.667 3 -14 9s-6.5 12.667 -9.5 20s-6.33301 14 -10 20s-8.83398 9 -15.501 9h-204
c-12.667 0 -19 -6.66699 -19 -20v-413v-25v-24c0 -10 -7 -15 -21 -15h-36c-12.667 0 -19 5 -19 15v13c0 3.33301 -0.166992 6.5 -0.5 9.5s-0.5 6.33301 -0.5 10v15.5v414c0 13.333 -7 20 -21 20h-51c-6.66699 0 -11.834 -3 -15.501 -9s-7 -12.667 -10 -20
s-6.16699 -14 -9.5 -20s-8 -9 -14 -9c-10 0 -15 6.33301 -15 19v69c0 12.667 7 19 21 19h459c12.667 0 19 -6.33301 19 -19z" />
    <glyph glyph-name="endash" unicode="&#x2013;" horiz-adv-x="515" 
d="M460 255c0 -6.66699 -2.5 -11.667 -7.5 -15s-10.833 -5 -17.5 -5h-391c-17.333 0 -25.333 6.66699 -24 20c0.666992 12.667 9 19 25 19h390c16.667 0 25 -6.33301 25 -19z" />
    <glyph glyph-name="emdash" unicode="&#x2014;" horiz-adv-x="779" 
d="M724 255c0 -6.66699 -2.5 -11.667 -7.5 -15s-10.833 -5 -17.5 -5h-655c-17.333 0 -25.333 6.66699 -24 20c0.666992 12.667 9 19 25 19h654c16.667 0 25 -6.33301 25 -19z" />
    <glyph glyph-name="quoteleft" unicode="&#x2018;" horiz-adv-x="172" 
d="M117 612c0 -25.333 -16.002 -38.001 -48.002 -38.001c-15.333 0 -27.333 3.66699 -36 11s-13 17.333 -13 30v18c0 8.66699 1.16699 17.5 3.5 26.5s5.83301 17.333 10.5 25s10.834 14 18.501 19s17.167 7.5 28.5 7.5c16 0 24 -5.33301 24 -16
c0 -5.33301 -3.33301 -9.33301 -10 -12l-12 -3c-7.33301 -3.33301 -12.166 -7.16602 -14.499 -11.499s-3.83301 -8.5 -4.5 -12.5h5c32 0 48 -14.667 48 -44z" />
    <glyph glyph-name="quoteright" unicode="&#x2019;" horiz-adv-x="172" 
d="M117 653c0 -8.66699 -1.16504 -17.6689 -3.49805 -27.002s-5.83301 -17.666 -10.5 -24.999s-11 -13.5 -19 -18.5s-17.333 -7.5 -28 -7.5c-16 0 -24 5.33301 -24 16c0 6.66699 3.33301 10.334 10 11.001c1.33301 1.33301 3.16602 2.16602 5.49902 2.49902
s4.5 0.833008 6.5 1.5c7.33301 2.66699 12.166 6.33398 14.499 11.001s3.83301 8.66699 4.5 12h-5c-32 0 -48 13.667 -48 41s16 41 48 41c32.667 0 49 -13.667 49 -41v-17z" />
    <glyph glyph-name="quotesinglbase" unicode="&#x201a;" horiz-adv-x="172" 
d="M117 21c0 -8.66699 -1.16602 -17.668 -3.49902 -27.001s-5.83301 -17.666 -10.5 -24.999s-11 -13.5 -19 -18.5s-17.333 -7.5 -28 -7.5c-16 0 -24 5.33301 -24 16c0 4.66699 1.66699 8 5 10s7 3.66699 11 5c1.33301 0 2.33301 0.166992 3 0.5s1.66699 0.5 3 0.5
c7.33301 2.66699 12.166 6.16699 14.499 10.5s3.83301 8.5 4.5 12.5h-5c-32 0 -48 13.667 -48 41s16 41 48 41c32.667 0 49 -13.667 49 -41v-18z" />
    <glyph glyph-name="quotedblleft" unicode="&#x201c;" horiz-adv-x="279" 
d="M224 615c0 -27.333 -16.334 -41 -49.001 -41c-15.333 0 -27.333 3.66699 -36 11s-13 17.333 -13 30v18c0 8.66699 1.16699 17.667 3.5 27s6 17.666 11 24.999s11.333 13.5 19 18.5s17.167 7.5 28.5 7.5c13.333 0 21.333 -5.33301 24 -16
c0 -5.33301 -3.33301 -9.33301 -10 -12l-12 -3c-7.33301 -3.33301 -12.166 -7.16602 -14.499 -11.499s-3.83301 -8.5 -4.5 -12.5h4c32.667 0 49 -13.667 49 -41zM116.999 612c0 -25.333 -16.002 -38.001 -48.002 -38.001c-15.333 0 -27.333 3.66699 -36 11
s-13 17.333 -13 30v18c0 8.66699 1.16699 17.5 3.5 26.5s5.83301 17.333 10.5 25s10.834 14 18.501 19s17.167 7.5 28.5 7.5c16 0 24 -5.33301 24 -16c0 -5.33301 -3.33301 -9.33301 -10 -12l-12 -3c-7.33301 -3.33301 -12.166 -7.16602 -14.499 -11.499
s-3.83301 -8.5 -4.5 -12.5h5c32 0 48 -14.667 48 -44z" />
    <glyph glyph-name="quotedblright" unicode="&#x201d;" horiz-adv-x="277" 
d="M222 653c0 -8.66699 -1.16504 -17.6689 -3.49805 -27.002s-5.83301 -17.666 -10.5 -24.999s-11 -13.5 -19 -18.5s-17.333 -7.5 -28 -7.5c-16 0 -24 5.33301 -24 16c0 6.66699 3.33301 10.334 10 11.001c1.33301 1.33301 3.16602 2.16602 5.49902 2.49902
s4.5 0.833008 6.5 1.5c7.33301 2.66699 12.166 6.33398 14.499 11.001s3.83301 8.66699 4.5 12h-5c-32 0 -48 13.667 -48 41s16 41 48 41c32.667 0 49 -13.667 49 -41v-17zM117.002 652.998c0 -8.66699 -1.16504 -17.6689 -3.49805 -27.002s-5.83301 -17.666 -10.5 -24.999
s-11 -13.5 -19 -18.5s-17.333 -7.5 -28 -7.5c-16 0 -24 5.33301 -24 16c0 6.66699 3.33301 10.334 10 11.001c1.33301 1.33301 3.16602 2.16602 5.49902 2.49902s4.5 0.833008 6.5 1.5c7.33301 2.66699 12.166 6.33398 14.499 11.001s3.83301 8.66699 4.5 12h-5
c-32 0 -48 13.667 -48 41s16 41 48 41c32.667 0 49 -13.667 49 -41v-17z" />
    <glyph glyph-name="quotedblbase" unicode="&#x201e;" horiz-adv-x="317" 
d="M262 20c0 -8.66699 -1.16504 -17.6689 -3.49805 -27.002s-5.83301 -17.666 -10.5 -24.999s-11 -13.5 -19 -18.5s-17.333 -7.5 -28 -7.5c-16 0 -24 5.33301 -24 16c0 6.66699 3.33301 10.334 10 11.001c1.33301 1.33301 3.16602 2.16602 5.49902 2.49902
s4.5 0.833008 6.5 1.5c7.33301 2.66699 12.166 6.33398 14.499 11.001s3.83301 8.66699 4.5 12h-5c-32 0 -48 13.667 -48 41s16 41 48 41c32.667 0 49 -13.667 49 -41v-17zM117.002 19.998c0 -8.66699 -1.16504 -17.6689 -3.49805 -27.002s-5.83301 -17.666 -10.5 -24.999
s-11 -13.5 -19 -18.5s-17.333 -7.5 -28 -7.5c-16 0 -24 5.33301 -24 16c0 6.66699 3.33301 10.334 10 11.001c1.33301 1.33301 3.16602 2.16602 5.49902 2.49902s4.5 0.833008 6.5 1.5c7.33301 2.66699 12.166 6.33398 14.499 11.001s3.83301 8.66699 4.5 12h-5
c-32 0 -48 13.667 -48 41s16 41 48 41c32.667 0 49 -13.667 49 -41v-17z" />
    <glyph glyph-name="dagger" unicode="&#x2020;" horiz-adv-x="501" 
d="M446 489c0 -18.667 -4.33496 -34.167 -13.002 -46.5s-20.667 -18.5 -36 -18.5c-4 0 -11.5 2.66699 -22.5 8s-23.667 11.166 -38 17.499s-29.666 12.5 -45.999 18.5s-31.833 9.66699 -46.5 11c2 -56.667 19.667 -101.667 53 -135c-34 -149.333 -52 -308 -54 -476h-19
c-1.33301 86.667 -6.5 168.5 -15.5 245.5s-22.5 153.833 -40.5 230.5c34 34 52.333 79 55 135c-16 -1.33301 -32.333 -5 -49 -11s-32 -12.167 -46 -18.5s-26 -12.166 -36 -17.499s-16.333 -8 -19 -8c-16 0 -28.833 6 -38.5 18s-14.5 27.667 -14.5 47
c0 18.667 4.33301 34 13 46s20.334 18 35.001 18c4 0 11.333 -2.5 22 -7.5l37.5 -17.5c14.333 -6.66699 29.833 -12.834 46.5 -18.501s33 -9.16699 49 -10.5c-2 17.333 -6 34.333 -12 51s-12.167 31.667 -18.5 45l-17 34.5c-5 9.66699 -7.5 16.167 -7.5 19.5
c0 16 6 28.833 18 38.5s27.667 14.5 47 14.5c18.667 0 34 -4.33301 46 -13s18 -20.667 18 -36c0 -4 -2.5 -11.167 -7.5 -21.5l-17 -36.5c-6.33301 -14 -12.333 -29.333 -18 -46s-9.16699 -33.334 -10.5 -50.001c16 0.666992 32.167 3.83398 48.5 9.50098
s31.333 11.834 45 18.501s25.5 12.667 35.5 18s16.667 8 20 8c16 0 28.833 -5.83301 38.5 -17.5s14.5 -27.167 14.5 -46.5z" />
    <glyph glyph-name="daggerdbl" unicode="&#x2021;" horiz-adv-x="501" 
d="M446 81c0 -19.333 -4.83301 -34.835 -14.5 -46.502s-22.5 -17.5 -38.5 -17.5c-3.33301 0 -10 2.5 -20 7.5l-35.5 17.5c-13.667 6.66699 -28.667 12.834 -45 18.501s-32.5 9.16699 -48.5 10.5c1.33301 -16.667 4.83301 -33.334 10.5 -50.001s11.667 -32 18 -46l17 -36.5
c5 -10.333 7.5 -17.5 7.5 -21.5c0 -15.333 -6 -27.333 -18 -36s-27.333 -13 -46 -13c-19.333 0 -35 4.83301 -47 14.5s-18 22.5 -18 38.5c0 2.66699 2.5 8.83398 7.5 18.501s10.667 21.334 17 35.001s12.5 28.834 18.5 45.501s10 33.667 12 51
c-16 -1.33301 -32.333 -4.83301 -49 -10.5s-32.167 -11.834 -46.5 -18.501l-37.5 -17.5c-10.667 -5 -18 -7.5 -22 -7.5c-14.667 0 -26.334 6 -35.001 18s-13 27.333 -13 46c0 19.333 4.83301 35 14.5 47s22.5 18 38.5 18c2.66699 0 9 -2.66699 19 -8s22 -11.166 36 -17.499
s29.333 -12.5 46 -18.5s33 -9.66699 49 -11c-1.33301 30 -6.66602 60.667 -15.999 92s-22.333 64.333 -39 99c16.667 36.667 29.667 71.167 39 103.5s14.666 63.5 15.999 93.5c-16 -1.33301 -32.333 -5 -49 -11s-32 -12.167 -46 -18.5s-26 -12.166 -36 -17.499
s-16.333 -8 -19 -8c-16 0 -28.833 6 -38.5 18s-14.5 27.667 -14.5 47c0 18.667 4.33301 34 13 46s20.334 18 35.001 18c4 0 11.333 -2.5 22 -7.5l37.5 -17.5c14.333 -6.66699 29.833 -12.834 46.5 -18.501s33 -9.16699 49 -10.5c-2 17.333 -6 34.333 -12 51
s-12.167 31.667 -18.5 45l-17 34.5c-5 9.66699 -7.5 16.167 -7.5 19.5c0 16 6 28.833 18 38.5s27.667 14.5 47 14.5c18.667 0 34 -4.33301 46 -13s18 -20.667 18 -36c0 -4 -2.5 -11.167 -7.5 -21.5l-17 -36.5c-6.33301 -14 -12.333 -29.333 -18 -46
s-9.16699 -33.334 -10.5 -50.001c16 0.666992 32.167 3.83398 48.5 9.50098s31.333 11.834 45 18.501s25.5 12.667 35.5 18s16.667 8 20 8c16 0 28.833 -5.83301 38.5 -17.5s14.5 -27.167 14.5 -46.5c0 -18.667 -4.33301 -34.167 -13 -46.5s-20.667 -18.5 -36 -18.5
c-4 0 -11.5 2.66699 -22.5 8s-23.667 11.166 -38 17.499s-29.666 12.5 -45.999 18.5s-31.833 9.66699 -46.5 11c2 -53.333 19.667 -119 53 -197c-33.333 -74 -51 -137.667 -53 -191c14.667 1.33301 30.167 5 46.5 11s31.666 12.167 45.999 18.5s27 12.166 38 17.499
s18.5 8 22.5 8c15.333 0 27.333 -6.16699 36 -18.5s13 -27.833 13 -46.5z" />
    <glyph glyph-name="bullet" unicode="&#x2022;" horiz-adv-x="364" 
d="M309 351c0 -19.333 -3.83203 -37.832 -11.499 -55.499s-18 -33.167 -31 -46.5s-28.333 -23.833 -46 -31.5s-36.5 -11.5 -56.5 -11.5s-38.833 3.83301 -56.5 11.5s-33 18.167 -46 31.5s-23.167 28.666 -30.5 45.999s-11 36 -11 56s3.83301 38.667 11.5 56
s18.167 32.5 31.5 45.5s28.666 23.333 45.999 31s36 11.5 56 11.5c19.333 0 37.833 -3.83301 55.5 -11.5s33 -18 46 -31s23.333 -28.333 31 -46s11.5 -36.167 11.5 -55.5z" />
    <glyph glyph-name="ellipsis" unicode="&#x2026;" horiz-adv-x="564" 
d="M509 39c0 -26 -16.333 -39 -49 -39s-49 13 -49 39s16.333 39 49 39c15.333 0 27.333 -3.5 36 -10.5s13 -16.5 13 -28.5zM313 39c0 -26 -16.333 -38.999 -49 -38.999c-32 0 -48.333 13 -49 39c-0.666992 13.333 3.5 23.166 12.5 29.499s21.167 9.5 36.5 9.5
s27.333 -3.5 36 -10.5s13 -16.5 13 -28.5zM118 39.001c0 -26 -16.333 -39 -49 -39s-49 13 -49 39s16.333 39 49 39c15.333 0 27.333 -3.5 36 -10.5s13 -16.5 13 -28.5z" />
    <glyph glyph-name="perthousand" unicode="&#x2030;" horiz-adv-x="1002" 
d="M947 158c0 -48 -12.5029 -86.832 -37.5029 -116.499s-60.5 -44.5 -106.5 -44.5c-21.333 0 -40.666 4 -57.999 12s-32.333 19 -45 33s-22.5 30.833 -29.5 50.5s-10.5 41.5 -10.5 65.5c0 38 7.5 71 22.5 99s36.5 47.667 64.5 59c17.333 7.33301 36 11 56 11
c20.667 0 39.834 -3.83301 57.501 -11.5s32.834 -18.834 45.501 -33.501s22.667 -32.5 30 -53.5s11 -44.5 11 -70.5zM306.997 498.001c0 -48 -12.5029 -86.832 -37.5029 -116.499s-60.5 -44.5 -106.5 -44.5c-21.333 0 -40.666 4 -57.999 12s-32.333 19 -45 33
s-22.5 30.833 -29.5 50.5s-10.5 41.5 -10.5 65.5c0 38 7.5 71 22.5 99s36.5 47.667 64.5 59c17.333 7.33301 36 11 56 11c20.667 0 39.834 -3.83301 57.501 -11.5s32.834 -18.834 45.501 -33.501s22.667 -32.5 30 -53.5s11 -44.5 11 -70.5zM591.994 663.002l-475 -664h-55
l478 664h52zM636.994 158.002c0 -48 -12.5029 -86.832 -37.5029 -116.499s-60.5 -44.5 -106.5 -44.5c-21.333 0 -40.666 4 -57.999 12s-32.333 19 -45 33s-22.5 30.833 -29.5 50.5s-10.5 41.5 -10.5 65.5c0 38 7.5 71 22.5 99s36.5 47.667 64.5 59
c17.333 7.33301 36 11 56 11c20.667 0 39.834 -3.83301 57.501 -11.5s32.834 -18.834 45.501 -33.501s22.667 -32.5 30 -53.5s11 -44.5 11 -70.5zM883.991 156.003c0 40 -6.33203 71.5 -18.999 94.5s-33 34.5 -61 34.5c-10 0 -21 -2.66699 -33 -8
c-16.667 -7.33301 -28.834 -21.5 -36.501 -42.5s-11.5 -46.5 -11.5 -76.5c0 -34 6.33301 -62 19 -84s33 -33 61 -33c26 0 46 10.167 60 30.5s21 48.5 21 84.5zM243.992 496.003c0 40 -6.33203 71.5 -18.999 94.5s-33 34.5 -61 34.5c-10 0 -21 -2.66699 -33 -8
c-16.667 -7.33301 -28.834 -21.5 -36.501 -42.5s-11.5 -46.5 -11.5 -76.5c0 -34 6.33301 -62 19 -84s33 -33 61 -33c26 0 46 10.167 60 30.5s21 48.5 21 84.5zM573.993 156.003c0 40 -6.33203 71.5 -18.999 94.5s-33 34.5 -61 34.5c-10 0 -21 -2.66699 -33 -8
c-16.667 -7.33301 -28.834 -21.5 -36.501 -42.5s-11.5 -46.5 -11.5 -76.5c0 -34 6.33301 -62 19 -84s33 -33 61 -33c26 0 46 10.167 60 30.5s21 48.5 21 84.5z" />
    <glyph glyph-name="guilsinglleft" unicode="&#x2039;" horiz-adv-x="302" 
d="M247 445c0 -2 -1.00098 -4.33203 -3.00098 -6.99902l-135 -184l-1.5 -7.5c-0.333008 -1.66699 -0.5 -2.16699 -0.5 -1.5c0.666992 -0.666992 1 -1.33398 1 -2.00098c0 -2.66699 0.333008 -4.66699 1 -6l134 -183c2 -4 3 -7 3 -9c0 -3.33301 -2 -5 -6 -5h-37
c-7.33301 0 -14.666 2.66699 -21.999 8l-158 190c-2 2 -3 4.66699 -3 8c0 -0.666992 0.166992 -0.166992 0.5 1.5l1.5 7.5l163 188c4.66699 4.66699 10.667 7 18 7h37c4.66699 0 7 -1.66699 7 -5z" />
    <glyph glyph-name="guilsinglright" unicode="&#x203a;" horiz-adv-x="303" 
d="M248 246c0 -3.33301 -1 -6.00098 -3 -8.00098l-158 -190c-7.33301 -5.33301 -15 -8 -23 -8h-36c-4.66699 0 -7 1.66699 -7 5s1.33301 6.33301 4 9l132 183c2 0.666992 3 3.66699 3 9l-2 8l-136 184c-0.666992 0.666992 -1 2 -1 4
c0 0.666992 -0.333008 1.33398 -1 2.00098c0 4 2.66699 6 8 6h36c8 -1.33301 14.333 -3.66602 19 -6.99902l163 -189c0 -1.33301 0.166992 -2.5 0.5 -3.5s0.5 -1.83301 0.5 -2.5s0.333008 -1.33398 1 -2.00098z" />
    <glyph glyph-name="fraction" unicode="&#x2044;" horiz-adv-x="605" 
d="M550 663l-475 -664h-55l478 664h52z" />
    <glyph glyph-name="uni2074" unicode="&#x2074;" horiz-adv-x="369" 
d="M300 549c0 -10 -5.66699 -15 -17 -15l-35 -1c-4.66699 -0.666992 -7 -2.66699 -7 -6v-79c0 -10.667 -5.66699 -16 -17 -16h-23c-11.333 0 -17 5.33301 -17 16v79c0 4 -2 6 -6 6h-153c-11.333 0 -17 5.33301 -17 16v15c0 4.66699 0.666992 8.66699 2 12s3 7 5 11l158 230
l6 8c3.33301 3.33301 6.5 5.83301 9.5 7.5s7.16699 2.5 12.5 2.5h23c11.333 0 17 -5.33301 17 -16v-232c0 -4.66699 2.33301 -7 7 -7h35c11.333 0 17 -5.33301 17 -16v-15zM184 762l-120.999 -183v-1c0 -0.666992 0.166992 -0.5 0.5 0.5s1.16602 1.5 2.49902 1.5h112
c4 0 6 2.33301 6 7v175z" />
    <glyph glyph-name="Euro" unicode="&#x20ac;" horiz-adv-x="594" 
d="M539 34c-53.333 -26 -108.003 -39 -164.003 -39c-93.333 0 -164.333 28 -213 84c-19.333 22.667 -34.666 52.667 -45.999 90s-19 76 -23 116h-54c-12.667 0 -19 6.66699 -19 20c0.666992 12.667 7.33398 19 20.001 19h50v31h-51c-12.667 0 -19 6.66699 -19 20
c0.666992 12.667 7.33398 19 20.001 19h51c2.66699 44.667 10 81.5 22 110.5s28.667 55.5 50 79.5c50 56.667 120.667 85 212 85c58 0 112.333 -13.333 163 -40v-87c0 -19.333 -4.66699 -29 -14 -29c-8.66699 0 -16.667 9.66699 -24 29l-10 29c-20 32.667 -56 49 -108 49
c-46 0 -86.167 -13.833 -120.5 -41.5s-59.5 -68.5 -75.5 -122.5c-3.33301 -12.667 -6.33301 -22.5 -9 -29.5s-4.66699 -17.833 -6 -32.5h202c13.333 0 20 -6.33301 20 -19c0 -6.66699 -2 -11.667 -6 -15s-8.66699 -5 -14 -5h-203v-31h203c13.333 0 20 -6.33301 20 -19
c0 -6.66699 -2 -11.667 -6 -15s-8.66699 -5 -14 -5h-199l5 -40c2 -16 4.33301 -28.333 7 -37c16 -54 41.167 -94.833 75.5 -122.5s74.5 -41.5 120.5 -41.5c52 0 88 16.333 108 49l10 29c7.33301 19.333 15.333 29 24 29c10 0 15 -9.66699 15 -29v-88z" />
    <glyph glyph-name="trademark" unicode="&#x2122;" horiz-adv-x="734" 
d="M679 308c0 -5.33301 -4 -8.00098 -12 -8.00098h-83c-8 0 -12 2.66699 -12 8c0 3.33301 1.66699 5.83301 5 7.5s7 3.33398 11 5.00098s7.66699 3.5 11 5.5s5 4.66699 5 8v255c0 2.66699 -0.333008 4 -1 4s-2.66699 -3.66699 -6 -11l-98 -243
c-5.33301 -12 -11.333 -18 -18 -18c-7.33301 0 -13.333 6 -18 18l-98 254c-3.33301 7.33301 -5.33301 11 -6 11s-1 -1.66699 -1 -5v-264c0 -4 1.66699 -7 5 -9s7 -3.83301 11 -5.5s7.66699 -3.33398 11 -5.00098s5 -4.16699 5 -7.5c0 -5.33301 -3.66699 -8 -11 -8h-74
c-7.33301 0 -11 2.66699 -11 8c0 3.33301 1.66699 5.83301 5 7.5s7 3.33398 11 5.00098s7.66699 3.5 11 5.5s5 4.66699 5 8v296c0 3.33301 -1.66699 6 -5 8s-7 3.83301 -11 5.5s-7.66699 3.33398 -11 5.00098s-5 4.16699 -5 7.5c0 5.33301 3.66699 8 11 8h68
c7.33301 0 13 -5.66699 17 -17l95 -254c0.666992 -2.66699 2 -4 4 -4c1.33301 0 2.33301 1.33301 3 4l105 254c5.33301 11.333 11.333 17 18 17h54c6.66699 0 10 -2.66699 10 -8c0 -6 -5.33301 -10.333 -16 -13c-10.667 -2 -16 -6.66699 -16 -14v-294c0 -4 1.66699 -7 5 -9
s7 -3.83301 11 -5.5s7.66699 -3.33398 11 -5.00098s5 -4.16699 5 -7.5zM283 615.999c0 -7.33301 -2.99902 -11 -8.99902 -11c-3.33301 0 -5.83301 1.66699 -7.5 5s-3.33398 7 -5.00098 11s-3.5 7.66699 -5.5 11s-4.66699 5 -8 5h-62c-6.66699 0 -10 -3.66699 -10 -11v-291
c0 -7.33301 5.33301 -12 16 -14c10.667 -4 16 -8.33301 16 -13c0 -5.33301 -3.66699 -8 -11 -8h-85c-7.33301 0 -11 2.66699 -11 8c0 2.66699 1.66699 5 5 7s7 3.83301 11 5.5s7.66699 3.5 11 5.5s5 4.66699 5 8v292c0 7.33301 -3.66699 11 -11 11h-67
c-3.33301 0 -6 -1.66699 -8 -5s-3.83301 -7 -5.5 -11s-3.5 -7.66699 -5.5 -11s-4.66699 -5 -8 -5c-5.33301 0 -8 3.66699 -8 11v38c0 6.66699 4 10 12 10h240c6.66699 0 10 -3.33301 10 -10z" />
    <glyph glyph-name="partialdiff" unicode="&#x2202;" horiz-adv-x="528" 
d="M473 429c0 -34 -2.99902 -69.1709 -8.99902 -105.504s-14.333 -71.166 -25 -104.499s-23.667 -63.666 -39 -90.999s-32.333 -49 -51 -65c-50 -42 -102.667 -63 -158 -63c-22.667 0 -44.334 3.5 -65.001 10.5s-38.834 17.167 -54.501 30.5s-28.167 29.833 -37.5 49.5
s-14 42.5 -14 68.5c0 46 8.33301 86 25 120s37.667 62 63 84s53.166 38.5 83.499 49.5s59.166 16.5 86.499 16.5c36.667 0 68.667 -5.33301 96 -16c2.66699 -2.66699 6.33398 -4 11.001 -4c4 0 6.66699 3.5 8 10.5s2 20.5 2 40.5c0 16 -1.83301 33.333 -5.5 52
s-10.667 35.834 -21 51.501s-24.666 28.834 -42.999 39.501s-42.166 16 -71.499 16c-22.667 0 -49 -3 -79 -9c-0.666992 -0.666992 -3 -1 -7 -1c-9.33301 0 -14 5.33301 -14 16c2.66699 12 10.667 20 24 24c34 10.667 67.667 16 101 16c34 0 63.167 -6 87.5 -18
s44.5 -28.5 60.5 -49.5s27.667 -46 35 -75s11 -60.167 11 -93.5zM381.001 326.996c-0.666992 12.667 -4.00098 21 -10.001 25c-40 16 -75.333 24 -106 24c-26.667 0 -50 -6.16699 -70 -18.5s-36.833 -28.5 -50.5 -48.5s-24 -42.667 -31 -68s-10.5 -51 -10.5 -77
c0 -68.667 29 -103 87 -103c56.667 0 100.334 21.833 131.001 65.5s50.667 110.5 60 200.5z" />
    <glyph glyph-name="Delta" unicode="&#x2206;" horiz-adv-x="596" 
d="M541 0h-521l264 700zM461 60l-187 501l-190 -501h377z" />
    <glyph glyph-name="minus" unicode="&#x2212;" horiz-adv-x="445" 
d="M390 265c0 -8 -2.49902 -14 -7.49902 -18s-10.833 -6 -17.5 -6h-321c-17.333 0 -25.333 8 -24 24c1.33301 15.333 9.66602 23 24.999 23h320c16.667 0 25 -7.66699 25 -23z" />
    <glyph glyph-name="uni2215" unicode="&#x2215;" horiz-adv-x="605" 
d="M550 663l-475 -664h-55l478 664h52z" />
    <glyph glyph-name="uni2219" unicode="&#x2219;" horiz-adv-x="173" 
d="M118 342c0 -26 -16.333 -39 -49 -39s-49 13 -49 39s16.333 39 49 39c15.333 0 27.333 -3.5 36 -10.5s13 -16.5 13 -28.5z" />
    <glyph glyph-name="radical" unicode="&#x221a;" horiz-adv-x="645" 
d="M590 769c0 -6 -2.99902 -10.6631 -8.99902 -13.9961s-12.833 -6.83301 -20.5 -10.5s-15.334 -7.83398 -23.001 -12.501s-12.834 -11.334 -15.501 -20.001l-248 -712h-29l-157 417c-3.33301 8.66699 -8.66602 15.5 -15.999 20.5s-14.833 9.16699 -22.5 12.5
s-14.5 6.66602 -20.5 9.99902s-9 8 -9 14c1.33301 9.33301 8 14 20 14h94c2.66699 0 6 -3.83301 10 -11.5s10.333 -23.834 19 -48.501l37.5 -106l66.5 -184c2 -7.33301 4.33301 -11 7 -11s5 3.66699 7 11l213 631c5.33301 9.33301 16 14 32 14l45 1c12.667 0 19 -5 19 -15z
" />
    </font>
</defs>
</svg>
